<?xml version="1.0" encoding="utf-8"?>
<!-- Generator: Adobe Illustrator 16.0.0, SVG Export Plug-In . SVG Version: 6.00 Build 0)  -->
<!DOCTYPE svg PUBLIC "-//W3C//DTD SVG 1.1//EN" "http://www.w3.org/Graphics/SVG/1.1/DTD/svg11.dtd">
<svg version="1.1" id="图层_2" xmlns="http://www.w3.org/2000/svg" xmlns:xlink="http://www.w3.org/1999/xlink" x="0px" y="0px"
	 width="200px" height="200px" viewBox="0 0 200 200" enable-background="new 0 0 200 200" xml:space="preserve">
<path fill="none" stroke="#040000" stroke-miterlimit="10" d="M130.151,189.781H28.298c-12.961,0-23.504-10.543-23.504-23.504
	V33.085c0-12.961,10.543-23.504,23.504-23.504h101.853c12.962,0,23.505,10.543,23.505,23.504v42.552
	c0,4.327-3.504,7.835-7.835,7.835s-7.835-3.508-7.835-7.835V33.085c0-4.319-3.512-7.835-7.834-7.835H28.298
	c-4.319,0-7.834,3.516-7.834,7.835v133.192c0,4.322,3.516,7.834,7.834,7.834h101.853c4.323,0,7.835-3.512,7.835-7.834v-15.104
	c0-4.33,3.504-7.834,7.835-7.834s7.835,3.504,7.835,7.834v15.104C153.656,179.238,143.113,189.781,130.151,189.781z"/>
<polygon fill="none" stroke="#040000" stroke-miterlimit="10" points="177.379,63.645 121.979,119.047 118.068,141.424 
	139.279,134.961 194,80.265 "/>
<path fill="none" stroke="#040000" stroke-miterlimit="10" d="M43.964,146.689c-0.65,0-1.312-0.16-1.92-0.504
	c-1.886-1.064-2.552-3.451-1.488-5.34c16.775-29.734,23.26-28.717,25.433-28.363c1.58,0.244,4.369,1.354,5.321,5.998
	c0.819,3.994,1.052,8.018,1.24,11.254c0.042,0.705,0.088,1.492,0.141,2.258l2.831-3.098c5.83-6.451,9.381-10.322,13.834-9.273
	c3.837,0.895,5.008,5.057,5.394,6.418c0.644,2.289,0.646,4.424,0.437,6.229c0.585-0.252,1.246-0.551,2-0.895
	c1.963-0.902,4.289-0.031,5.191,1.943c0.896,1.967,0.031,4.293-1.943,5.188c-6.235,2.838-9.613,4.23-12.275,2.035
	c-2.354-1.928-1.684-4.76-1.244-6.643c0.41-1.721,0.869-3.68,0.291-5.73c-0.008-0.029-0.016-0.061-0.023-0.092
	c-1.545,1.316-3.879,3.895-5.849,6.076l-3.152,3.451c-1.671,1.805-5.138,5.568-9.013,4.154c-3.849-1.377-4.097-5.654-4.438-11.568
	c-0.165-2.785-0.344-5.9-0.876-8.967c-3.608,3.158-10.501,12.891-16.473,23.48C46.661,145.971,45.33,146.689,43.964,146.689z"/>
<rect x="36.133" y="56.59" fill="#040000" width="86.183" height="7.834"/>
<rect x="36.133" y="72.259" fill="#040000" width="86.183" height="7.835"/>
<rect x="36.133" y="87.929" fill="#040000" width="70.513" height="7.834"/>
</svg>
