<?xml version="1.0" encoding="utf-8"?>
<!-- Generator: Adobe Illustrator 16.0.0, SVG Export Plug-In . SVG Version: 6.00 Build 0)  -->
<!DOCTYPE svg PUBLIC "-//W3C//DTD SVG 1.1//EN" "http://www.w3.org/Graphics/SVG/1.1/DTD/svg11.dtd">
<svg version="1.1" id="图层_3" xmlns="http://www.w3.org/2000/svg" xmlns:xlink="http://www.w3.org/1999/xlink" x="0px" y="0px"
	 width="200px" height="200px" viewBox="0 0 200 200" enable-background="new 0 0 200 200" xml:space="preserve">
<path fill="none" stroke="#040000" stroke-miterlimit="10" d="M162.693,185.42c-1.723,0.002-3.375-0.684-4.591-1.903l-43.491-43.56
	c-2.496-2.587-2.424-6.707,0.161-9.204c2.521-2.433,6.513-2.437,9.036-0.007l38.885,38.954l6.788-6.802l-38.786-38.828
	c-2.497-2.586-2.426-6.707,0.16-9.204c2.52-2.433,6.513-2.436,9.036-0.007l43.391,43.448c2.544,2.54,2.547,6.661,0.006,9.204
	c-0.002,0.001-0.004,0.003-0.006,0.005l-15.971,16c-1.222,1.22-2.878,1.905-4.604,1.903H162.693z"/>
<path fill="none" stroke="#040000" stroke-miterlimit="10" d="M115.283,20.882c0.293-0.821,0.416-1.692,0.365-2.562v-0.028
	c-0.053-0.831-0.268-1.645-0.63-2.394c-0.07-0.14-0.183-0.252-0.267-0.392c-0.307-0.593-0.709-1.132-1.189-1.596
	c-0.196-0.168-0.421-0.28-0.645-0.42c-0.377-0.28-0.728-0.602-1.175-0.798l-0.393-0.14h-0.014
	C88.405,3.006,61.97,8.39,44.598,26.145c-0.154,0.154-0.224,0.364-0.364,0.546c-0.168,0.14-0.378,0.195-0.532,0.364L11.032,59.962
	c-2.535,2.563-2.535,6.689,0,9.252l19.82,20.072c2.487,2.52,6.546,2.547,9.066,0.061c0.02-0.021,0.04-0.041,0.06-0.061
	l11.296-11.436L65.02,91.764c2.476,2.52,6.526,2.556,9.046,0.08c0.027-0.026,0.054-0.053,0.08-0.08c2.526-2.562,2.526-6.677,0-9.238
	L55.824,64.021c-2.469-2.517-6.51-2.555-9.026-0.086c-0.029,0.028-0.058,0.057-0.086,0.086L35.416,75.458l-10.68-10.82L52.8,36.307
	c0.168-0.168,0.224-0.393,0.378-0.561c0.168-0.14,0.378-0.21,0.546-0.378c7.815-7.909,18.127-12.87,29.185-14.039l-1.316,1.05
	c-1.828,1.381-3.559,2.887-5.179,4.506c-0.112,0.113-0.14,0.252-0.238,0.364c-4.574,4.655-8.42,9.973-11.408,15.775l0.084,0.042
	c-2.478,5.039-2.478,10.946,0.098,15.957c0.308,0.588,0.7,1.12,1.162,1.568c0.141,0.196,0.21,0.434,0.392,0.616L80.71,75.583
	c2.48,2.517,6.53,2.546,9.047,0.066c0.022-0.022,0.044-0.044,0.066-0.066c2.525-2.562,2.525-6.677,0-9.238L76.33,52.656
	c-0.547-1.238-0.511-2.655,0.098-3.863l0.042-0.182c2.37-4.5,5.388-8.627,8.958-12.248c0.84-0.84,1.75-1.567,2.618-2.337
	c6.028-5.208,13.592-8.304,21.542-8.818c0.112,0,0.21-0.07,0.323-0.07c0.726-0.065,1.436-0.254,2.099-0.56
	c0.098-0.056,0.168-0.14,0.279-0.182c0.643-0.341,1.221-0.791,1.708-1.33c0.057-0.056,0.084-0.14,0.126-0.182
	c0.447-0.49,0.815-1.048,1.093-1.651c0.055-0.112,0.042-0.238,0.084-0.35H115.283z"/>
<path fill="none" stroke="#040000" stroke-miterlimit="10" d="M54.368,189.857c-5.819-0.008-11.566-1.288-16.838-3.751
	c-3.262-1.549-4.65-5.448-3.102-8.709c0.317-0.669,0.746-1.278,1.268-1.804l17.945-17.958l-6.733-6.719l-17.846,17.818
	c-2.522,2.55-6.635,2.572-9.185,0.051c-0.576-0.569-1.041-1.242-1.369-1.983c-6.661-14.847-3.502-32.263,7.951-43.825
	c10.401-10.238,25.592-13.923,39.528-9.588l48.655-48.64c-4.375-13.931-0.686-29.139,9.587-39.515
	c7.311-7.345,17.256-11.458,27.617-11.422c5.558,0,11.17,1.204,16.237,3.485c3.276,1.461,4.748,5.301,3.287,8.577
	c-0.33,0.739-0.793,1.41-1.369,1.978l-18.085,18.084l6.732,6.747l18.225-18.21c2.537-2.546,6.659-2.553,9.204-0.016
	c0.534,0.532,0.973,1.153,1.294,1.835c7.045,14.939,3.99,32.689-7.644,44.414c-7.299,7.332-17.228,11.439-27.574,11.408
	c-4.228,0-8.468-0.7-12.472-2.03l-48.374,48.319c4.619,13.955,1.12,29.548-9.378,40.047c-7.299,7.332-17.229,11.439-27.575,11.407
	H54.368z"/>
<path fill="#040000" d="M53.192,176.504c7.338,0.434,14.51-2.305,19.694-7.518c7.698-7.697,9.728-19.567,5.039-29.533
	c-1.165-2.476-0.65-5.416,1.288-7.349l54.169-54.17c1.928-1.933,4.855-2.458,7.335-1.315c9.937,4.575,21.663,2.573,29.52-5.039
	c5.264-5.263,7.867-12.472,7.503-19.694l-14.726,14.739c-2.526,2.535-6.629,2.543-9.165,0.017c-0.005-0.006-0.011-0.012-0.017-0.017
	L137.96,50.724c-2.535-2.536-2.535-6.646,0-9.182l14.417-14.417c-7.109-0.203-13.99,2.531-19.022,7.559
	c-7.688,7.659-9.779,19.302-5.235,29.156c1.113,2.467,0.584,5.365-1.329,7.279l-54.408,54.38c-1.912,1.893-4.791,2.421-7.25,1.329
	c-9.88-4.358-21.417-2.281-29.157,5.249c-5.06,5.03-7.807,11.933-7.586,19.064l14.193-14.193c2.526-2.535,6.63-2.543,9.166-0.017
	c0.005,0.006,0.011,0.012,0.017,0.017l15.901,15.901c2.536,2.526,2.543,6.629,0.017,9.165c-0.006,0.005-0.011,0.011-0.017,0.017
	L53.192,176.504L53.192,176.504z"/>
</svg>
