<?xml version="1.0" encoding="utf-8"?>
<!-- Generator: Adobe Illustrator 16.0.0, SVG Export Plug-In . SVG Version: 6.00 Build 0)  -->
<!DOCTYPE svg PUBLIC "-//W3C//DTD SVG 1.1//EN" "http://www.w3.org/Graphics/SVG/1.1/DTD/svg11.dtd">
<svg version="1.1" id="图层_2" xmlns="http://www.w3.org/2000/svg" xmlns:xlink="http://www.w3.org/1999/xlink" x="0px" y="0px"
	 width="200px" height="200px" viewBox="0 0 200 200" enable-background="new 0 0 200 200" xml:space="preserve">
<path fill="none" stroke="#040000" stroke-miterlimit="10" d="M189.969,77.07c-0.28-2.549-2.439-4.533-5.063-4.533
	c-2.624,0-4.783,1.984-5.063,4.533h-0.033v88.426c0,8.117-6.602,14.719-14.719,14.719H34.323c-8.116,0-14.719-6.602-14.719-14.719
	V33.665c0-8.116,6.603-14.719,14.719-14.719l87.791-0.007c2.75-0.074,4.957-2.321,4.957-5.087c0-2.767-2.207-5.013-4.957-5.088
	V8.756H34.323c-13.735,0-24.908,11.174-24.908,24.908v131.832c0,13.734,11.174,24.908,24.908,24.908h130.769
	c13.735,0,24.908-11.174,24.908-24.908V77.07H189.969L189.969,77.07z"/>
<path fill="#040000" d="M58.753,130.432l-0.023,0.095c-0.417,1.77-0.776,5.079,1.506,7.359c1.415,1.418,3.226,1.817,4.818,1.817
	c0.972,0,1.863-0.15,2.533-0.307l27.829-7.348l88.695-88.696c3.101-3.101,4.809-7.223,4.809-11.608
	c0-4.385-1.707-8.508-4.809-11.608l-6.138-6.138c-6.401-6.4-16.816-6.402-23.218,0l-88.704,88.704L58.753,130.432L58.753,130.432z"
	/>
<polygon fill="#FFFFFF" points="74.236,111.073 87.051,123.888 69.817,128.307 74.236,111.073 "/>
<polygon fill="#FFFFFF" points="80.369,102.796 149.688,33.478 164.631,48.423 95.314,117.74 80.369,102.796 "/>
<path fill="#FFFFFF" d="M170.769,21.203l6.138,6.138c2.428,2.428,2.428,6.379,0,8.807l-5.069,5.07l-14.944-14.944l5.069-5.07
	C164.391,18.774,168.342,18.776,170.769,21.203z"/>
</svg>
