<?xml version="1.0" encoding="utf-8"?>
<!-- Generator: Adobe Illustrator 16.0.0, SVG Export Plug-In . SVG Version: 6.00 Build 0)  -->
<!DOCTYPE svg PUBLIC "-//W3C//DTD SVG 1.1//EN" "http://www.w3.org/Graphics/SVG/1.1/DTD/svg11.dtd">
<svg version="1.1" id="图层_2" xmlns="http://www.w3.org/2000/svg" xmlns:xlink="http://www.w3.org/1999/xlink" x="0px" y="0px"
	 width="200px" height="200px" viewBox="0 0 200 200" enable-background="new 0 0 200 200" xml:space="preserve">
<path fill="#040000" d="M148.92,95.278c0.416,2.673,2.756,4.597,5.338,4.597c0.251,0,0.591,0,0.842-0.083
	c3.006-0.417,5.005-3.257,4.589-6.179c-7.179-47.002-49.418-49.25-49.834-49.25c-2.923-0.167-5.513,2.248-5.68,5.254
	c-0.083,3.006,2.25,5.504,5.264,5.671C109.771,55.29,142.999,57.046,148.92,95.278z"/>
<path fill="#040000" d="M161.02,43.355C123.962,6.29,90.151,19.313,88.736,19.896c-2.765,1.083-4.181,4.264-3.015,7.096
	c1.091,2.756,4.264,4.18,7.095,3.014c0.25-0.091,28.556-10.942,60.527,21.036c29.47,29.463,20.868,59.434,20.452,60.601
	c-0.916,2.84,0.666,5.929,3.598,6.847c0.5,0.174,1.082,0.257,1.664,0.257c2.333,0,4.507-1.508,5.18-3.848
	C184.654,113.482,195.413,77.666,161.02,43.355z"/>
<path fill="none" stroke="#040000" stroke-miterlimit="10" d="M171.214,150.624c-0.417-7.178-4.265-13.774-11.525-19.611
	c-7.763-6.18-14.607-9.269-21.121-9.269c-9.517,0-15.688,6.262-21.202,11.858l-1.748,1.499c-1.674,0-8.602-1.416-27.298-20.119
	C66.526,93.196,68.2,87.434,68.2,87.434l1.499-1.5c8.594-8.519,20.369-20.119,2.582-42.237
	c-6.171-7.686-13.183-11.525-20.786-11.525c-12.184,0-22.118,9.935-27.464,15.273c-15.773,15.781,7.262,62.358,38.407,93.502
	c30.047,29.798,61.359,43.238,79.054,43.238c6.43,0,11.268-1.666,14.524-4.922C161.186,174.092,171.879,163.398,171.214,150.624z
	 M148.338,171.585c-0.5,0.499-2.258,1.757-6.847,1.757c-14.948,0-43.662-12.608-71.209-40.156
	c-36.226-36.233-44.495-72.05-38.399-78.063c3.923-3.914,12.017-12.017,19.695-12.017c4.264,0,8.27,2.423,12.359,7.52
	c11.608,14.523,6.596,19.445-1.749,27.713l-1.59,1.5c-2.09,2.082-3.173,4.846-3.173,8.011c0,5.014,2.424,14.024,23.293,34.976
	c20.87,20.869,29.972,23.302,34.984,23.302l0,0c3.081,0,5.838-1.092,7.929-3.182l1.499-1.582c4.514-4.597,8.428-8.595,13.439-8.595
	c3.841,0,8.679,2.332,14.274,6.846c4.847,3.831,7.263,7.678,7.429,11.767C160.77,159.144,152.342,167.495,148.338,171.585z"/>
</svg>
