<?xml version="1.0" encoding="utf-8"?>
<!-- Generator: Adobe Illustrator 16.0.0, SVG Export Plug-In . SVG Version: 6.00 Build 0)  -->
<!DOCTYPE svg PUBLIC "-//W3C//DTD SVG 1.1//EN" "http://www.w3.org/Graphics/SVG/1.1/DTD/svg11.dtd">
<svg version="1.1" xmlns="http://www.w3.org/2000/svg" xmlns:xlink="http://www.w3.org/1999/xlink" x="0px" y="0px" width="200px"
	 height="200px" viewBox="0 0 200 200" enable-background="new 0 0 200 200" xml:space="preserve">
<g id="图层_1">
	<path fill="none" stroke="#040000" stroke-miterlimit="10" d="M195.078,126.695c-2.402-0.391-3.73-5.078-2.969-10.41
		c0,0,0.215-1.426,0.215-7.148C192.324,59.43,151.309,19,100.879,19c-50.41,0-91.445,40.43-91.445,90.137
		c0,5.625,0.176,6.875,0.176,6.875c0.762,5.332-0.977,10.098-3.848,10.566s-4.395,5.176-3.379,10.469l6.406,33.828
		c0.996,5.293,6.172,8.906,11.484,8.047l11.719-1.934c5.313-0.879,8.848-5.918,7.852-11.211l-6.406-33.828
		c-0.996-5.293-4.102-9.258-6.895-8.789s-5.762-3.516-6.582-8.848c0,0-0.02-0.117-0.02-5.176c0-44.297,36.309-80.332,80.918-80.332
		c44.629,0,80.918,36.035,80.918,80.332c0,5.156-0.039,5.449-0.039,5.449c-0.84,5.332-4.18,9.238-7.441,8.711
		s-6.758,3.359-7.754,8.652l-6.387,33.828c-0.996,5.293,2.539,10.352,7.852,11.211l11.719,1.934
		c5.313,0.879,10.488-2.754,11.484-8.047l6.406-33.828C198.613,131.754,197.48,127.105,195.078,126.695z"/>
	<path fill="#040000" d="M72.578,149.918l-14.297-14.512l-11.523,13.32l-3.711-3.203l15.02-17.344l13.066,13.301l14.316-30.293
		l17.246,27.637l16.992-27.227l16.348,27.266l8.73-8.926l15.02,15.488l-3.516,3.398l-11.523-11.875l-9.648,9.863l-15.508-25.82
		l-16.895,27.09l-16.66-26.68L72.578,149.918z"/>
</g>
<g id="图层_2">
</g>
</svg>
