<?xml version="1.0" encoding="utf-8"?>
<!-- Generator: Adobe Illustrator 16.0.0, SVG Export Plug-In . SVG Version: 6.00 Build 0)  -->
<!DOCTYPE svg PUBLIC "-//W3C//DTD SVG 1.1//EN" "http://www.w3.org/Graphics/SVG/1.1/DTD/svg11.dtd">
<svg version="1.1" id="图层_3" xmlns="http://www.w3.org/2000/svg" xmlns:xlink="http://www.w3.org/1999/xlink" x="0px" y="0px"
	 width="200px" height="200px" viewBox="0 0 200 200" enable-background="new 0 0 200 200" xml:space="preserve">
<path fill="none" stroke="#2C2C2C" stroke-miterlimit="10" d="M190.772,169.17h-9.3c-2.343,0-4.241-1.898-4.241-4.242
	c0-2.343,1.898-4.241,4.241-4.241h5.07V48.853c-0.012-5.454-4.43-9.873-9.885-9.88h-20.434c-2.342,0-4.24-1.899-4.24-4.241
	c0-2.343,1.898-4.242,4.24-4.242l0,0h20.434c10.13,0.02,18.332,8.233,18.342,18.363v116.082
	C194.999,167.271,193.108,169.165,190.772,169.17z"/>
<path fill="none" stroke="#2C2C2C" stroke-miterlimit="10" d="M139.541,31.567c0.048,0.045,0.094,0.09,0.141,0.135
	c13.852,13.452,21.484,31.489,21.484,50.791c0.003,39.025-31.752,70.779-70.781,70.779c-39.027,0-70.779-31.754-70.779-70.784
	c0-19.303,7.628-37.341,21.482-50.791"/>
<path fill="none" stroke="#2C2C2C" stroke-miterlimit="10" d="M46.99,37.776c-12.135,11.701-18.967,27.85-18.913,44.708
	c0,34.357,27.951,62.31,62.308,62.31c34.357,0,62.31-27.948,62.31-62.305c0.053-16.858-6.778-33.008-18.915-44.708"/>
<path fill="none" stroke="#2C2C2C" stroke-miterlimit="10" d="M146.165,169.17H22.587c-10.127-0.021-18.329-8.229-18.342-18.356
	V34.738c0.005-2.333,1.895-4.223,4.228-4.228h17.424c2.343,0,4.242,1.899,4.242,4.242s-1.899,4.242-4.242,4.242H12.709v111.839
	c0.018,5.445,4.432,9.854,9.877,9.865h123.578c2.344,0,4.241,1.898,4.241,4.241c0,2.344-1.897,4.242-4.241,4.242V169.17z"/>
<path fill="#2C2C2C" d="M120.486,65.13H58.337c-2.343,0-4.242-1.899-4.242-4.241c0-2.343,1.899-4.242,4.242-4.242h62.149
	c2.344,0,4.242,1.899,4.242,4.242C124.729,63.231,122.83,65.13,120.486,65.13z M89.418,87.618H58.337
	c-2.343,0-4.242-1.899-4.242-4.242c0-2.343,1.899-4.242,4.242-4.242h31.081c2.343,0,4.241,1.899,4.241,4.242
	C93.659,85.719,91.761,87.618,89.418,87.618z"/>
<path fill="none" stroke="#2C2C2C" stroke-miterlimit="10" d="M90.385,153.272c-39.027,0-70.779-31.754-70.779-70.784
	c0-19.303,7.628-37.341,21.482-50.791c27.46-26.65,71.128-26.65,98.588,0c13.853,13.451,21.485,31.487,21.485,50.791
	C161.169,121.519,129.414,153.272,90.385,153.272z M46.99,37.776c-12.135,11.701-18.967,27.85-18.913,44.708
	c0,34.357,27.951,62.31,62.308,62.31c34.357,0,62.31-27.948,62.31-62.305c-0.011-34.413-27.912-62.303-62.327-62.294
	C74.178,20.199,58.623,26.506,47,37.78L46.99,37.776z M188.61,192.836c-1.131,0.004-2.213-0.445-3.011-1.245l-23.581-23.665
	c-1.619-1.689-1.563-4.371,0.124-5.992c1.645-1.577,4.242-1.571,5.879,0.012l23.591,23.666c1.65,1.66,1.641,4.342-0.019,5.992
	C190.803,192.392,189.729,192.835,188.61,192.836z"/>
<path fill="none" stroke="#2C2C2C" stroke-miterlimit="10" d="M138.871,133.869l29.15,28.076c1.65,1.658,1.646,4.34-0.014,5.992
	c-0.793,0.79-1.867,1.235-2.987,1.235v-0.003c-1.128,0.001-2.208-0.448-3.002-1.248l-29.149-28.074"/>
</svg>
