<?xml version="1.0" encoding="utf-8"?>
<!-- Generator: Adobe Illustrator 16.0.0, SVG Export Plug-In . SVG Version: 6.00 Build 0)  -->
<!DOCTYPE svg PUBLIC "-//W3C//DTD SVG 1.1//EN" "http://www.w3.org/Graphics/SVG/1.1/DTD/svg11.dtd">
<svg version="1.1" id="图层_2" xmlns="http://www.w3.org/2000/svg" xmlns:xlink="http://www.w3.org/1999/xlink" x="0px" y="0px"
	 width="200px" height="200px" viewBox="0 0 200 200" enable-background="new 0 0 200 200" xml:space="preserve">
<path fill="#040000" d="M143.345,93.678c-4.188,0-7.6,3.388-7.6,7.6v12.571c0,4.188,3.411,7.6,7.6,7.6c4.19,0,7.601-3.411,7.601-7.6
	v-12.571C150.945,97.065,147.535,93.678,143.345,93.678z"/>
<path fill="none" stroke="#040000" stroke-miterlimit="10" d="M163.783,20.354L85.666,5.02c-1.314-0.267-2.652-0.401-3.989-0.401
	c-9.873,0-17.606,7.466-17.606,17.027v3.833l-21.374-3.387c-1.248-0.201-2.518-0.291-3.745-0.291
	c-10.029,0-17.606,6.419-17.606,14.933v128.194c0,8.515,7.577,14.911,17.606,14.911c1.227,0,2.474-0.089,3.745-0.29l21.396-3.411
	v3.833c0,9.54,7.733,17.028,17.606,17.028c1.337,0,2.674-0.133,3.967-0.379l78.139-15.355c8.157-1.604,14.331-9.315,14.331-17.919
	V38.272C178.09,29.669,171.939,21.958,163.783,20.354z M40.802,167.648c-4.167,0.646-7.466-1.092-7.466-2.741V36.69
	c0-1.65,3.32-3.411,7.444-2.742l23.268,3.7v126.301L40.802,167.648z M166.079,163.281c0,2.829-2.119,5.638-4.614,6.128
	l-78.138,15.356c-0.535,0.111-1.093,0.156-1.65,0.156c-3.298,0-5.594-2.052-5.594-4.993V21.624c0-3.432,3.298-5.616,7.244-4.836
	l78.161,15.356c2.496,0.512,4.612,3.321,4.612,6.129v125.009H166.079z"/>
</svg>
