<?xml version="1.0" encoding="utf-8"?>
<!-- Generator: Adobe Illustrator 16.0.0, SVG Export Plug-In . SVG Version: 6.00 Build 0)  -->
<!DOCTYPE svg PUBLIC "-//W3C//DTD SVG 1.1//EN" "http://www.w3.org/Graphics/SVG/1.1/DTD/svg11.dtd">
<svg version="1.1" id="图层_3" xmlns="http://www.w3.org/2000/svg" xmlns:xlink="http://www.w3.org/1999/xlink" x="0px" y="0px"
	 width="200px" height="200px" viewBox="0 0 200 200" enable-background="new 0 0 200 200" xml:space="preserve">
<path fill="#040000" d="M98.492,149.685c5.99-6.211,9.187-14.368,9.003-23.004c-0.184-8.599-3.785-16.609-10.069-22.563
	c-12.972-12.273-33.587-11.795-45.934,1.066c-5.99,6.211-9.187,14.404-9.003,23.003c0.184,8.6,3.786,16.61,10.069,22.563
	c6.063,5.732,14.038,8.894,22.416,8.894C83.977,159.644,92.318,156.078,98.492,149.685z M60.532,113.745
	c3.821-3.932,8.93-6.137,14.478-6.137c5.182,0,10.069,1.947,13.817,5.476c3.859,3.638,6.063,8.599,6.174,13.854
	c0.11,5.291-1.838,10.29-5.513,14.111c-7.606,7.9-20.321,8.195-28.295,0.662c-3.858-3.64-6.063-8.563-6.173-13.854
	C54.873,122.602,56.857,117.567,60.532,113.745z"/>
<path fill="none" stroke="#040000" stroke-miterlimit="10" d="M182.497,13.682c-3.933-3.748-10.106-8.048-17.052-7.092
	c-4.262,0.588-6.798,2.866-6.871,2.939l-9.922,8.93c-1.029,0.919-2.536,1.066-3.785,0.368c-6.32-3.638-14.295-2.536-19.365,2.719
	c-4.998,5.181-5.807,13.009-2.021,19.072c0.808,1.25,0.624,2.903-0.405,3.969l-18.558,19.256
	c-13.082-5.99-27.523-7.827-41.782-5.365c-14.919,2.573-28.369,9.702-38.879,20.616C10.85,92.579,3.904,110.328,4.345,129.032
	c0.441,18.705,8.194,36.159,21.865,49.058c7.497,7.093,16.279,12.348,26.164,15.618c0.625,0.22,1.286,0.331,1.984,0.331
	c1.323,0,2.573-0.405,3.638-1.213c1.654-1.213,2.572-3.087,2.499-5.108c-0.073-2.608-1.764-4.888-4.189-5.732
	c-8.048-2.719-15.287-7.055-21.461-12.898c-11.244-10.62-17.639-24.988-17.969-40.385c-0.367-15.397,5.365-29.987,16.095-41.121
	c8.231-8.525,18.741-14.294,30.354-16.646c11.354-2.278,23.041-1.213,33.734,3.124c0.147,0.037,0.257,0.11,0.404,0.184l5.035,2.866
	c2.462,1.396,5.549,0.956,7.532-1.065l28.296-29.361c1.14-1.212,1.764-2.756,1.728-4.446c-0.037-1.654-0.735-3.197-1.948-4.336
	l-3.454-3.27c-0.624-0.588-0.992-1.396-1.028-2.279c-0.037-0.882,0.293-1.69,0.918-2.315c1.25-1.323,3.344-1.36,4.667-0.11
	l3.528,3.308c2.462,2.315,6.356,2.242,8.709-0.184l9.848-10.216c0.074-0.073,0.147-0.184,0.258-0.257
	c0.33-0.368,2.059-2.242,4.85-2.425c2.464-0.184,5.108,0.955,7.865,3.381c2.977,2.609,4.52,5.255,4.556,7.9
	c0.075,3.234-2.241,5.549-2.277,5.585L125.317,90.19c-1.911,1.984-2.277,5.071-0.845,7.459l3.087,5.182
	c0.073,0.109,0.109,0.184,0.146,0.293c4.888,10.4,6.541,21.901,4.74,33.257c-1.837,11.649-7.129,22.307-15.36,30.83
	c-5.07,5.255-11.061,9.481-17.786,12.532c-2.278,1.029-3.674,3.308-3.638,5.769v0.074c0.037,2.095,1.139,4.005,2.902,5.108
	c1.765,1.102,3.933,1.248,5.807,0.402c8.194-3.71,15.508-8.855,21.754-15.323c10.105-10.473,16.574-23.554,18.741-37.85
	c2.132-13.964,0-28.038-6.1-40.716c-0.589-1.213-0.331-2.683,0.625-3.675l51.446-53.431l0.036-0.037
	c0.11-0.11,2.389-2.683,2.389-7.35C193.153,25.368,187.348,18.312,182.497,13.682L182.497,13.682z"/>
</svg>
