<?xml version="1.0" encoding="utf-8"?>
<!-- Generator: Adobe Illustrator 16.0.0, SVG Export Plug-In . SVG Version: 6.00 Build 0)  -->
<!DOCTYPE svg PUBLIC "-//W3C//DTD SVG 1.1//EN" "http://www.w3.org/Graphics/SVG/1.1/DTD/svg11.dtd">
<svg version="1.1" id="图层_3" xmlns="http://www.w3.org/2000/svg" xmlns:xlink="http://www.w3.org/1999/xlink" x="0px" y="0px"
	 width="200px" height="200px" viewBox="0 0 200 200" enable-background="new 0 0 200 200" xml:space="preserve">
<path fill="none" stroke="#040000" stroke-miterlimit="10" d="M100.357,194.137c-51.425,0-93.261-41.836-93.261-93.263
	c0-51.426,41.835-93.261,93.261-93.261c51.428,0,93.263,41.835,93.263,93.261C193.62,152.302,151.785,194.137,100.357,194.137
	L100.357,194.137z M100.357,20.997c-44.045,0-79.877,35.832-79.877,79.877c0,44.04,35.832,79.88,79.877,79.88
	c44.041,0,79.881-35.84,79.881-79.88C180.238,56.829,144.398,20.997,100.357,20.997L100.357,20.997z"/>
<path fill="#040000" d="M128.965,119.959H76.413V54.844c0-0.191,0.15-0.341,0.341-0.341h5.736v52.541c0,2.575,2.095,4.67,4.67,4.67
	c2.564,0,4.649-2.099,4.649-4.681v-52.54h29.933c0.194,0,0.341,0.147,0.341,0.341v52.19c0,2.563,2.086,4.648,4.649,4.648
	c2.575,0,4.671-2.085,4.671-4.648v-52.18c0-5.327-4.334-9.661-9.661-9.661H76.764c-5.327,0-9.661,4.334-9.661,9.661v70.47
	c0,0.624,0.119,1.222,0.352,1.773c0.244,0.589,0.588,1.104,1.016,1.52l25.313,25.302c1.692,1.716,3.983,2.658,6.449,2.658
	c2.451,0,4.744-0.942,6.455-2.654l25.317-25.316c0.51-0.51,0.876-1.158,1.12-1.981c0.327-0.677,0.487-1.327,0.487-1.984
	C133.613,122.054,131.528,119.959,128.965,119.959z M118.137,129.279l-17.913,17.923l-17.913-17.923H118.137z"/>
</svg>
