<?xml version="1.0" encoding="utf-8"?>
<!-- Generator: Adobe Illustrator 16.0.0, SVG Export Plug-In . SVG Version: 6.00 Build 0)  -->
<!DOCTYPE svg PUBLIC "-//W3C//DTD SVG 1.1//EN" "http://www.w3.org/Graphics/SVG/1.1/DTD/svg11.dtd">
<svg version="1.1" id="图层_1" xmlns="http://www.w3.org/2000/svg" xmlns:xlink="http://www.w3.org/1999/xlink" x="0px" y="0px"
	 width="32px" height="32px" viewBox="0 0 32 32" enable-background="new 0 0 32 32" xml:space="preserve">
<path id="XMLID_24_" fill="#FFFFFF" d="M75.875,27.432c-0.018-0.019-0.035-0.019-0.053-0.019h-0.089c-0.019,0-0.036,0-0.054,0.019
	c-0.018,0.018-0.018,0.035-0.018,0.053v0.818l-0.586-0.783c-0.019-0.035-0.036-0.053-0.072-0.07
	c-0.018-0.018-0.035-0.018-0.07-0.036h-0.125c-0.018,0-0.035,0-0.053,0.019c-0.018,0.018-0.018,0.018-0.018,0.035v0.978
	c0,0.019,0,0.036,0.018,0.054s0.035,0.018,0.053,0.018h0.09c0.018,0,0.035,0,0.053-0.018s0.018-0.035,0.018-0.054v-0.853
	l0.587,0.799c0.018,0.018,0.036,0.036,0.054,0.054c0.018,0.019,0.018,0.019,0.035,0.036s0.053,0.018,0.07,0.018h0.107
	c0.018,0,0.035,0,0.053-0.018c0.019-0.018,0.019-0.036,0.019-0.054v-0.978C75.894,27.467,75.894,27.449,75.875,27.432"/>
<g>
	<g>
		<g>
			<path id="XMLID_4_" d="M3.982,27.467H3.894c-0.036,0-0.107,0.018-0.125,0.053c-0.107,0.09-0.267,0.16-0.356,0.178
				c-0.018,0-0.018,0.018,0,0.018l0,0c0,0,0.018,0.019,0.018,0c0.071,0,0.195-0.035,0.284-0.053c0.018,0,0.018,0,0.018,0.018v0.676
				v0.035c0,0.09,0.142,0.178,0.231,0.178h0.018c0.018,0,0.035-0.018,0.035-0.035v-1.049C4.018,27.484,4,27.467,3.982,27.467"/>
			<path id="XMLID_37_" d="M7.235,27.52c-0.018-0.018-0.035-0.018-0.053-0.018H7.093c-0.018,0-0.036,0-0.053,0.018
				s-0.018,0.036-0.018,0.036v0.711c0,0.036,0,0.071-0.018,0.124c-0.018,0.036-0.018,0.054-0.053,0.09
				c-0.036,0.035-0.089,0.053-0.16,0.053c-0.018,0-0.053,0-0.071-0.018c-0.036-0.018-0.054-0.035-0.071-0.053
				c-0.018-0.019-0.036-0.055-0.053-0.072c-0.018-0.035-0.018-0.053-0.018-0.088c0-0.018,0-0.036-0.018-0.054L6.542,28.23
				c-0.018,0-0.018-0.018-0.035-0.018c-0.018,0-0.036,0-0.054,0c-0.018,0-0.035,0-0.053,0.018c-0.018,0-0.018,0.019-0.018,0.019
				c0,0.018-0.018,0.018-0.018,0.036c0,0.018,0,0.035,0,0.053c0,0.035,0.018,0.07,0.036,0.125c0.018,0.035,0.053,0.07,0.107,0.105
				c0.035,0.036,0.089,0.054,0.142,0.054c0.053,0.019,0.106,0.019,0.178,0.019c0.053,0,0.125,0,0.178-0.019
				c0.053-0.018,0.107-0.035,0.16-0.071c0.053-0.035,0.071-0.088,0.106-0.124c0.018-0.054,0.018-0.106,0.018-0.142v-0.729
				C7.253,27.537,7.253,27.537,7.235,27.52"/>
			<path id="XMLID_36_" d="M8.907,27.52c-0.018-0.018-0.036-0.018-0.053-0.018H8.765c-0.018,0-0.036,0-0.054,0.018
				c-0.018,0.018-0.018,0.036-0.018,0.054v0.995c0,0.019,0,0.036,0.018,0.054c0.018,0.019,0.036,0.019,0.054,0.019h0.089
				c0.018,0,0.035,0,0.053-0.019c0.018-0.018,0.018-0.035,0.018-0.054v-0.995C8.924,27.556,8.924,27.537,8.907,27.52"/>
			<path id="XMLID_33_" d="M10.898,27.592c-0.018-0.036-0.036-0.055-0.071-0.072c-0.018-0.018-0.053-0.018-0.089-0.018h-0.089
				c-0.036,0-0.071,0-0.089,0.018c-0.018,0.018-0.036,0.036-0.053,0.072l-0.445,0.941c0,0.018,0,0.018,0,0.035v0.019
				c0.018,0.018,0.036,0.018,0.054,0.018h0.106c0.036,0,0.071-0.018,0.089-0.054l0.107-0.23h0.586l0.107,0.23
				c0.018,0.036,0.053,0.054,0.089,0.054h0.106c0.018,0,0.036,0,0.053-0.018v-0.019c0-0.018,0-0.018,0-0.035L10.898,27.592z
				 M10.453,28.249l0.249-0.569l0.249,0.569H10.453z"/>
			<path id="XMLID_32_" d="M13.742,27.52c-0.018-0.018-0.036-0.018-0.053-0.018H13.6c-0.018,0-0.036,0-0.053,0.018
				c-0.018,0.018-0.018,0.036-0.018,0.054v0.835l-0.586-0.781c-0.018-0.035-0.036-0.054-0.071-0.071
				c-0.018-0.019-0.036-0.019-0.071-0.036h-0.124c-0.018,0-0.036,0-0.054,0.018c-0.018,0.019-0.018,0.019-0.018,0.036v0.995
				c0,0.019,0,0.036,0.018,0.054c0.018,0.019,0.036,0.019,0.054,0.019h0.089c0.018,0,0.035,0,0.053-0.019
				c0.018-0.018,0.018-0.035,0.018-0.054v-0.853l0.587,0.8c0.018,0.018,0.036,0.035,0.053,0.053
				c0.018,0.019,0.018,0.019,0.036,0.036c0.018,0.018,0.053,0.018,0.071,0.018h0.107c0.018,0,0.036,0,0.053-0.018
				s0.018-0.036,0.018-0.054v-0.995C13.76,27.556,13.76,27.537,13.742,27.52"/>
			<path id="XMLID_6_" d="M28.623,27.52c-0.018-0.018-0.035-0.018-0.053-0.018h-0.089c-0.019,0-0.036,0-0.054,0.018
				s-0.018,0.036-0.018,0.054v0.835l-0.586-0.781c-0.019-0.035-0.036-0.054-0.072-0.071c-0.018-0.019-0.035-0.019-0.07-0.036h-0.125
				c-0.018,0-0.035,0-0.053,0.018c-0.018,0.019-0.018,0.019-0.018,0.036v0.995c0,0.019,0,0.036,0.018,0.054
				c0.018,0.019,0.035,0.019,0.053,0.019h0.09c0.018,0,0.035,0,0.053-0.019c0.018-0.018,0.018-0.035,0.018-0.054v-0.853l0.587,0.8
				c0.018,0.018,0.036,0.035,0.054,0.053c0.018,0.019,0.018,0.019,0.035,0.036s0.053,0.018,0.07,0.018h0.107
				c0.018,0,0.035,0,0.053-0.018s0.018-0.036,0.018-0.054v-0.995C28.641,27.556,28.641,27.537,28.623,27.52"/>
			<path id="XMLID_29_" d="M17.831,27.751c-0.018-0.036-0.036-0.054-0.071-0.089c-0.053-0.053-0.124-0.089-0.213-0.125
				c-0.054-0.018-0.089-0.018-0.143-0.035c-0.053,0-0.106-0.018-0.16-0.018h-0.391c-0.035,0-0.071,0-0.089,0.018
				c-0.019,0.018-0.036,0.035-0.019,0.071v0.942c0,0.018,0,0.053,0.036,0.071c0.018,0.018,0.054,0.018,0.089,0.018h0.373
				c0.09,0,0.16-0.018,0.249-0.018c0.036-0.019,0.089-0.036,0.124-0.054c0.036-0.018,0.072-0.035,0.107-0.07
				c0.053-0.055,0.106-0.107,0.124-0.178c0.036-0.072,0.054-0.16,0.036-0.25c0-0.07-0.018-0.124-0.018-0.195
				C17.867,27.822,17.849,27.787,17.831,27.751 M17.636,28.249c-0.019,0.054-0.036,0.106-0.071,0.159
				c-0.035,0.036-0.089,0.072-0.143,0.09c-0.053,0.018-0.106,0.018-0.16,0.018h-0.248v-0.942h0.23c0.054,0,0.125,0,0.178,0.019
				c0.071,0.018,0.125,0.053,0.16,0.088c0.035,0.054,0.071,0.09,0.089,0.143c0.019,0.071,0.019,0.143,0.019,0.195
				C17.653,28.125,17.653,28.195,17.636,28.249"/>
			<path id="XMLID_28_" d="M20.143,28.533h-0.729v-0.427h0.658c0.018,0,0.018,0,0.035-0.018c0-0.018,0.019-0.018,0.019-0.036
				c0-0.018,0-0.018-0.019-0.035c0,0-0.018-0.018-0.035-0.018h-0.658v-0.408h0.712c0.018,0,0.018,0,0.035-0.019
				c0-0.018,0.018-0.018,0.018-0.036c0-0.018,0-0.018-0.018-0.035c0,0-0.018-0.018-0.035-0.018h-0.836c-0.035,0-0.054,0-0.089,0.018
				c-0.019,0.018-0.036,0.035-0.036,0.071v0.942c0,0.018,0,0.035,0,0.035c0,0.018,0.018,0.018,0.018,0.036
				c0.019,0.018,0.054,0.018,0.09,0.018h0.871c0.018,0,0.018,0,0.035-0.018c0-0.019,0.018-0.019,0.018-0.036s0-0.018-0.018-0.035
				C20.16,28.533,20.143,28.533,20.143,28.533"/>
			<path id="XMLID_27_" d="M22.169,28.089c-0.054-0.036-0.106-0.054-0.16-0.071c-0.071-0.018-0.142-0.035-0.214-0.053
				c-0.159-0.018-0.266-0.071-0.319-0.16c0-0.018,0-0.054,0.018-0.071c0.019-0.019,0.036-0.054,0.054-0.071s0.053-0.035,0.089-0.035
				c0.035,0,0.071-0.018,0.106-0.018c0.053,0,0.106,0.018,0.16,0.035c0.018,0.018,0.053,0.035,0.053,0.053
				c0.018,0.036,0.036,0.072,0.054,0.107c0,0.018,0.019,0.035,0.019,0.035l0.018,0.018c0.018,0,0.018,0.018,0.035,0.018
				s0.035,0,0.053,0c0.019,0,0.036,0,0.054,0c0.019,0,0.036,0,0.036-0.018c0.018-0.018,0.018-0.035,0.018-0.053
				c0-0.035-0.018-0.089-0.035-0.125c-0.019-0.035-0.054-0.053-0.09-0.088c-0.053-0.036-0.088-0.055-0.16-0.072
				c-0.07-0.018-0.142-0.018-0.213-0.018s-0.143,0-0.213,0.018c-0.054,0.018-0.125,0.036-0.16,0.072
				c-0.09,0.053-0.125,0.124-0.125,0.213c0,0.07,0.035,0.124,0.09,0.178c0.035,0.035,0.088,0.053,0.142,0.07
				c0.071,0.019,0.142,0.036,0.214,0.054c0.053,0.019,0.124,0.036,0.178,0.054c0.035,0.018,0.07,0.035,0.105,0.053
				c0.036,0.036,0.072,0.072,0.072,0.107c0,0.053-0.018,0.106-0.072,0.143c-0.035,0.018-0.053,0.035-0.105,0.053
				c-0.036,0.018-0.09,0.018-0.125,0.018s-0.071,0-0.106-0.018c-0.036-0.018-0.071-0.035-0.106-0.053
				c-0.018-0.036-0.054-0.055-0.054-0.09c-0.018-0.035-0.018-0.07-0.018-0.088c0-0.019,0-0.036-0.019-0.036l-0.018-0.019
				c-0.018,0-0.035,0-0.035,0c-0.018,0-0.035,0-0.071,0c-0.018,0-0.036,0-0.054,0s-0.035,0-0.035,0.019
				c-0.018,0-0.018,0.018-0.018,0.018c0,0.019,0,0.019,0,0.036c0,0.053,0.018,0.088,0.053,0.142
				c0.036,0.054,0.072,0.089,0.125,0.124c0.053,0.036,0.106,0.054,0.178,0.072c0.071,0.018,0.125,0.018,0.195,0.018
				c0.071,0,0.125,0,0.178-0.018c0.071-0.019,0.125-0.036,0.195-0.072c0.054-0.035,0.09-0.07,0.125-0.105
				c0.035-0.036,0.035-0.09,0.035-0.143c0-0.035-0.018-0.071-0.035-0.107C22.24,28.143,22.205,28.106,22.169,28.089"/>
			<path id="XMLID_26_" d="M23.84,27.52c-0.018-0.018-0.035-0.018-0.053-0.018h-0.09c-0.018,0-0.035,0-0.053,0.018
				s-0.018,0.036-0.018,0.054v0.995c0,0.019,0,0.036,0.018,0.054c0.018,0.019,0.035,0.019,0.053,0.019h0.09
				c0.018,0,0.035,0,0.053-0.019c0.018-0.018,0.018-0.035,0.018-0.054v-0.995C23.875,27.556,23.857,27.537,23.84,27.52"/>
			<path id="XMLID_25_" d="M26.4,28.071h-0.018c-0.019,0-0.019,0-0.036,0h-0.462c-0.018,0-0.018,0-0.035,0h-0.019
				c0,0.018-0.018,0.018-0.018,0.035v0.019c0,0,0,0.018,0.018,0.018c0.019,0,0.036,0,0.054,0h0.302v0.266
				c-0.054,0.036-0.089,0.055-0.159,0.072c-0.072,0.018-0.125,0.035-0.196,0.035c-0.054,0-0.106,0-0.16-0.018
				c-0.071-0.018-0.124-0.054-0.159-0.107c-0.054-0.053-0.072-0.105-0.107-0.16c-0.018-0.07-0.035-0.124-0.035-0.195
				c0-0.07,0.018-0.124,0.035-0.195c0.018-0.053,0.054-0.106,0.089-0.16c0.036-0.035,0.089-0.07,0.16-0.106
				c0.054-0.018,0.106-0.018,0.178-0.018c0.036,0,0.071,0,0.106,0.018c0.035,0.019,0.071,0.019,0.107,0.054
				c0.018,0.018,0.035,0.035,0.053,0.053c0.035,0.035,0.053,0.071,0.071,0.125c0.018,0.018,0.018,0.035,0.054,0.035
				c0.035,0,0.07,0,0.088,0c0.036,0,0.054-0.018,0.072-0.035C26.4,27.787,26.4,27.77,26.4,27.751
				c-0.018-0.036-0.036-0.071-0.054-0.106c-0.036-0.035-0.071-0.071-0.124-0.089c-0.054-0.019-0.125-0.036-0.178-0.054
				c-0.054,0-0.107-0.018-0.178-0.018c-0.09,0-0.16,0.018-0.25,0.018c-0.088,0.018-0.178,0.054-0.248,0.107
				c-0.071,0.053-0.125,0.105-0.16,0.178c-0.018,0.035-0.035,0.07-0.035,0.106c0,0.035-0.018,0.089-0.018,0.124
				c0,0.071,0.018,0.125,0.035,0.195c0.035,0.072,0.07,0.143,0.143,0.195c0.07,0.055,0.142,0.107,0.23,0.125
				c0.089,0.035,0.195,0.054,0.285,0.054c0.088,0,0.195-0.019,0.283-0.036c0.09-0.018,0.16-0.053,0.25-0.088
				c0.018-0.019,0.035-0.019,0.053-0.036c0.018-0.019,0.018-0.036,0.018-0.054v-0.267C26.418,28.106,26.418,28.106,26.4,28.071
				C26.418,28.089,26.4,28.089,26.4,28.071"/>
		</g>
		<g>
			<path id="XMLID_20_" d="M13.013,26.098c0,0.035,0.018,0.071,0.054,0.107c0.035,0.035,0.089,0.053,0.124,0.053h0.32
				c0.053,0,0.089-0.018,0.125-0.053c0.035-0.036,0.053-0.072,0.053-0.107v-1.653c0-0.036-0.018-0.071-0.053-0.106
				c-0.036-0.035-0.089-0.053-0.125-0.053h-0.302c-0.053,0-0.089,0.018-0.125,0.035c-0.036,0.035-0.053,0.053-0.071,0.088h-0.907
				c0-0.035-0.035-0.07-0.071-0.088s-0.071-0.035-0.125-0.035h-0.267c-0.053,0-0.089,0.018-0.125,0.053s-0.053,0.07-0.053,0.106
				v1.688c0,0.036,0.018,0.072,0.053,0.107s0.089,0.053,0.125,0.053h0.267c0.053,0,0.089-0.018,0.125-0.053s0.053-0.071,0.053-0.107
				V26.08h0.907v0.018H13.013z M12.106,24.641h0.907v0.479h-0.907V24.641z M12.106,25.352h0.907v0.497h-0.907V25.352z"/>
			<path id="XMLID_19_" d="M10.24,24.053c-0.036,0.036-0.054,0.072-0.054,0.107v2.436c0,0.035,0.018,0.07,0.054,0.106
				c0.035,0.036,0.089,0.054,0.124,0.054h0.356c0.053,0,0.089-0.018,0.124-0.054c0.036-0.036,0.054-0.071,0.054-0.106V24.16
				c0-0.035-0.018-0.071-0.054-0.107C10.809,24.018,10.755,24,10.72,24h-0.356C10.311,24,10.275,24.018,10.24,24.053"/>
			<path id="XMLID_18_" d="M10.933,22.951h0.249c0.053,0.071,0.125,0.143,0.178,0.23c0.071,0.09,0.125,0.178,0.178,0.268
				c0.036,0.07,0.089,0.106,0.16,0.088c0.071,0,0.125-0.018,0.196-0.07c0.035-0.018,0.071-0.054,0.089-0.089
				c0.035-0.036,0.053-0.071,0.053-0.089c0.018-0.035,0.018-0.071,0.018-0.125c-0.018-0.035-0.053-0.07-0.142-0.124
				c-0.036-0.018-0.089-0.036-0.125-0.054c-0.053-0.018-0.106-0.035-0.178-0.07h0.106h0.249h0.249c0.142,0,0.355-0.143,0.444-0.214
				c0,0,0,0,0-0.018c0-0.019-0.036-0.054-0.053-0.036c-0.107,0.036-0.267,0.036-0.391,0.036h-0.587l0,0h-0.462l0.142-0.16
				c0.018-0.036,0.036-0.071,0.018-0.106c-0.018-0.035-0.053-0.071-0.089-0.071l-0.373-0.089c-0.053-0.018-0.107,0-0.16,0.018
				s-0.089,0.054-0.089,0.089c-0.089,0.214-0.213,0.409-0.355,0.587c-0.142,0.195-0.302,0.373-0.498,0.568
				c-0.018,0.018-0.018,0.036-0.018,0.054c0,0.019,0.018,0.036,0.036,0.054c0.018,0.018,0.036,0.035,0.053,0.035
				s0.036,0.018,0.053,0c0.213-0.106,0.427-0.213,0.604-0.338C10.596,23.254,10.773,23.111,10.933,22.951"/>
			<path id="XMLID_17_" d="M11.68,24.035c0.035-0.035,0.053-0.07,0.053-0.088c0.018-0.054,0.036-0.107,0.036-0.143
				s-0.054-0.071-0.125-0.125c-0.036-0.018-0.071-0.035-0.142-0.07c-0.054-0.018-0.125-0.054-0.178-0.072
				c-0.071-0.018-0.142-0.035-0.213-0.053c-0.071-0.018-0.143-0.035-0.196-0.053c-0.018,0-0.036,0-0.053,0
				c-0.018,0-0.036,0.018-0.053,0.035c-0.018,0.018-0.018,0.035-0.018,0.053s0,0.036,0.018,0.054
				c0.053,0.054,0.089,0.106,0.124,0.142c0.036,0.036,0.071,0.072,0.089,0.125c0.035,0.035,0.053,0.089,0.071,0.125
				c0.018,0.035,0.053,0.088,0.089,0.142c0.053,0.071,0.107,0.124,0.196,0.124s0.16-0.018,0.213-0.07
				C11.626,24.125,11.662,24.089,11.68,24.035"/>
			<path id="XMLID_16_" d="M14.951,23.627c-0.036-0.035-0.089-0.054-0.125-0.054h-0.374c-0.035,0-0.071,0.019-0.106,0.036
				s-0.053,0.053-0.071,0.07h-2.169c-0.035,0-0.053,0.018-0.071,0.035C12.018,23.733,12,23.751,12,23.77v0.07
				c0,0.018,0.018,0.035,0.036,0.054c0.018,0.018,0.053,0.018,0.071,0.018h2.151v1.991c0,0.07-0.018,0.125-0.053,0.178
				s-0.107,0.071-0.213,0.089l-0.213,0.036c-0.036,0-0.071,0.018-0.089,0.035c-0.018,0.018-0.018,0.053,0,0.089
				c0.018,0.054,0.053,0.106,0.089,0.159c0.036,0.054,0.071,0.107,0.089,0.16c0.036,0.054,0.071,0.072,0.106,0.09
				c0.036,0.018,0.089,0.018,0.16,0.018c0.089,0,0.178,0,0.231-0.018c0.054,0,0.125-0.018,0.196-0.036
				c0.125-0.036,0.231-0.089,0.32-0.178s0.125-0.231,0.125-0.444v-2.347C15.004,23.697,14.987,23.662,14.951,23.627"/>
			<path id="XMLID_15_" d="M8.285,24.089c-0.16,0.071-0.445,0.071-0.64,0.071H3.431c-0.053,0-0.089,0.035-0.089,0.089v0.036
				c0,0.142,0.106,0.248,0.249,0.248h4.053c0.231,0,0.586-0.23,0.711-0.355V24.16C8.374,24.106,8.32,24.071,8.285,24.089"/>
			<path id="XMLID_14_" d="M15.307,22.685c-0.106,0.036-0.267,0.036-0.391,0.036h-0.48l0,0h-0.8l0.142-0.179
				c0.018-0.035,0.018-0.071,0-0.106c-0.018-0.035-0.053-0.053-0.107-0.071l-0.373-0.071c-0.053-0.018-0.107,0-0.142,0.018
				c-0.054,0.019-0.071,0.054-0.089,0.09c-0.036,0.07-0.071,0.16-0.107,0.23c-0.036,0.071-0.089,0.16-0.142,0.249
				s-0.125,0.178-0.196,0.267c-0.071,0.089-0.16,0.195-0.249,0.303c-0.018,0.018-0.018,0.018,0,0.053
				c0,0.018,0.018,0.035,0.035,0.054c0.018,0.018,0.036,0.036,0.054,0.036c0.018,0,0.053,0,0.071,0
				c0.178-0.09,0.338-0.179,0.48-0.285c0.143-0.106,0.285-0.213,0.427-0.355h0.249c0.053,0.071,0.125,0.143,0.178,0.249
				c0.071,0.106,0.125,0.195,0.178,0.284c0.036,0.053,0.071,0.089,0.142,0.071c0.071,0,0.125-0.019,0.178-0.054
				c0.036-0.035,0.071-0.053,0.089-0.089c0.036-0.035,0.054-0.071,0.054-0.089c0.018-0.035,0.035-0.089,0.018-0.124
				c0-0.036-0.053-0.089-0.142-0.124c-0.036-0.019-0.089-0.036-0.125-0.054c-0.053-0.019-0.106-0.036-0.178-0.071h0.427h0.284h0.107
				c0.142,0,0.355-0.143,0.444-0.213c0,0,0,0,0-0.018C15.36,22.702,15.342,22.685,15.307,22.685"/>
			<path id="XMLID_13_" d="M24.143,22.471c-0.09-0.035-0.16-0.07-0.249-0.088c-0.089-0.036-0.179-0.054-0.249-0.072
				c-0.018,0-0.035,0-0.071,0c-0.018,0-0.036,0.019-0.071,0.036c-0.018,0.018-0.035,0.036-0.035,0.054s0,0.035,0.018,0.053
				c0.107,0.143,0.195,0.268,0.267,0.373c0.071,0.107,0.124,0.231,0.196,0.355c0.018,0.054,0.053,0.09,0.088,0.107
				c0.036,0.018,0.071,0.035,0.125,0.035c0.035,0,0.089,0,0.125-0.018c0.035-0.018,0.088-0.035,0.123-0.071
				c0.055-0.035,0.09-0.071,0.125-0.124c0.035-0.054,0.054-0.089,0.071-0.107c0.036-0.07,0.036-0.124,0.036-0.178
				c-0.019-0.053-0.054-0.105-0.125-0.16c-0.035-0.035-0.089-0.053-0.16-0.088C24.303,22.542,24.23,22.507,24.143,22.471"/>
			<path id="XMLID_12_" d="M25.387,25.298c0.018-0.019,0.018-0.036,0.018-0.054s-0.018-0.035-0.035-0.053s-0.054-0.018-0.071-0.035
				c-0.036,0-0.054-0.019-0.054,0l-0.817,0.408v-1.76c0-0.035-0.019-0.071-0.054-0.107c-0.035-0.035-0.088-0.053-0.124-0.053h-0.427
				c-0.053,0-0.089,0.018-0.125,0.053c-0.035,0.036-0.053,0.072-0.053,0.107v0.07h-0.48c-0.035,0-0.07,0.019-0.088,0.036
				c-0.019,0.018-0.036,0.036-0.036,0.071v0.07c0,0.036,0.018,0.054,0.036,0.072c0.018,0.018,0.053,0.035,0.088,0.035h0.48v1.813
				l-0.143,0.072c-0.07,0.035-0.106,0.053-0.124,0.106c-0.019,0.035,0,0.089,0.035,0.142c0.019,0.054,0.071,0.107,0.124,0.178
				c0.055,0.071,0.09,0.107,0.107,0.125c0.053,0.053,0.106,0.07,0.16,0.07c0.053,0,0.124-0.035,0.178-0.088
				c0.106-0.071,0.213-0.16,0.338-0.268c0.124-0.105,0.248-0.213,0.373-0.319s0.249-0.231,0.373-0.338
				C25.191,25.493,25.298,25.387,25.387,25.298"/>
			<path id="XMLID_11_" d="M28,24.16c0.213,0,0.533-0.213,0.641-0.32v-0.018c0-0.035-0.036-0.071-0.072-0.053
				c-0.142,0.053-0.391,0.053-0.568,0.053h-0.836v-1.387c0-0.035-0.018-0.071-0.053-0.106c-0.035-0.036-0.089-0.054-0.125-0.054
				h-0.462c-0.054,0-0.089,0.018-0.124,0.054c-0.036,0.035-0.054,0.071-0.054,0.106v1.387h-1.19c-0.036,0-0.072,0.035-0.072,0.071
				v0.035c0,0.124,0.09,0.214,0.214,0.214h1.031l0,0v2.453c0,0.035,0.018,0.07,0.054,0.106c0.035,0.036,0.088,0.054,0.124,0.054
				h0.462c0.054,0,0.089-0.018,0.125-0.054c0.035-0.036,0.053-0.071,0.053-0.106v-2.453l0,0H28V24.16z"/>
			<path id="XMLID_10_" d="M18.596,23.467c-0.054,0.089-0.143,0.178-0.249,0.267s-0.249,0.195-0.409,0.302
				c-0.018,0.018-0.035,0.036-0.018,0.054c0,0.018,0.018,0.036,0.035,0.054s0.036,0.035,0.054,0.035
				c0.019,0.018,0.036,0.018,0.054,0.018c0.302-0.089,0.551-0.178,0.729-0.267s0.32-0.195,0.427-0.302
				c0.106-0.107,0.178-0.231,0.214-0.373c0.035-0.143,0.053-0.285,0.053-0.463l0,0h0.746v0.48c0,0.124,0.019,0.213,0.036,0.284
				c0.019,0.071,0.054,0.142,0.089,0.178c0.035,0.054,0.107,0.071,0.178,0.106c0.071,0.018,0.16,0.035,0.267,0.035
				c0.036,0,0.071,0,0.143,0s0.142,0,0.214,0c0.07,0,0.142,0,0.213,0c0.07,0,0.124,0,0.16,0c0.088,0,0.142-0.018,0.178-0.018
				c0.035-0.018,0.07-0.035,0.106-0.088c0.018-0.036,0.054-0.09,0.071-0.143c0.035-0.054,0.053-0.09,0.053-0.125
				c0.018-0.035,0.018-0.07,0-0.106c-0.018-0.018-0.07-0.036-0.143-0.036h-0.586c-0.053,0-0.107,0-0.143-0.018
				c-0.035,0-0.07-0.018-0.089-0.018c-0.018-0.018-0.035-0.035-0.035-0.07c0-0.036-0.019-0.072-0.019-0.125v-0.551
				c0-0.054-0.018-0.107-0.053-0.125c-0.035-0.035-0.106-0.035-0.195-0.035h-0.231c-0.071,0-0.124,0.018-0.159,0.035
				c-0.036,0.035-0.055,0.054-0.055,0.089h-0.746l0,0c0-0.035-0.035-0.071-0.071-0.089c-0.035-0.018-0.089-0.035-0.124-0.035h-0.338
				c-0.053,0-0.089,0.018-0.125,0.053c-0.035,0.036-0.053,0.071-0.053,0.107c0,0.018,0,0.053,0,0.106c0,0.036,0,0.106,0,0.195
				c0,0.124-0.018,0.231-0.035,0.32C18.685,23.289,18.648,23.378,18.596,23.467"/>
			<path id="XMLID_9_" d="M16.818,25.867c-0.072,0.035-0.107,0.053-0.107,0.105c-0.018,0.036,0,0.09,0.035,0.143
				c0.019,0.036,0.036,0.054,0.054,0.09c0.019,0.035,0.036,0.053,0.071,0.088c0.018,0.036,0.035,0.054,0.071,0.071
				c0.018,0.019,0.035,0.036,0.035,0.054c0.089,0.089,0.214,0.089,0.338-0.018c0.196-0.143,0.374-0.303,0.552-0.48
				s0.355-0.355,0.551-0.551c0.018-0.018,0.018-0.035,0.018-0.054c0-0.018-0.018-0.036-0.035-0.054s-0.036-0.035-0.071-0.035
				c-0.019,0-0.036-0.018-0.054,0l-0.622,0.285v-1.814c0-0.035-0.018-0.07-0.054-0.105c-0.035-0.036-0.088-0.055-0.124-0.055H17.12
				c-0.054,0-0.089,0.019-0.124,0.055c-0.036,0.035-0.054,0.07-0.054,0.105v0.072h-0.445c-0.035,0-0.053,0.018-0.089,0.035
				c-0.018,0.018-0.035,0.035-0.035,0.07v0.072c0,0.018,0.018,0.053,0.035,0.07c0.018,0.018,0.054,0.035,0.089,0.035h0.445v1.814
				H16.818z"/>
			<path id="XMLID_8_" d="M17.031,22.809c0.035,0.054,0.07,0.107,0.089,0.16c0.036,0.054,0.054,0.107,0.089,0.178
				c0.053,0.089,0.106,0.143,0.195,0.143s0.178-0.035,0.249-0.089c0.054-0.036,0.089-0.071,0.124-0.124
				c0.036-0.054,0.054-0.09,0.071-0.107c0.036-0.07,0.036-0.125,0.036-0.178c-0.018-0.053-0.054-0.106-0.125-0.16
				c-0.035-0.018-0.089-0.053-0.143-0.089c-0.07-0.035-0.142-0.071-0.213-0.106c-0.07-0.035-0.16-0.071-0.248-0.089
				c-0.09-0.036-0.16-0.054-0.232-0.071c-0.018,0-0.035,0-0.07,0s-0.035,0.018-0.054,0.035c-0.018,0.019-0.035,0.036-0.035,0.054
				c0,0.019,0,0.036,0.018,0.054c0.054,0.07,0.106,0.124,0.142,0.195C16.96,22.702,16.996,22.756,17.031,22.809"/>
			<path id="XMLID_5_" d="M21.315,26.561c0.284-0.036,0.604-0.712,0.657-0.783c0.019-0.035,0.019-0.07-0.018-0.106
				c-0.018-0.018-0.035-0.018-0.053,0c-0.089,0.071-0.355,0.267-0.551,0.231c-0.09-0.018-0.16-0.035-0.285-0.054
				c-0.248-0.054-0.479-0.124-0.693-0.213c0.195-0.16,0.373-0.338,0.516-0.552c0.16-0.195,0.303-0.426,0.427-0.676
				c0.019-0.035,0.019-0.07-0.018-0.105c-0.036-0.036-0.071-0.054-0.106-0.072l-0.427-0.105c-0.054-0.019-0.089,0-0.143,0.018
				s-0.089,0.053-0.106,0.088l-0.018,0.036H18.4c-0.036,0-0.054,0.019-0.09,0.036c-0.018,0.018-0.035,0.035-0.035,0.053v0.071
				c0,0.018,0.018,0.036,0.035,0.054c0.019,0.018,0.054,0.018,0.09,0.018h0.338c0.124,0.462,0.338,0.836,0.64,1.138
				c-0.249,0.178-0.516,0.355-0.817,0.497c-0.303,0.143-0.641,0.303-0.996,0.445c-0.018,0-0.035,0.018-0.035,0.035
				s0,0.035,0.018,0.053c0.018,0.019,0.018,0.036,0.035,0.055c0.018,0.018,0.035,0.018,0.054,0.018
				c0.444-0.09,0.853-0.196,1.208-0.32c0.356-0.125,0.676-0.267,0.961-0.427c0.195,0.142,0.64,0.392,1.014,0.479
				C20.906,26.507,21.191,26.578,21.315,26.561 M19.77,25.315c-0.16-0.106-0.303-0.231-0.445-0.355s-0.267-0.284-0.391-0.462h1.457
				c-0.088,0.16-0.178,0.302-0.284,0.444C20.018,25.066,19.894,25.209,19.77,25.315"/>
		</g>
	</g>
	<g>
		<path id="XMLID_3_" d="M23.413,15.822L23.413,15.822c0.587-1.102,0.942-2.329,1.014-3.645c0-0.018,0-0.036,0-0.036
			c0-0.018,0-0.053,0-0.071c0-0.018,0-0.054,0-0.071s0-0.036,0-0.053c0-0.053,0-0.089,0-0.142v-0.018c0-2.329-0.925-4.48-2.613-6.08
			C20.23,4.195,18.187,3.378,16,3.378h-0.018l0,0c-4.658,0-8.427,3.769-8.427,8.427c0,2.187,0.818,4.231,2.329,5.831
			c1.6,1.688,3.769,2.613,6.098,2.613c0.071,0,0.142,0,0.213,0c0.018,0,0.018,0,0.036,0c0.054,0,0.107,0,0.16,0
			c0.036,0,0.053,0,0.089,0s0.053,0,0.088,0c0.054,0,0.09,0,0.143-0.019c0.018,0,0.018,0,0.035,0
			c0.231-0.018,0.48-0.053,0.712-0.088c1.884-0.569,3.218-1.44,3.218-3.627V7.36c0-0.125-0.107-0.231-0.231-0.231h-0.942
			c-0.124,0-0.23,0.106-0.23,0.231v9.138c0,0.889-0.428,2.329-2.774,2.649c-0.267,0.018-0.462,0.035-0.675,0.035
			c-2.116,0-3.805-0.799-5.245-2.363c-1.458-1.565-2.169-3.449-2.009-5.583c0.285-3.715,3.129-6.809,6.844-7.093
			c2.151-0.16,4.356,0.623,5.921,2.08c1.546,1.44,2.436,3.484,2.436,5.583c0,1.475-0.569,3.36-1.139,4.498
			c-0.07,0.125-0.089,0.266-0.089,0.409v0.125c0,0.088,0.106,0.124,0.16,0.053c0.054-0.07,0.106-0.143,0.142-0.195
			c0.072-0.106,0.179-0.231,0.285-0.427C23.254,16.125,23.324,15.982,23.413,15.822"/>
		<path id="XMLID_2_" d="M18.453,16.036c0.125,0,0.231-0.107,0.231-0.231V7.36c0-0.125-0.106-0.231-0.231-0.231h-0.746
			c-0.32,0-0.783,0.16-1.031,0.355c-0.8,0.658-2.116,1.245-2.809,1.458c-0.089,0.018-0.107,0.125-0.053,0.195l0.018,0.018
			c0.053,0.053,0.125,0.071,0.196,0.071c0.498-0.053,1.546-0.231,2.24-0.444c0.107-0.036,0.196,0.036,0.196,0.142v5.227
			c0,1.031,0.835,1.866,1.867,1.866L18.453,16.036z"/>
	</g>
</g>
<rect id="XMLID_1_" display="none" fill="#E60012" width="3.378" height="3.378"/>
<rect id="XMLID_41_" x="28.622" y="28.622" display="none" fill="#E60012" width="3.378" height="3.378"/>
<rect x="-28.14" y="28.658" fill="#A51717" width="1.279" height="0.813"/>
</svg>
