<?xml version="1.0" standalone="no"?>
<!DOCTYPE svg PUBLIC "-//W3C//DTD SVG 1.1//EN" "http://www.w3.org/Graphics/SVG/1.1/DTD/svg11.dtd" >
<svg>
<metadata>
Created by FontForge 20120731 at Thu Jan 11 11:11:30 2018
 By www-data
Copyright 2007-2009 by &#60;INDE&#62;, Andreas Kalpakidis. All rights reserved.
</metadata>
<defs>
<font id="advent-Lt2" horiz-adv-x="172" >
  <font-face 
    font-family="advent"
    font-weight="200"
    font-stretch="normal"
    units-per-em="1000"
    panose-1="2 0 5 6 4 0 0 2 0 4"
    ascent="714"
    descent="-286"
    x-height="501"
    cap-height="700"
    bbox="-75 -218 1873 948"
    underline-thickness="50"
    underline-position="-50"
    unicode-range="U+0020-FB04"
  />
<missing-glyph horiz-adv-x="500" 
d="M500 0h-500v700h500v-700zM450 50v600h-400v-600h400zM425 133l-39 -32l-136 204l-137 -205l-40 29l147 221l-147 221l40 29l137 -205l136 204l39 -32l-145 -217z" />
    <glyph glyph-name="f_f" unicode="ff" horiz-adv-x="481" 
d="M336 0h-33v561q0 47 21 79q-43 32 -95 33t-89 -30.5t-37 -87.5v-54h137l-14 -31h-123v-470h-33v561q0 49 25.5 85t64.5 50.5t88.5 7t94.5 -39.5q35 31 83.5 35t77.5 -16l-12 -27q-58 25 -107 -2t-49 -98v-55h137l-14 -31h-123v-470z" />
    <glyph glyph-name="f_i" unicode="fi" horiz-adv-x="414" 
d="M344 0h-32v501h32v-501zM101 0h-31v561q0 68 44.5 109t107.5 38.5t113 -48.5l-21 -21q-46 36 -96 36.5t-83.5 -33t-33.5 -88.5v-53h139l-14 -31h-125v-470z" />
    <glyph glyph-name="f_l" unicode="fl" horiz-adv-x="412" 
d="M342 0h-31v639q-48 32 -94.5 33.5t-81 -30.5t-34.5 -83v-58h139l-14 -31h-125v-470h-31v561q0 69 45.5 108.5t110 36t116.5 -48.5v-657z" />
    <glyph glyph-name="f_f_l" unicode="ffl" horiz-adv-x="642" 
d="M572 0h-31v639q-48 32 -94.5 33.5t-81 -30.5t-34.5 -83v-58h139l-14 -31h-125v-470h-31v561q0 46 23 79q-43 31 -94.5 32.5t-88.5 -30.5t-37 -87v-54h137l-14 -31h-123v-470h-33v561q0 65 42.5 105.5t103 39.5t125.5 -41q41 41 108.5 39.5t122.5 -47.5v-657z" />
    <glyph glyph-name="w_w_w" unicode="www" horiz-adv-x="1887" 
d="M1709 0h-35l-123 437l-122 -437h-35l-147 450l-147 -450h-35l-123 437l-122 -437h-35l-146 449l-147 -449h-35l-123 437l-122 -437h-35l-163 501h34l146 -457l127 457h27l127 -456l147 456h34l146 -457l127 457h27l127 -456l147 456h35l146 -457l127 457h27l127 -456
l147 456h34z" />
    <glyph glyph-name="f_t" unicode="ft" horiz-adv-x="479" 
d="M425 12l-9 -25q-56 16 -81 51t-25 94v507q-52 34 -98.5 33.5t-78.5 -33.5t-32 -83v-55h139l-15 -31h-124v-470h-31v561q0 67 44.5 107t109 37.5t117.5 -48.5v-156h131l-14 -31h-117v-338q0 -93 84 -120z" />
    <glyph glyph-name="t_t" unicode="tt" horiz-adv-x="481" 
d="M416 14l-9 -27q-56 16 -81 51t-25 94v338h-202v-338q0 -50 19.5 -77t63.5 -41l-9 -27q-56 16 -81 51t-25 94v568h32v-199h202v199h32v-199h144l-14 -31h-130v-338q0 -50 19.5 -77t63.5 -41z" />
    <glyph glyph-name=".notdef" horiz-adv-x="500" 
d="M500 0h-500v700h500v-700zM450 50v600h-400v-600h400zM425 133l-39 -32l-136 204l-137 -205l-40 29l147 221l-147 221l40 29l137 -205l136 204l39 -32l-145 -217z" />
    <glyph glyph-name=".null" horiz-adv-x="458" 
 />
    <glyph glyph-name="nonmarkingreturn" horiz-adv-x="333" 
 />
    <glyph glyph-name="space" unicode=" " horiz-adv-x="257" 
 />
    <glyph glyph-name="exclam" unicode="!" horiz-adv-x="249" 
d="M138 120h-26l-10 565q0 25 23 25q21 0 21 -24zM124 0q-9 0 -15 6.5t-6 14.5q0 9 6 15.5t15 6.5q8 0 14.5 -6.5t6.5 -15.5q0 -8 -6.5 -14.5t-14.5 -6.5z" />
    <glyph glyph-name="quotedbl" unicode="&#x22;" horiz-adv-x="291" 
d="M221 512h-24l-9 200q0 15 10.5 21.5t21 0t10.5 -21.5zM93 512h-24l-10 200q0 15 10.5 21.5t21.5 0t11 -21.5z" />
    <glyph glyph-name="numbersign" unicode="#" horiz-adv-x="685" 
d="M616 213h-193l-50 -213h-32l50 213h-166l-49 -213h-32l50 213h-126v32h133l40 168h-173v32h181l59 255h32l-60 -255h166l59 255h32l-60 -255h139v-32h-146l-40 -168h186v-32zM398 245l40 168h-165l-40 -168h165z" />
    <glyph glyph-name="dollar" unicode="$" horiz-adv-x="571" 
d="M299 -114h-31v103q-101 5 -159 61.5t-60 127.5h34q2 -56 51 -104.5t134 -53.5v342q-47 16 -76 28t-61.5 33t-48 49.5t-15.5 65.5q0 65 52 115t149 56v108h31v-107q77 -1 139 -30l-11 -32q-59 29 -128 31v-294q53 -17 83.5 -30t68 -36t55.5 -55.5t18 -74.5
q0 -89 -55 -142.5t-170 -57.5v-103zM299 351v-331q84 3 137 43t53 124q0 34 -14.5 60.5t-45 45.5t-58 31t-72.5 27zM268 396v282q-75 -6 -121 -43t-46 -100q0 -52 42.5 -81.5t124.5 -57.5z" />
    <glyph glyph-name="percent" unicode="%" horiz-adv-x="705" 
d="M84 1l-21 24l553 715l24 -23zM510 -11q-60 0 -102 42t-42 102t42 102t102 42t102 -42t42 -102t-42 -102t-102 -42zM624 133q0 45 -31.5 79.5t-82.5 34.5t-82.5 -34.5t-31.5 -79.5t31.5 -79.5t82.5 -34.5t82.5 34.5t31.5 79.5zM199 439q-60 0 -102 42t-42 102t42 102
t102 42t102 -42t42 -102t-42 -102t-102 -42zM313 583q0 45 -31.5 79t-82.5 34t-82 -34t-31 -79t31 -79.5t82 -34.5t82.5 34.5t31.5 79.5z" />
    <glyph glyph-name="ampersand" unicode="&#x26;" horiz-adv-x="579" 
d="M511 16l-9 -27q-73 22 -79 115q-38 -62 -83.5 -88.5t-106.5 -26.5q-90 0 -137.5 63.5t-39.5 151.5q4 40 20 74.5t35.5 57t51 44t53.5 32.5t54 25q-36 5 -63 36.5t-31 76.5q-9 87 63 133.5t162 15.5l-17 -27q-74 24 -129.5 -16t-45.5 -105q9 -59 50.5 -80t89.5 -10l71 16
v132h32v-125l73 16l7 -31l-80 -18v-322q0 -93 59 -113zM420 209v236q-37 -8 -63.5 -15.5t-69 -21.5t-72.5 -32.5t-60 -43t-47 -59.5t-20 -76q-5 -73 33.5 -125t117.5 -52t130 59.5t51 129.5z" />
    <glyph glyph-name="quotesingle" unicode="'" horiz-adv-x="158" 
d="M91 589h-24l-9 119q0 17 11 24t21.5 0t10.5 -24z" />
    <glyph glyph-name="parenleft" unicode="(" horiz-adv-x="232" 
d="M198 -94l-11 -25q-57 33 -81 72.5t-24 117.5v556q0 78 24 117.5t81 72.5l11 -24q-18 -11 -30 -21.5t-26 -28.5t-21 -45t-7 -62v-572q0 -37 7 -64.5t22 -46t25.5 -27t29.5 -20.5z" />
    <glyph glyph-name="parenright" unicode=")" horiz-adv-x="232" 
d="M45 -119l-11 25q19 12 29.5 20.5t25.5 27t22.5 46t7.5 64.5v572q0 35 -7 62t-21 45t-26 28.5t-30 21.5l10 24q57 -33 81 -72.5t24 -117.5v-556q0 -78 -24 -117.5t-81 -72.5z" />
    <glyph glyph-name="asterisk" unicode="*" horiz-adv-x="377" 
d="M290 444l-25 -19l-77 104l-73 -104l-26 18l72 102l-120 44l11 29l119 -47v129h33l-1 -129l122 47l11 -29l-123 -44z" />
    <glyph glyph-name="plus" unicode="+" horiz-adv-x="420" 
d="M370 382h-144v-138h-31v138h-145v31h145v132h31v-132h144v-31z" />
    <glyph glyph-name="comma" unicode="," horiz-adv-x="204" 
d="M62 -84l-25 17q24 13 39.5 29.5t19.5 25.5l4 10l-5 1q-15 7 -15 23q0 8 6.5 14t15.5 6q8 0 15 -7t7 -16q0 -52 -62 -103z" />
    <glyph glyph-name="hyphen" unicode="-" horiz-adv-x="536" 
d="M428 381h-320v32h320v-32z" />
    <glyph glyph-name="period" unicode="." horiz-adv-x="203" 
d="M102 0q-9 0 -15.5 6.5t-6.5 14.5q0 9 6.5 15.5t15.5 6.5q8 0 14.5 -6.5t6.5 -15.5q0 -8 -6.5 -14.5t-14.5 -6.5z" />
    <glyph glyph-name="slash" unicode="/" horiz-adv-x="426" 
d="M68 -114h-34l324 931h33z" />
    <glyph glyph-name="zero" unicode="0" horiz-adv-x="560" 
d="M490 506v-321q0 -101 -61.5 -148.5t-147.5 -47.5t-148.5 47.5t-62.5 148.5v322q0 103 56.5 156t155.5 53t153.5 -56t54.5 -154zM458 185v327q0 81 -46 126.5t-132 45.5t-132 -45.5t-46 -127.5v-326q0 -82 51.5 -123.5t126.5 -41.5q77 0 127.5 39.5t50.5 125.5z" />
    <glyph glyph-name="one" unicode="1" horiz-adv-x="284" 
d="M177 0h-32v652q-21 -23 -49.5 -38.5t-47.5 -19.5l-18 -4l-8 30q9 1 23 4.5t47 24t53 51.5h32v-700z" />
    <glyph glyph-name="two" unicode="2" horiz-adv-x="444" 
d="M390 0h-351v32l278 397q42 67 39 122.5t-41 91.5t-92 36q-57 0 -92 -29t-49 -72l-30 12q42 120 173 120q65 0 112 -43t52 -109t-45 -145l-267 -382h313v-31z" />
    <glyph glyph-name="three" unicode="3" horiz-adv-x="464" 
d="M33 83l28 18q53 -81 149 -81q80 0 130.5 55t50.5 126q0 79 -53.5 128t-121.5 52h-95l206 287h-247v32h287v-30l-186 -257h29q89 0 151 -62t62 -150q0 -89 -62.5 -151t-150.5 -62q-54 0 -101 25.5t-76 69.5z" />
    <glyph glyph-name="four" unicode="4" horiz-adv-x="480" 
d="M376 0h-32l-1 381h-325l180 319h33l-158 -287h271v287h32v-287h73l-11 -32h-62v-381z" />
    <glyph glyph-name="five" unicode="5" horiz-adv-x="473" 
d="M42 83l27 17q22 -37 63 -58.5t87 -21.5q78 0 129.5 54t51.5 127q0 72 -51 126t-129 54h-143l34 319h265v-32h-236l-28 -255h107q89 0 151 -62t62 -150q0 -89 -62 -151t-151 -62q-54 0 -101 25.5t-76 69.5z" />
    <glyph glyph-name="six" unicode="6" horiz-adv-x="525" 
d="M67 201v260q0 40 12 78.5t38.5 76t76.5 61t117 23.5h35v-32h-39q-38 0 -73.5 -11.5t-66.5 -35.5t-50 -68t-19 -102v-148q27 57 76 83.5t105 26.5q89 0 151 -62t62 -150q0 -89 -62 -151t-151 -62q-88 0 -150 62t-62 151zM98 208v-7q0 -76 52.5 -128.5t128.5 -52.5
t128.5 52.5t52.5 128.5t-52.5 128t-128.5 52q-74 0 -126 -49.5t-55 -123.5z" />
    <glyph glyph-name="seven" unicode="7" horiz-adv-x="441" 
d="M84 0h-35l344 668h-357v32h394v-32z" />
    <glyph glyph-name="eight" unicode="8" horiz-adv-x="511" 
d="M253 369q-73 -1 -124 -51t-51 -123q0 -75 51.5 -125t126.5 -50t125.5 50t50.5 125q0 73 -52.5 123t-126.5 51zM326 387q63 -21 100.5 -76t37.5 -116q0 -88 -59.5 -147.5t-148.5 -59.5t-149.5 59.5t-60.5 147.5q0 63 36.5 116.5t100.5 75.5q-43 18 -70 60.5t-27 88.5
q0 74 48.5 123.5t121.5 49.5t122 -49.5t49 -123.5q0 -47 -26.5 -88t-74.5 -61zM254 399q57 0 99.5 39t42.5 98q0 60 -40 101t-99 41q-60 0 -100 -41t-40 -101q0 -58 41.5 -97t95.5 -40z" />
    <glyph glyph-name="nine" unicode="9" horiz-adv-x="527" 
d="M215 0h-35v32h39q38 0 73 11t66.5 35t50 67.5t18.5 101.5v147q-27 -57 -75.5 -83.5t-104.5 -26.5q-89 0 -151 62t-62 150t62 150.5t151 62.5q88 0 150 -62t62 -151v-259q0 -39 -12 -78t-38.5 -76t-76.5 -60t-117 -23zM427 489v7q0 76 -52 128.5t-128 52.5t-129 -52.5
t-53 -128.5t53 -128t129 -52q74 0 126 49.5t54 123.5z" />
    <glyph glyph-name="colon" unicode=":" horiz-adv-x="278" 
d="M140 110q-9 0 -15.5 6.5t-6.5 14.5q0 9 6.5 15.5t15.5 6.5q8 0 14.5 -6.5t6.5 -15.5q0 -8 -6.5 -14.5t-14.5 -6.5zM140 375q-9 0 -15.5 6.5t-6.5 14.5q0 9 6.5 15.5t15.5 6.5q8 0 14.5 -6.5t6.5 -15.5q0 -8 -6.5 -14.5t-14.5 -6.5z" />
    <glyph glyph-name="semicolon" unicode=";" horiz-adv-x="266" 
d="M133 256q-9 0 -15.5 6.5t-6.5 14.5q0 9 6.5 15.5t15.5 6.5q8 0 14.5 -6.5t6.5 -15.5q0 -8 -6.5 -14.5t-14.5 -6.5zM94 -82l-25 17q24 13 39.5 29.5t19.5 25.5l4 10l-5 1q-15 7 -15 23q0 8 6.5 14t15.5 6q8 0 15 -7t7 -16q0 -52 -62 -103z" />
    <glyph glyph-name="less" unicode="&#x3c;" horiz-adv-x="466" 
d="M374 102l-23 -22l-278 278v1l278 278l23 -22l-259 -257z" />
    <glyph glyph-name="equal" unicode="=" horiz-adv-x="534" 
d="M427 381h-320v32h320v-32zM427 276h-320v32h320v-32z" />
    <glyph glyph-name="greater" unicode="&#x3e;" horiz-adv-x="466" 
d="M115 80l-23 22l259 256l-259 257l23 22l278 -278v-1z" />
    <glyph glyph-name="question" unicode="?" horiz-adv-x="457" 
d="M221 119h-30v75q0 46 15.5 83.5t34.5 58t46.5 49t41.5 48.5q28 40 32.5 84t-11.5 79.5t-51 58.5t-80 23q-63 0 -104.5 -38.5t-41.5 -107.5h-32q0 75 46.5 126t131.5 51q52 0 94 -26.5t63.5 -67t18 -93.5t-36.5 -101q-19 -27 -48 -56.5t-45.5 -47.5t-30 -53.5t-13.5 -84.5
v-60zM207 0q-9 0 -15.5 6.5t-6.5 14.5q0 9 6.5 15.5t15.5 6.5q8 0 14.5 -6.5t6.5 -15.5q0 -8 -6.5 -14.5t-14.5 -6.5z" />
    <glyph glyph-name="at" unicode="@" horiz-adv-x="775" 
d="M661 162v201q0 59 8.5 84t45.5 44l11 -25q-33 -15 -33 -70v-225q0 -63 -30.5 -111t-80.5 -74t-102.5 -38.5t-108.5 -13.5q-128 -3 -216 63t-88 192v151q0 56 18 99t48.5 68.5t58.5 39.5t59 21q53 12 105.5 11.5t103.5 -15t83 -57.5t32 -110l37 -16v-31l-37 16v-275
q-41 -11 -73 -18.5t-72.5 -13t-71.5 -5t-62.5 8.5t-52.5 24.5t-35.5 46t-17.5 70.5v101q0 111 88 144q98 36 263 -41q-2 65 -47.5 102.5t-129.5 38.5q-118 2 -191.5 -49.5t-73.5 -157.5v-152q0 -106 73.5 -166t194.5 -59q130 1 212 55.5t82 141.5zM542 117v260
q-44 22 -94.5 36t-103.5 16t-88 -30t-35 -97v-96q0 -50 26.5 -80t71.5 -37.5t101.5 -0.5t121.5 29z" />
    <glyph glyph-name="A" unicode="A" horiz-adv-x="532" 
d="M519 0h-35l-91 268h-254l-92 -268h-33l238 700h27zM383 300l-118 344l-116 -344h234z" />
    <glyph glyph-name="B" unicode="B" horiz-adv-x="573" 
d="M317 0h-230v700h221q82 0 130 -42.5t46 -127.5q-1 -37 -20.5 -73.5t-59.5 -56.5q-1 -1 -1 -2v-1q50 -20 83.5 -66t33.5 -122q0 -39 -9.5 -73.5t-31 -66t-63 -50.5t-99.5 -19zM119 413h212q49 0 84 32t36 85q3 70 -36.5 104.5t-114.5 34.5h-181v-256zM119 31h196
q82 0 127 45t45 137q0 75 -45 121.5t-119 46.5h-204v-350z" />
    <glyph glyph-name="C" unicode="C" horiz-adv-x="468" 
d="M424 51l8 -28q-49 -19 -98 -27.5t-97 -4t-84.5 24t-59 62t-22.5 105.5v321q0 76 21.5 115t65.5 66q50 28 121.5 25t127.5 -33l-11 -24q-66 27 -123 27q-21 0 -40 -2.5t-44 -13t-43 -27.5t-30.5 -49t-12.5 -75v-328q0 -118 89 -153t232 19z" />
    <glyph glyph-name="D" unicode="D" horiz-adv-x="576" 
d="M295 0h-208v701h188q113 0 172.5 -62t59.5 -165v-274q0 -200 -212 -200zM475 206v268q0 98 -55.5 146.5t-134.5 48.5h-166v-639h164q28 0 49 2t50 12.5t47.5 28t32 52t13.5 81.5z" />
    <glyph glyph-name="E" unicode="E" horiz-adv-x="473" 
d="M419 0h-332v700h334v-31h-302v-256h215l-11 -32h-204v-351h300v-30z" />
    <glyph glyph-name="F" unicode="F" horiz-adv-x="440" 
d="M120 0h-33v700h334v-32h-301v-255h194l-13 -32h-181v-381z" />
    <glyph glyph-name="G" unicode="G" horiz-adv-x="535" 
d="M481 0h-27l-5 72q-46 -82 -168 -82q-88 0 -149.5 50t-61.5 149v314q0 128 87 181q50 28 120 25t129 -33l-10 -24q-65 26 -114 28q-22 1 -42.5 -1.5t-47 -13t-45 -28.5t-32 -53t-13.5 -82v-315q0 -75 49 -120.5t130 -45.5q86 0 127.5 46.5t41.5 115.5v85h-95l-12 32h138
v-300z" />
    <glyph glyph-name="H" unicode="H" horiz-adv-x="604" 
d="M517 0h-32v381h-366v-381h-32v700h32v-287h366v287h32v-700z" />
    <glyph glyph-name="I" unicode="I" horiz-adv-x="227" 
d="M140 0h-32v668l-80 2v30h112v-700z" />
    <glyph glyph-name="J" unicode="J" horiz-adv-x="235" 
d="M40 -37l-8 25q88 9 88 129v551l-78 2v30h110v-579q0 -75 -27 -113.5t-85 -44.5z" />
    <glyph glyph-name="K" unicode="K" horiz-adv-x="495" 
d="M484 0h-37l-248 383l-80 -107v-276h-32v701h32v-372l276 372h37l-213 -290z" />
    <glyph glyph-name="L" unicode="L" horiz-adv-x="461" 
d="M448 0h-361v700h32v-670h329v-30z" />
    <glyph glyph-name="M" unicode="M" horiz-adv-x="710" 
d="M623 0h-31v608l-221 -608h-33l-220 608v-608h-31v700h31l237 -650l237 650h31v-700z" />
    <glyph glyph-name="N" unicode="N" horiz-adv-x="666" 
d="M579 0h-31l-430 644v-644h-31v700h31l430 -643v643h31v-700z" />
    <glyph glyph-name="O" unicode="O" horiz-adv-x="560" 
d="M490 506v-321q0 -101 -61.5 -148.5t-147.5 -47.5t-148.5 47.5t-62.5 148.5v322q0 103 56.5 156t155.5 53t153.5 -56t54.5 -154zM458 185v327q0 81 -46 126.5t-132 45.5t-132 -45.5t-46 -127.5v-326q0 -82 51.5 -123.5t126.5 -41.5q77 0 127.5 39.5t50.5 125.5z" />
    <glyph glyph-name="P" unicode="P" horiz-adv-x="559" 
d="M119 300h207q163 0 163 186q0 86 -38.5 134t-115.5 48h-216v-368zM119 0h-32v700h246q95 0 141.5 -58t46.5 -156q0 -31 -3 -57t-15 -57.5t-31.5 -52.5t-57 -36t-87.5 -15h-208v-268z" />
    <glyph glyph-name="Q" unicode="Q" horiz-adv-x="561" 
d="M435 -63v-31q-123 0 -155 83q-88 1 -149 49t-61 147v322q0 103 56.5 156t155.5 53t153.5 -56t54.5 -154v-321q0 -88 -48 -136t-127 -59q19 -52 120 -53zM458 186v330q0 84 -50 126t-128 42q-76 0 -126.5 -40.5t-50.5 -127.5v-331q0 -82 50.5 -122.5t118.5 -42.5
q-4 24 -4 68v86h32l1 -86q0 -44 4 -67q72 5 112.5 49.5t40.5 115.5z" />
    <glyph glyph-name="R" unicode="R" horiz-adv-x="577" 
d="M522 0h-34l-117 271q-15 -3 -30 -3h-221v-268h-33v700h241q98 0 145.5 -58t47.5 -156q0 -165 -119 -207zM120 300h211q46 0 79 17.5t49 47t22.5 59t6.5 62.5q0 88 -41 135t-118 47h-209v-368z" />
    <glyph glyph-name="S" unicode="S" horiz-adv-x="558" 
d="M48 178h34q2 -59 55 -108.5t146 -49.5q90 0 147.5 40t57.5 127q0 48 -31.5 82.5t-78 52t-101.5 37.5t-101.5 38t-78 54.5t-31.5 86.5q0 70 58 121t167 51q83 0 146 -30l-11 -32q-60 31 -133 31q-84 0 -138.5 -37.5t-54.5 -106.5q0 -49 43.5 -81.5t106 -52t124.5 -42
t105.5 -65t43.5 -105.5q0 -92 -58.5 -146t-180.5 -54q-109 0 -171.5 57.5t-64.5 131.5z" />
    <glyph glyph-name="T" unicode="T" horiz-adv-x="429" 
d="M230 0h-31l-1 669h-182v31h402v-31h-188v-669z" />
    <glyph glyph-name="U" unicode="U" horiz-adv-x="587" 
d="M472 182v519h32v-515q0 -53 -18.5 -92t-50 -60t-66.5 -31t-75 -10t-75.5 10t-67 31t-50 60t-18.5 92v515h32v-519q0 -81 53.5 -120t126.5 -39q71 0 124 39.5t53 119.5z" />
    <glyph glyph-name="V" unicode="V" horiz-adv-x="507" 
d="M274 0h-41l-219 700h33l206 -658l206 658h33z" />
    <glyph glyph-name="W" unicode="W" horiz-adv-x="739" 
d="M542 0h-43l-129 634l-129 -634h-43l-177 700h35l161 -652l133 652h40l132 -653l160 653h35z" />
    <glyph glyph-name="X" unicode="X" horiz-adv-x="552" 
d="M529 2l-39 -2l-214 328l-214 -328h-40l235 360l-216 340h36l199 -310l199 310h38l-217 -340z" />
    <glyph glyph-name="Y" unicode="Y" horiz-adv-x="576" 
d="M388 -7l-8 25q17 6 25 10.5t24 18.5t23.5 40.5t7.5 64.5v173q-29 -43 -81.5 -61.5t-100.5 -18.5q-106 0 -167.5 52.5t-61.5 155.5v247h32v-247q0 -85 50.5 -130.5t146.5 -45.5q73 0 122.5 35t59.5 91v297h32v-551q0 -134 -104 -156z" />
    <glyph glyph-name="Z" unicode="Z" horiz-adv-x="566" 
d="M524 0h-487v30l441 640h-427l-1 30h468v-30l-441 -640h447v-30z" />
    <glyph glyph-name="bracketleft" unicode="[" horiz-adv-x="279" 
d="M244 -114h-161v931h161v-27l-129 -4v-868l129 -5v-27z" />
    <glyph glyph-name="backslash" unicode="\" horiz-adv-x="426" 
d="M392 -114h-34l-323 931h33z" />
    <glyph glyph-name="bracketright" unicode="]" horiz-adv-x="279" 
d="M196 -114h-161v27l129 5v868l-129 4v27h161v-931z" />
    <glyph glyph-name="asciicircum" unicode="^" horiz-adv-x="524" 
d="M384 734l-120 120l-125 -119l-22 23l148 141l142 -141z" />
    <glyph glyph-name="underscore" unicode="_" horiz-adv-x="390" 
d="M355 -32h-320v32h320v-32z" />
    <glyph glyph-name="grave" unicode="`" horiz-adv-x="523" 
d="M302 588h-28l-65 105q-6 9 -3.5 19.5t12.5 14.5q20 8 30 -15z" />
    <glyph glyph-name="a" unicode="a" horiz-adv-x="490" 
d="M428 298v-298q-152 -14 -213 -8q-164 18 -172 163v14v83q0 97 72 132q54 26 138 14.5t143 -52.5q0 138 -178 136l2 27q38 0 68.5 -4.5t51.5 -15t37 -21.5t25 -29t15 -31.5t8 -36.5t2.5 -36t0.5 -37zM396 28v288q-37 23 -88.5 38.5t-105 18t-90.5 -28.5t-37 -95v-87
q0 -44 18.5 -74.5t47.5 -45.5t73 -20.5t86.5 -3t95.5 9.5z" />
    <glyph glyph-name="b" unicode="b" horiz-adv-x="494" 
d="M439 346v-189q0 -99 -78 -139q-59 -30 -132 -30t-159 12v700h32v-224q50 27 126 32t126 -18q85 -39 85 -144zM407 156v187q0 50 -23 82.5t-58.5 43.5t-77.5 11t-80 -9.5t-66 -24.5v-416q56 -11 107 -11.5t97 10.5t73.5 43.5t27.5 83.5z" />
    <glyph glyph-name="c" unicode="c" horiz-adv-x="416" 
d="M368 34l7 -28q-120 -32 -210 -4q-59 20 -85.5 61.5t-26.5 116.5v128q0 71 28 119t74 67t103 15t115 -31l-10 -27q-48 23 -97 27.5t-89.5 -9.5t-66 -54.5t-25.5 -100.5v-145q0 -56 25 -91.5t67.5 -47.5t90 -11t100.5 15z" />
    <glyph glyph-name="d" unicode="d" horiz-adv-x="494" 
d="M392 476v224h32v-700q-86 -12 -159 -12t-132 30q-78 40 -78 139v189q0 105 85 144q50 23 126 18t126 -32zM392 30v416q-28 15 -66 24.5t-80 9.5t-77.5 -11t-58.5 -43.5t-23 -82.5v-187q0 -51 27.5 -83.5t73.5 -43.5t97 -10.5t107 11.5z" />
    <glyph glyph-name="e" unicode="e" horiz-adv-x="462" 
d="M377 61l14 -26q-74 -45 -165 -47q-78 -2 -124 34.5t-46 111.5v205q0 81 50.5 126t133.5 45t129.5 -44.5t46.5 -123.5v-107l-328 -17v-85q0 -62 43.5 -92.5t110 -24t135.5 44.5zM384 265v80q0 73 -44 104.5t-101 31.5q-63 0 -107 -34.5t-44 -107.5v-90z" />
    <glyph glyph-name="f" unicode="f" horiz-adv-x="247" 
d="M102 0h-32v549q0 50 17 86t43.5 51.5t59 22t63.5 -1.5l-5 -28q-65 9 -105.5 -24t-40.5 -106v-48h138l-14 -31h-124v-470z" />
    <glyph glyph-name="g" unicode="g" horiz-adv-x="500" 
d="M323 -210l-9 27q41 15 62.5 40.5t21.5 79.5v133q-53 -82 -159 -82q-88 0 -137 48t-49 140v149q0 88 52.5 136.5t139.5 48.5q106 0 154 -71l-1 62h32v-565q0 -60 -25 -94t-82 -52zM398 165v211q-13 53 -55.5 78.5t-98.5 25.5q-26 0 -51 -7t-50.5 -23t-41.5 -49.5
t-16 -80.5v-153q0 -69 40 -109t114 -40q61 0 110 37t49 110z" />
    <glyph glyph-name="h" unicode="h" horiz-adv-x="504" 
d="M439 0h-32v346q0 58 -33 91.5t-81 40t-99 -2.5t-92 -31v-444h-32v700h32v-225q55 31 130 34.5t122 -19.5q85 -39 85 -144v-346z" />
    <glyph glyph-name="i" unicode="i" 
d="M102 0h-32v501h32v-501zM86 669q-9 0 -15 6t-6 15q0 8 6 14t15 6q8 0 14 -6t6 -14q0 -9 -6 -15t-14 -6z" />
    <glyph glyph-name="j" unicode="j" horiz-adv-x="197" 
d="M95 -73v542l-65 1l-15 31h112v-581q-1 -50 -28.5 -86.5t-83.5 -42.5l-4 27q3 0 9 1t20.5 7.5t25.5 17t20 32.5t9 51zM111 669q-8 0 -14.5 6t-6.5 15q0 8 6.5 14t14.5 6t14 -6t6 -14q0 -9 -6 -15t-14 -6z" />
    <glyph glyph-name="k" unicode="k" horiz-adv-x="442" 
d="M437 0h-38l-215 349l-82 -74v-275h-32v700h32v-387l224 207l23 -22l-141 -128q99 -164 229 -370z" />
    <glyph glyph-name="l" unicode="l" 
d="M102 0h-32v700h32v-700z" />
    <glyph glyph-name="m" unicode="m" horiz-adv-x="760" 
d="M694 0h-32v344q0 50 -20.5 83t-53.5 44.5t-72 7.5t-78 -22l-48 -24q13 -22 13 -95v-338h-31v364q0 53 -30 82t-73.5 32.5t-88 -6t-78.5 -28.5v-444h-32v501h32l-2 -27q81 40 160.5 34.5t115.5 -52.5q21 12 51 27q105 50 186 11t81 -148v-346z" />
    <glyph glyph-name="n" unicode="n" horiz-adv-x="504" 
d="M439 0h-32v346q0 57 -33 90.5t-81 40t-99.5 -2t-91.5 -30.5v-444h-32v501h32v-26q55 31 130 34.5t122 -19.5q85 -39 85 -144v-346z" />
    <glyph glyph-name="o" unicode="o" horiz-adv-x="477" 
d="M425 316v-132q0 -84 -46 -139t-139 -55t-140.5 55.5t-47.5 138.5v132q0 95 48.5 145.5t139.5 50.5q87 0 136 -52.5t49 -143.5zM393 180v139q0 82 -43 122.5t-110 40.5q-70 0 -113 -40.5t-43 -122.5v-139q0 -68 39 -114.5t117 -46.5q76 0 114.5 45.5t38.5 115.5z" />
    <glyph glyph-name="p" unicode="p" horiz-adv-x="499" 
d="M102 -210l-32 12v699h32l-2 -58q26 34 67.5 50t81.5 16q98 0 148 -54t50 -141v-138q0 -91 -52 -139.5t-136 -48.5q-111 0 -157 77v-275zM415 166v152q0 46 -15.5 79t-41 50t-52 24.5t-55.5 7.5q-48 0 -92.5 -25t-56.5 -83v-212q0 -68 43 -104.5t116 -36.5q60 0 107 36.5
t47 111.5z" />
    <glyph glyph-name="q" unicode="q" horiz-adv-x="499" 
d="M429 -210l-32 12v263q-46 -77 -157 -77q-84 0 -136 48.5t-52 139.5v138q0 87 50 141t148 54q40 0 81.5 -16t67.5 -50l-2 58h32v-711zM397 159v212q-12 58 -56.5 83t-92.5 25q-28 0 -54.5 -8t-52 -25t-41.5 -50t-16 -78v-152q0 -75 47 -111.5t107 -36.5q73 0 116 36.5
t43 104.5z" />
    <glyph glyph-name="r" unicode="r" horiz-adv-x="327" 
d="M102 0h-32v501h32l-1 -47q76 77 219 47l-9 -32q-51 13 -97.5 8t-79 -27.5t-32.5 -52.5v-397z" />
    <glyph glyph-name="s" unicode="s" horiz-adv-x="430" 
d="M40 127h31q5 -48 46 -79.5t108 -31.5q61 0 102 29t41 79q0 40 -30.5 66.5t-74.5 40.5t-88.5 28t-79 40t-39.5 66q-7 55 34.5 101.5t132.5 46.5q31 0 59 -7.5t40 -15.5l13 -7l-13 -27q-41 26 -99 27q-57 1 -99 -27.5t-37 -84.5q3 -32 36.5 -53.5t79 -34.5t90.5 -29t76 -48
t31 -81q0 -60 -44.5 -100t-130.5 -40q-85 0 -134 41t-51 101z" />
    <glyph glyph-name="t" unicode="t" horiz-adv-x="247" 
d="M182 14l-9 -27q-56 16 -81 51t-25 94v568h32v-199h144l-14 -31h-130v-338q0 -50 19.5 -77t63.5 -41z" />
    <glyph glyph-name="u" unicode="u" horiz-adv-x="507" 
d="M437 0h-32l2 69q-51 -80 -155 -80q-188 0 -188 186v326h32v-329q0 -153 156 -153q68 0 110.5 37.5t42.5 105.5v339h32v-501z" />
    <glyph glyph-name="v" unicode="v" horiz-adv-x="410" 
d="M223 0h-36l-174 501h33l159 -457l160 457h33z" />
    <glyph glyph-name="w" unicode="w" horiz-adv-x="670" 
d="M492 0h-35l-123 437l-122 -437h-35l-163 501h34l146 -457l127 457h27l127 -456l147 456h34z" />
    <glyph glyph-name="x" unicode="x" horiz-adv-x="404" 
d="M374 0h-37l-134 221l-139 -221h-37l157 250l-153 251h37l135 -223l137 223h36l-154 -251z" />
    <glyph glyph-name="y" unicode="y" horiz-adv-x="513" 
d="M333 -210l-9 27q84 25 84 120v137q-24 -46 -69.5 -66t-92.5 -20q-88 0 -135.5 47.5t-47.5 140.5v325h31v-335q0 -69 38 -108.5t114 -39.5q72 0 116.5 40t44.5 108v203q0 33 1 49t5 38t15 34t29 20l10 -24q-29 -18 -29 -83v-464q0 -61 -24 -96t-81 -53z" />
    <glyph glyph-name="z" unicode="z" horiz-adv-x="435" 
d="M403 0h-367v30l306 441h-297v30h337v-30l-307 -441h328v-30z" />
    <glyph glyph-name="braceleft" unicode="{" horiz-adv-x="262" 
d="M227 -92l-11 -24q-65 38 -85.5 82t-20.5 149v132q0 19 -16 43.5t-26.5 34.5t-31.5 29q24 19 48 50t24 58v139q0 97 21 140.5t85 80.5l11 -24q-22 -15 -30 -21.5t-24.5 -26t-23.5 -46t-7 -63.5v-185q0 -39 -63 -102l7.5 -7.5l9.5 -9.5t10.5 -11t11.5 -13.5t9.5 -13.5
t8.5 -15t5.5 -15.5t2.5 -15.5v-181q0 -64 19.5 -100.5t65.5 -63.5z" />
    <glyph glyph-name="bar" unicode="|" horiz-adv-x="197" 
d="M114 -114h-31v931h31v-931z" />
    <glyph glyph-name="braceright" unicode="}" horiz-adv-x="262" 
d="M46 -116l-11 24q46 27 65.5 63.5t19.5 100.5v181q0 7 2.5 15.5t5.5 15.5t8.5 15t9.5 13.5t11.5 13.5t10.5 11l9.5 9.5l7.5 7.5q-63 63 -63 102v185q0 37 -7 63.5t-23.5 46t-24.5 26t-30 21.5l11 24q64 -37 85 -80.5t21 -140.5v-139q0 -27 24 -58t48 -50
q-21 -19 -31.5 -29t-26.5 -34.5t-16 -43.5v-132q0 -105 -20.5 -149t-85.5 -82z" />
    <glyph glyph-name="asciitilde" unicode="~" horiz-adv-x="547" 
d="M457 368l16 -25q-33 -34 -74 -39.5t-79.5 6.5l-77 24t-78 6t-70.5 -41l-17 24q35 39 77 48t82 -2.5t78.5 -24t76.5 -10t66 33.5z" />
    <glyph glyph-name="uni00A0" unicode="&#xa0;" horiz-adv-x="257" 
 />
    <glyph glyph-name="exclamdown" unicode="&#xa1;" horiz-adv-x="229" 
d="M92 25l10 565h26l8 -566q0 -24 -21 -24q-23 0 -23 25zM114 667q-9 0 -15 6.5t-6 15.5q0 8 6 14.5t15 6.5q8 0 14.5 -6.5t6.5 -14.5q0 -9 -6.5 -15.5t-14.5 -6.5z" />
    <glyph glyph-name="cent" unicode="&#xa2;" horiz-adv-x="433" 
d="M264 -114h-30v105q-38 4 -60 11q-59 20 -85.5 61.5t-26.5 116.5v128q0 95 47.5 146t124.5 55v114h30v-114q60 -5 118 -31l-10 -27q-53 25 -108 28v-461q52 0 113 16l7 -28q-64 -16 -120 -16v-104zM234 20v459q-62 -5 -101 -46.5t-39 -118.5v-145q-1 -135 140 -149z" />
    <glyph glyph-name="sterling" unicode="&#xa3;" horiz-adv-x="478" 
d="M411 0h-360v27q50 25 82 77t33 108q0 37 -22 114h-70v32h59q-35 107 -35 157q0 87 54.5 140.5t138.5 53.5q69 0 109 -25l-11 -30q-45 25 -98 25q-73 0 -117 -47.5t-44 -118.5q0 -42 37 -155h227v-32h-216q22 -67 21 -118q-1 -52 -27 -101t-65 -75h304v-32z" />
    <glyph glyph-name="currency" unicode="&#xa4;" horiz-adv-x="522" 
d="M407 156l-33 33q-46 -41 -113 -41q-66 0 -114 41l-31 -34l-21 21l31 33q-40 48 -40 114q0 63 40 113l-30 31l21 21l29 -31q50 42 115 42q69 0 114 -42l30 31l21 -22l-30 -31q41 -47 41 -112q0 -66 -42 -113l33 -33zM404 322q0 60 -42 102.5t-101 42.5q-60 0 -102 -42.5
t-42 -102.5q0 -59 42 -100t102 -41q59 0 101 41t42 100z" />
    <glyph glyph-name="yen" unicode="&#xa5;" horiz-adv-x="542" 
d="M286 0h-31v268h-143v32h143v41l-3 5h-140v32h120l-197 322h37l197 -322h1l200 322h37l-199 -322h124v-32h-144l-2 -4v-42h146v-32h-146v-268z" />
    <glyph glyph-name="section" unicode="&#xa7;" horiz-adv-x="566" 
d="M46 -8h32q5 -66 60 -112t143 -46q94 0 150.5 43.5t56.5 122.5q0 44 -22.5 76.5t-59 53t-81 37t-89 32.5t-82 34.5t-62 49t-26.5 70.5q-3 50 30 92q-32 40 -32 96q0 69 58 120t167 51q83 0 146 -30l-11 -30q-58 30 -133 30q-82 0 -138 -36t-57 -108q0 -52 43 -88.5
t105.5 -59t124.5 -46t106 -65t45 -100.5q0 -43 -24 -88q25 -38 25 -85q0 -91 -60 -147t-179 -56q-109 0 -171.5 57.5t-64.5 131.5zM473 117q1 4 5.5 15.5t6.5 22t2 22.5q-2 42 -29 72.5t-70.5 51t-89.5 36.5t-96.5 38.5t-81.5 48.5q-1 -1 -5 -7l-5 -7.5t-4.5 -8.5t-3.5 -9.5
t-3 -10.5t-1.5 -12t0.5 -14q3 -47 48 -79t101.5 -48t123.5 -45t102 -66z" />
    <glyph glyph-name="dieresis" unicode="&#xa8;" horiz-adv-x="523" 
d="M182 686q-9 0 -15 6.5t-6 15.5q0 8 6 14.5t15 6.5q8 0 14.5 -6.5t6.5 -14.5q0 -9 -6.5 -15.5t-14.5 -6.5zM341 687q-9 0 -15.5 6.5t-6.5 14.5q0 9 6.5 15.5t15.5 6.5q8 0 14.5 -6.5t6.5 -15.5q0 -8 -6.5 -14.5t-14.5 -6.5z" />
    <glyph glyph-name="copyright" unicode="&#xa9;" horiz-adv-x="859" 
d="M431 -127q-156 0 -266 108t-110 268q0 158 109 265t267 107q157 0 265 -107t108 -265q0 -160 -109 -268t-264 -108zM431 -95q88 0 165.5 42.5t126 122.5t48.5 179q0 143 -99.5 242t-240.5 99t-241.5 -96.5t-100.5 -244.5q0 -150 101.5 -247t240.5 -97zM594 175h35
q-16 -72 -70 -115.5t-124 -43.5q-99 0 -156.5 65t-57.5 166q0 96 57 163.5t155 67.5q73 0 128 -43t67 -112h-34q-10 47 -51.5 84.5t-108.5 37.5q-87 0 -133 -58.5t-46 -137.5q0 -81 44.5 -140.5t135.5 -59.5q64 0 108 38.5t51 87.5z" />
    <glyph glyph-name="ordfeminine" unicode="&#xaa;" horiz-adv-x="384" 
d="M319 555v-164q-48 -8 -82 -10.5t-72 1.5t-61 18t-38.5 44t-15.5 75q0 84 66 105.5t172 -47.5q0 56 -32 80.5t-105 26.5l2 25q98 0 132 -37.5t34 -116.5zM288 415v131q-52 38 -99 50.5t-78.5 -7.5t-31.5 -76q0 -141 209 -98z" />
    <glyph glyph-name="guillemotleft" unicode="&#xab;" horiz-adv-x="551" 
d="M235 80l-187 187v1l187 187l22 -22l-165 -165l164 -166zM455 80l-187 187v1l187 187l21 -22l-165 -165l165 -166z" />
    <glyph glyph-name="uni00AD" unicode="&#xad;" horiz-adv-x="410" 
d="M365 381h-320v32h320v-32z" />
    <glyph glyph-name="registered" unicode="&#xae;" horiz-adv-x="859" 
d="M617 39h-38l-121 190h-132v-190h-32v437h168q67 0 106 -35t39 -89t-32 -84t-82 -36zM326 260h129q120 0 120 93q0 50 -35.5 71.5t-82.5 21.5h-131v-186zM431 -127q-156 0 -266 108t-110 268q0 158 109 265t267 107q157 0 265 -107t108 -265q0 -160 -109 -268t-264 -108z
M431 -95q141 0 240.5 97.5t99.5 246.5q0 145 -99.5 242.5t-240.5 97.5q-143 0 -243 -96.5t-100 -243.5q0 -150 101 -247t242 -97z" />
    <glyph glyph-name="macron" unicode="&#xaf;" horiz-adv-x="523" 
d="M372 644h-221v33h221v-33z" />
    <glyph glyph-name="degree" unicode="&#xb0;" horiz-adv-x="382" 
d="M191 421q-60 0 -102 42t-42 102t42 102t102 42t102 -42t42 -102t-42 -102t-102 -42zM305 565q0 45 -31.5 79.5t-82.5 34.5t-82.5 -34.5t-31.5 -79.5t31.5 -79.5t82.5 -34.5t82.5 34.5t31.5 79.5z" />
    <glyph glyph-name="plusminus" unicode="&#xb1;" horiz-adv-x="475" 
d="M396 237h-320v32h149v112h-145v32h145v132h32v-132h143v-32h-143v-112h139v-32z" />
    <glyph glyph-name="acute" unicode="&#xb4;" horiz-adv-x="522" 
d="M249 588h-28l54 124q10 23 30 15q10 -4 12.5 -14t-3.5 -19z" />
    <glyph glyph-name="mu" unicode="&#xb5;" horiz-adv-x="535" 
d="M477 18l-18 -21q-8 0 -20.5 14t-15.5 37q-45 -62 -153 -59q-17 0 -34 3t-30.5 6.5t-27 9.5t-22.5 11t-19.5 12l-15 10t-11.5 9l-7 6v-261l-32 4v702h32v-405q7 -9 24.5 -24t59.5 -34t87 -20q59 -1 102 26.5t43 97.5v361l32 7v-445q1 -38 26 -47z" />
    <glyph glyph-name="paragraph" unicode="&#xb6;" horiz-adv-x="680" 
d="M600 -199h-31v917h-93v-916h-31v444h-226q-32 0 -58 6.5t-44 20t-31.5 28t-21 38.5t-12.5 42t-7 48t-2.5 47t-0.5 48q0 100 46 163t140 63h372v-949z" />
    <glyph glyph-name="cedilla" unicode="&#xb8;" horiz-adv-x="523" 
d="M153 -191l15 32q37 -24 81 -24q36 0 62.5 15.5t26.5 46.5q1 32 -29.5 44.5t-71.5 -3.5l-38 -14l-10 16l61 78h28l-42 -55q12 6 38 8q38 3 66.5 -15.5t28.5 -58.5q0 -48 -37 -68.5t-87 -20.5q-40 0 -92 19z" />
    <glyph glyph-name="guillemotright" unicode="&#xbb;" horiz-adv-x="552" 
d="M504 267l-187 -187l-21 22l164 166l-165 165l22 22l187 -187v-1zM284 267l-187 -187l-21 22l165 166l-165 165l21 22l187 -187v-1z" />
    <glyph glyph-name="questiondown" unicode="&#xbf;" horiz-adv-x="458" 
d="M378 177h32q0 -75 -46.5 -126t-131.5 -51q-52 0 -94 26.5t-63.5 67t-18 93.5t36.5 101q19 27 48 56.5t45.5 47.5t30 53.5t13.5 84.5v60h30v-75q0 -46 -15.5 -83.5t-34.5 -58t-46.5 -49t-41.5 -48.5q-28 -40 -32.5 -84t11.5 -79.5t51 -58.5t80 -23q63 0 104.5 38.5
t41.5 107.5zM244 666q-8 0 -14.5 6.5t-6.5 15.5q0 8 6.5 14.5t14.5 6.5q9 0 15.5 -6.5t6.5 -14.5q0 -9 -6.5 -15.5t-15.5 -6.5z" />
    <glyph glyph-name="Agrave" unicode="&#xc0;" horiz-adv-x="532" 
d="M519 0h-35l-91 268h-254l-92 -268h-33l238 700h27zM383 300l-118 344l-116 -344h234zM278 731h-28l-65 105q-6 9 -3.5 19.5t12.5 14.5q20 8 30 -15z" />
    <glyph glyph-name="Aacute" unicode="&#xc1;" horiz-adv-x="532" 
d="M519 0h-35l-91 268h-254l-92 -268h-33l238 700h27zM383 300l-118 344l-116 -344h234zM272 731h-28l54 124q10 23 30 15q10 -4 12.5 -14t-3.5 -19z" />
    <glyph glyph-name="Acircumflex" unicode="&#xc2;" horiz-adv-x="532" 
d="M519 0h-35l-91 268h-254l-92 -268h-33l238 700h27zM383 300l-118 344l-116 -344h234zM386 748l-119 119l-123 -119l-24 24l148 141l142 -141z" />
    <glyph glyph-name="Atilde" unicode="&#xc3;" horiz-adv-x="532" 
d="M519 0h-35l-91 268h-254l-92 -268h-33l238 700h27zM383 300l-118 344l-116 -344h234zM408 815l16 -24q-25 -25 -49.5 -34.5t-46 -6t-42.5 12t-41.5 17.5t-41 12t-43.5 -6.5t-46 -34.5l-16 24q35 39 70.5 47t64.5 -3.5t57 -24.5t59 -11t59 32z" />
    <glyph glyph-name="Adieresis" unicode="&#xc4;" horiz-adv-x="532" 
d="M519 0h-35l-91 268h-254l-92 -268h-33l238 700h27zM383 300l-118 344l-116 -344h234z" />
    <glyph glyph-name="Aring" unicode="&#xc5;" horiz-adv-x="530" 
d="M518 0h-35l-91 268h-254l-92 -268h-33l229 673q-37 8 -62 37.5t-25 68.5q0 44 32 75.5t76 31.5t76 -31.5t32 -75.5q0 -38 -24 -68t-60 -38zM382 300l-118 344l-116 -344h234zM278 700v-1q27 6 45.5 28.5t18.5 51.5q0 32 -23 55.5t-56 23.5t-56.5 -23.5t-23.5 -55.5
q0 -30 19 -52.5t48 -27.5l1 1h27z" />
    <glyph glyph-name="AE" unicode="&#xc6;" horiz-adv-x="755" 
d="M701 0h-333l1 268h-192l-140 -268h-35l366 700h335v-31h-302v-256h215l-11 -32h-204v-351h300v-30zM369 300v338l-176 -338h176z" />
    <glyph glyph-name="Ccedilla" unicode="&#xc7;" horiz-adv-x="468" 
d="M424 51l8 -28q-93 -36 -175 -33l-34 -45q12 6 38 8q38 3 66.5 -15.5t28.5 -58.5q0 -48 -37 -68.5t-87 -20.5q-40 0 -92 19l15 32q37 -24 81 -24q36 0 62.5 15.5t26.5 46.5q1 32 -29.5 44.5t-71.5 -3.5l-38 -14l-10 16l54 70q-72 8 -115.5 54t-43.5 137v321q0 76 21.5 115
t65.5 66q50 28 121.5 25t127.5 -33l-11 -24q-66 27 -123 27q-21 0 -40 -2.5t-44 -13t-43 -27.5t-30.5 -49t-12.5 -75v-328q0 -118 89 -153t232 19z" />
    <glyph glyph-name="Egrave" unicode="&#xc8;" horiz-adv-x="473" 
d="M419 0h-332v700h334v-31h-302v-256h215l-11 -32h-204v-351h300v-30zM279 730h-28l-65 105q-6 9 -3.5 19.5t12.5 14.5q20 8 30 -15z" />
    <glyph glyph-name="Eacute" unicode="&#xc9;" horiz-adv-x="473" 
d="M419 0h-332v700h334v-31h-302v-256h215l-11 -32h-204v-351h300v-30zM274 730h-28l54 124q10 23 30 15q10 -4 12.5 -14t-3.5 -19z" />
    <glyph glyph-name="Ecircumflex" unicode="&#xca;" horiz-adv-x="473" 
d="M419 0h-332v700h334v-31h-302v-256h215l-11 -32h-204v-351h300v-30zM369 748l-119 119l-123 -119l-24 24l148 141l142 -141z" />
    <glyph glyph-name="Edieresis" unicode="&#xcb;" horiz-adv-x="473" 
d="M419 0h-332v700h334v-31h-302v-256h215l-11 -32h-204v-351h300v-30z" />
    <glyph glyph-name="Igrave" unicode="&#xcc;" horiz-adv-x="227" 
d="M140 0h-32v668l-80 2v30h112v-700zM135 730h-28l-65 105q-6 9 -3.5 19.5t12.5 14.5q20 8 30 -15z" />
    <glyph glyph-name="Iacute" unicode="&#xcd;" horiz-adv-x="227" 
d="M140 0h-32v668l-80 2v30h112v-700zM138 730h-28l54 124q10 23 30 15q10 -4 12.5 -14t-3.5 -19z" />
    <glyph glyph-name="Icircumflex" unicode="&#xce;" horiz-adv-x="227" 
d="M140 0h-32v668l-80 2v30h112v-700zM232 748l-119 119l-123 -119l-24 24l148 141l142 -141z" />
    <glyph glyph-name="Idieresis" unicode="&#xcf;" horiz-adv-x="227" 
d="M140 0h-32v668l-80 2v30h112v-700z" />
    <glyph glyph-name="Eth" unicode="&#xd0;" horiz-adv-x="610" 
d="M304 0h-208v506h-49v32h49v163h188q93 0 150.5 -44t74.5 -119h65v-32h-60q2 -22 2 -32v-274q0 -200 -212 -200zM484 206v268q0 12 -2 32h-354v-476h164q28 0 49 2t50 12.5t47.5 28t32 52t13.5 81.5zM294 669h-166v-131h348q-17 66 -67.5 98.5t-114.5 32.5z" />
    <glyph glyph-name="Ntilde" unicode="&#xd1;" horiz-adv-x="666" 
d="M579 0h-31l-430 644v-644h-31v700h31l430 -643v643h31v-700zM477 815l16 -24q-25 -25 -49.5 -34.5t-46 -6t-42.5 12t-41.5 17.5t-41 12t-43.5 -6.5t-46 -34.5l-16 24q35 39 70.5 47t64.5 -3.5t57 -24.5t59 -11t59 32z" />
    <glyph glyph-name="Ograve" unicode="&#xd2;" horiz-adv-x="560" 
d="M490 506v-321q0 -101 -61.5 -148.5t-147.5 -47.5t-148.5 47.5t-62.5 148.5v322q0 103 56.5 156t155.5 53t153.5 -56t54.5 -154zM458 185v327q0 81 -46 126.5t-132 45.5t-132 -45.5t-46 -127.5v-326q0 -82 51.5 -123.5t126.5 -41.5q77 0 127.5 39.5t50.5 125.5zM299 730
h-28l-65 105q-6 9 -3.5 19.5t12.5 14.5q20 8 30 -15z" />
    <glyph glyph-name="Oacute" unicode="&#xd3;" horiz-adv-x="560" 
d="M490 506v-321q0 -101 -61.5 -148.5t-147.5 -47.5t-148.5 47.5t-62.5 148.5v322q0 103 56.5 156t155.5 53t153.5 -56t54.5 -154zM458 185v327q0 81 -46 126.5t-132 45.5t-132 -45.5t-46 -127.5v-326q0 -82 51.5 -123.5t126.5 -41.5q77 0 127.5 39.5t50.5 125.5zM292 730
h-28l54 124q10 23 30 15q10 -4 12.5 -14t-3.5 -19z" />
    <glyph glyph-name="Ocircumflex" unicode="&#xd4;" horiz-adv-x="560" 
d="M490 506v-321q0 -101 -61.5 -148.5t-147.5 -47.5t-148.5 47.5t-62.5 148.5v322q0 103 56.5 156t155.5 53t153.5 -56t54.5 -154zM458 185v327q0 81 -46 126.5t-132 45.5t-132 -45.5t-46 -127.5v-326q0 -82 51.5 -123.5t126.5 -41.5q77 0 127.5 39.5t50.5 125.5zM399 748
l-119 119l-123 -119l-24 24l148 141l142 -141z" />
    <glyph glyph-name="Otilde" unicode="&#xd5;" horiz-adv-x="560" 
d="M490 506v-321q0 -101 -61.5 -148.5t-147.5 -47.5t-148.5 47.5t-62.5 148.5v322q0 103 56.5 156t155.5 53t153.5 -56t54.5 -154zM458 185v327q0 81 -46 126.5t-132 45.5t-132 -45.5t-46 -127.5v-326q0 -82 51.5 -123.5t126.5 -41.5q77 0 127.5 39.5t50.5 125.5zM428 815
l16 -24q-25 -25 -49.5 -34.5t-46 -6t-42.5 12t-41.5 17.5t-41 12t-43.5 -6.5t-46 -34.5l-16 24q35 39 70.5 47t64.5 -3.5t57 -24.5t59 -11t59 32z" />
    <glyph glyph-name="Odieresis" unicode="&#xd6;" horiz-adv-x="560" 
d="M490 506v-321q0 -101 -61.5 -148.5t-147.5 -47.5t-148.5 47.5t-62.5 148.5v322q0 103 56.5 156t155.5 53t153.5 -56t54.5 -154zM458 185v327q0 81 -46 126.5t-132 45.5t-132 -45.5t-46 -127.5v-326q0 -82 51.5 -123.5t126.5 -41.5q77 0 127.5 39.5t50.5 125.5z" />
    <glyph glyph-name="multiply" unicode="&#xd7;" horiz-adv-x="388" 
d="M327 197l-25 -21l-108 130l-109 -131l-24 21l113 134l-114 139l23 20l112 -134l110 134l23 -21l-113 -136z" />
    <glyph glyph-name="Oslash" unicode="&#xd8;" horiz-adv-x="562" 
d="M130 -114h-34l50 143q-72 53 -72 156v322q0 103 56.5 156t155.5 53q50 0 93 -16l41 117h33l-46 -132q87 -52 87 -179v-321q0 -101 -61.5 -148.5t-147.5 -47.5q-62 0 -111 23zM462 185v327q0 97 -66 142l-212 -611q43 -23 100 -23q77 0 127.5 39.5t50.5 125.5zM157 62
l211 607q-40 15 -84 15q-86 0 -132 -45.5t-46 -127.5v-326q0 -80 51 -123z" />
    <glyph glyph-name="Ugrave" unicode="&#xd9;" horiz-adv-x="587" 
d="M472 182v519h32v-515q0 -53 -18.5 -92t-50 -60t-66.5 -31t-75 -10t-75.5 10t-67 31t-50 60t-18.5 92v515h32v-519q0 -81 53.5 -120t126.5 -39q71 0 124 39.5t53 119.5zM310 730h-28l-65 105q-6 9 -3.5 19.5t12.5 14.5q20 8 30 -15z" />
    <glyph glyph-name="Uacute" unicode="&#xda;" horiz-adv-x="587" 
d="M472 182v519h32v-515q0 -53 -18.5 -92t-50 -60t-66.5 -31t-75 -10t-75.5 10t-67 31t-50 60t-18.5 92v515h32v-519q0 -81 53.5 -120t126.5 -39q71 0 124 39.5t53 119.5zM299 731h-28l54 124q10 23 30 15q10 -4 12.5 -14t-3.5 -19z" />
    <glyph glyph-name="Ucircumflex" unicode="&#xdb;" horiz-adv-x="587" 
d="M472 182v519h32v-515q0 -53 -18.5 -92t-50 -60t-66.5 -31t-75 -10t-75.5 10t-67 31t-50 60t-18.5 92v515h32v-519q0 -81 53.5 -120t126.5 -39q71 0 124 39.5t53 119.5zM418 748l-119 119l-123 -119l-24 24l148 141l142 -141z" />
    <glyph glyph-name="Udieresis" unicode="&#xdc;" horiz-adv-x="587" 
d="M472 182v519h32v-515q0 -53 -18.5 -92t-50 -60t-66.5 -31t-75 -10t-75.5 10t-67 31t-50 60t-18.5 92v515h32v-519q0 -81 53.5 -120t126.5 -39q71 0 124 39.5t53 119.5z" />
    <glyph glyph-name="Yacute" unicode="&#xdd;" horiz-adv-x="576" 
d="M388 -7l-8 25q17 6 25 10.5t24 18.5t23.5 40.5t7.5 64.5v173q-29 -43 -81.5 -61.5t-100.5 -18.5q-106 0 -167.5 52.5t-61.5 155.5v247h32v-247q0 -85 50.5 -130.5t146.5 -45.5q73 0 122.5 35t59.5 91v297h32v-551q0 -134 -104 -156zM279 731h-28l54 124q10 23 30 15
q10 -4 12.5 -14t-3.5 -19z" />
    <glyph glyph-name="Thorn" unicode="&#xde;" horiz-adv-x="500" 
d="M119 0h-32v700h32v-274q56 84 156 84q92 0 141 -55.5t49 -139.5q0 -93 -54 -146t-134 -53q-46 0 -90 23.5t-68 77.5v-217zM120 326q0 -85 44.5 -132t113.5 -47q65 0 110 43t45 126q0 82 -47 123.5t-107 41.5q-62 0 -110 -40.5t-49 -114.5z" />
    <glyph glyph-name="germandbls" unicode="&#xdf;" horiz-adv-x="496" 
d="M164 37l18 29q29 -28 78.5 -39.5t97.5 3t66 56.5q37 91 -49 167q-17 15 -45 37t-47.5 37t-40.5 37t-30 42t-8.5 46.5t16.5 54.5q53 -2 67 45q13 44 -16 83q-25 34 -68 35q-101 0 -101 -129v-541h-32v537q0 164 133 164q37 0 65 -19t40 -47t13 -58t-14.5 -55t-43.5 -35
h-18q-9 -18 -10 -35.5t7 -33t19 -29t29 -28.5t34 -27.5t37 -28.5t36 -29q104 -90 58 -203q-21 -51 -77 -71t-115.5 -9t-98.5 44z" />
    <glyph glyph-name="agrave" unicode="&#xe0;" horiz-adv-x="490" 
d="M428 298v-298q-152 -14 -213 -8q-164 18 -172 163v14v83q0 97 72 132q54 26 138 14.5t143 -52.5q0 138 -178 136l2 27q38 0 68.5 -4.5t51.5 -15t37 -21.5t25 -29t15 -31.5t8 -36.5t2.5 -36t0.5 -37zM396 28v288q-37 23 -88.5 38.5t-105 18t-90.5 -28.5t-37 -95v-87
q0 -44 18.5 -74.5t47.5 -45.5t73 -20.5t86.5 -3t95.5 9.5zM257 538h-28l-65 105q-6 9 -3.5 19.5t12.5 14.5q20 8 30 -15z" />
    <glyph glyph-name="aacute" unicode="&#xe1;" horiz-adv-x="490" 
d="M428 298v-298q-152 -14 -213 -8q-164 18 -172 163v14v83q0 97 72 132q54 26 138 14.5t143 -52.5q0 138 -178 136l2 27q38 0 68.5 -4.5t51.5 -15t37 -21.5t25 -29t15 -31.5t8 -36.5t2.5 -36t0.5 -37zM396 28v288q-37 23 -88.5 38.5t-105 18t-90.5 -28.5t-37 -95v-87
q0 -44 18.5 -74.5t47.5 -45.5t73 -20.5t86.5 -3t95.5 9.5zM251 538h-28l54 124q10 23 30 15q10 -4 12.5 -14t-3.5 -19z" />
    <glyph glyph-name="acircumflex" unicode="&#xe2;" horiz-adv-x="490" 
d="M428 298v-298q-152 -14 -213 -8q-164 18 -172 163v14v83q0 97 72 132q54 26 138 14.5t143 -52.5q0 138 -178 136l2 27q38 0 68.5 -4.5t51.5 -15t37 -21.5t25 -29t15 -31.5t8 -36.5t2.5 -36t0.5 -37zM396 28v288q-37 23 -88.5 38.5t-105 18t-90.5 -28.5t-37 -95v-87
q0 -44 18.5 -74.5t47.5 -45.5t73 -20.5t86.5 -3t95.5 9.5zM360 555l-119 119l-123 -119l-24 24l148 141l142 -141z" />
    <glyph glyph-name="atilde" unicode="&#xe3;" horiz-adv-x="490" 
d="M428 298v-298q-152 -14 -213 -8q-164 18 -172 163v14v83q0 97 72 132q54 26 138 14.5t143 -52.5q0 138 -178 136l2 27q38 0 68.5 -4.5t51.5 -15t37 -21.5t25 -29t15 -31.5t8 -36.5t2.5 -36t0.5 -37zM396 28v288q-37 23 -88.5 38.5t-105 18t-90.5 -28.5t-37 -95v-87
q0 -44 18.5 -74.5t47.5 -45.5t73 -20.5t86.5 -3t95.5 9.5zM388 627l16 -24q-25 -25 -49.5 -34.5t-46 -6t-42.5 12t-41.5 17.5t-41 12t-43.5 -6.5t-46 -34.5l-16 24q35 39 70.5 47t64.5 -3.5t57 -24.5t59 -11t59 32z" />
    <glyph glyph-name="adieresis" unicode="&#xe4;" horiz-adv-x="490" 
d="M428 298v-298q-152 -14 -213 -8q-164 18 -172 163v14v83q0 97 72 132q54 26 138 14.5t143 -52.5q0 138 -178 136l2 27q38 0 68.5 -4.5t51.5 -15t37 -21.5t25 -29t15 -31.5t8 -36.5t2.5 -36t0.5 -37zM396 28v288q-37 23 -88.5 38.5t-105 18t-90.5 -28.5t-37 -95v-87
q0 -44 18.5 -74.5t47.5 -45.5t73 -20.5t86.5 -3t95.5 9.5zM160 561q-9 0 -15 6.5t-6 15.5q0 8 6 14.5t15 6.5q8 0 14.5 -6.5t6.5 -14.5q0 -9 -6.5 -15.5t-14.5 -6.5zM319 562q-9 0 -15.5 6.5t-6.5 14.5q0 9 6.5 15.5t15.5 6.5q8 0 14.5 -6.5t6.5 -15.5q0 -8 -6.5 -14.5
t-14.5 -6.5z" />
    <glyph glyph-name="aring" unicode="&#xe5;" horiz-adv-x="490" 
d="M428 298v-298q-152 -14 -213 -8q-164 18 -172 163v14v83q0 97 72 132q54 26 138 14.5t143 -52.5q0 135 -170 136h-5h-3q-44 4 -74.5 36.5t-30.5 76.5q0 47 33.5 80t79.5 33t79.5 -33t33.5 -80q0 -57 -48 -92q39 -7 66.5 -23.5t41 -34t20.5 -47.5t8 -48t1 -52zM396 28v288
q-37 23 -88.5 38.5t-105 18t-90.5 -28.5t-37 -95v-87q0 -44 18.5 -74.5t47.5 -45.5t73 -20.5t86.5 -3t95.5 9.5zM226 511q34 0 58.5 24.5t24.5 59.5t-24.5 59t-58.5 24q-35 0 -59.5 -24.5t-24.5 -58.5q0 -35 25 -59.5t59 -24.5z" />
    <glyph glyph-name="ae" unicode="&#xe6;" horiz-adv-x="804" 
d="M719 61l14 -26q-74 -45 -165 -47q-96 -3 -140 50v-38q-152 -14 -213 -8q-164 18 -172 163v14v83q0 97 72 132q54 26 138 14.5t143 -52.5q0 138 -178 136l2 27q158 0 193 -92q43 93 169 93q83 0 129.5 -44.5t46.5 -123.5v-107l-328 -17v-85q0 -62 43.5 -92.5t110 -24
t135.5 44.5zM396 28v288q-37 23 -88.5 38.5t-105 18t-90.5 -28.5t-37 -95v-87q0 -44 18.5 -74.5t47.5 -45.5t73 -20.5t86.5 -3t95.5 9.5zM726 265v80q0 73 -44 104.5t-101 31.5q-63 0 -107 -34.5t-44 -107.5v-90z" />
    <glyph glyph-name="ccedilla" unicode="&#xe7;" horiz-adv-x="416" 
d="M368 34l7 -28q-80 -22 -157 -14l-35 -47q12 6 38 8q38 3 66.5 -15.5t28.5 -58.5q0 -48 -37 -68.5t-87 -20.5q-40 0 -92 19l15 32q37 -24 81 -24q36 0 62.5 15.5t26.5 46.5q1 32 -29.5 44.5t-71.5 -3.5l-38 -14l-10 16l57 73q-18 3 -28 7q-59 20 -85.5 61.5t-26.5 116.5
v128q0 71 28 119t74 67t103 15t115 -31l-10 -27q-48 23 -97 27.5t-89.5 -9.5t-66 -54.5t-25.5 -100.5v-145q0 -56 25 -91.5t67.5 -47.5t90 -11t100.5 15z" />
    <glyph glyph-name="egrave" unicode="&#xe8;" horiz-adv-x="462" 
d="M377 61l14 -26q-74 -45 -165 -47q-78 -2 -124 34.5t-46 111.5v205q0 81 50.5 126t133.5 45t129.5 -44.5t46.5 -123.5v-107l-328 -17v-85q0 -62 43.5 -92.5t110 -24t135.5 44.5zM384 265v80q0 73 -44 104.5t-101 31.5q-63 0 -107 -34.5t-44 -107.5v-90zM262 538h-28
l-65 105q-6 9 -3.5 19.5t12.5 14.5q20 8 30 -15z" />
    <glyph glyph-name="eacute" unicode="&#xe9;" horiz-adv-x="462" 
d="M377 61l14 -26q-74 -45 -165 -47q-78 -2 -124 34.5t-46 111.5v205q0 81 50.5 126t133.5 45t129.5 -44.5t46.5 -123.5v-107l-328 -17v-85q0 -62 43.5 -92.5t110 -24t135.5 44.5zM384 265v80q0 73 -44 104.5t-101 31.5q-63 0 -107 -34.5t-44 -107.5v-90zM246 538h-28
l54 124q10 23 30 15q10 -4 12.5 -14t-3.5 -19z" />
    <glyph glyph-name="ecircumflex" unicode="&#xea;" horiz-adv-x="462" 
d="M377 61l14 -26q-74 -45 -165 -47q-78 -2 -124 34.5t-46 111.5v205q0 81 50.5 126t133.5 45t129.5 -44.5t46.5 -123.5v-107l-328 -17v-85q0 -62 43.5 -92.5t110 -24t135.5 44.5zM384 265v80q0 73 -44 104.5t-101 31.5q-63 0 -107 -34.5t-44 -107.5v-90zM351 555l-119 119
l-123 -119l-24 24l148 141l142 -141z" />
    <glyph glyph-name="edieresis" unicode="&#xeb;" horiz-adv-x="462" 
d="M377 61l14 -26q-74 -45 -165 -47q-78 -2 -124 34.5t-46 111.5v205q0 81 50.5 126t133.5 45t129.5 -44.5t46.5 -123.5v-107l-328 -17v-85q0 -62 43.5 -92.5t110 -24t135.5 44.5zM384 265v80q0 73 -44 104.5t-101 31.5q-63 0 -107 -34.5t-44 -107.5v-90z" />
    <glyph glyph-name="igrave" unicode="&#xec;" 
d="M100 538h-28l-65 105q-6 9 -3.5 19.5t12.5 14.5q20 8 30 -15zM102 0h-32v501h32v-501z" />
    <glyph glyph-name="iacute" unicode="&#xed;" 
d="M94 538h-28l54 124q10 23 30 15q10 -4 12.5 -14t-3.5 -19zM102 0h-32v501h32v-501z" />
    <glyph glyph-name="icircumflex" unicode="&#xee;" 
d="M207 555l-119 119l-123 -119l-24 24l148 141l142 -141zM102 0h-32v501h32v-501z" />
    <glyph glyph-name="idieresis" unicode="&#xef;" 
d="M102 0h-32v501h32v-501zM7 561q-9 0 -15 6.5t-6 15.5q0 8 6 14.5t15 6.5q8 0 14.5 -6.5t6.5 -14.5q0 -9 -6.5 -15.5t-14.5 -6.5zM166 562q-9 0 -15.5 6.5t-6.5 14.5q0 9 6.5 15.5t15.5 6.5q8 0 14.5 -6.5t6.5 -15.5q0 -8 -6.5 -14.5t-14.5 -6.5z" />
    <glyph glyph-name="eth" unicode="&#xf0;" horiz-adv-x="257" 
 />
    <glyph glyph-name="ntilde" unicode="&#xf1;" horiz-adv-x="504" 
d="M439 0h-32v346q0 57 -33 90.5t-81 40t-99.5 -2t-91.5 -30.5v-444h-32v501h32v-26q55 31 130 34.5t122 -19.5q85 -39 85 -144v-346zM394 627l16 -24q-25 -25 -49.5 -34.5t-46 -6t-42.5 12t-41.5 17.5t-41 12t-43.5 -6.5t-46 -34.5l-16 24q35 39 70.5 47t64.5 -3.5
t57 -24.5t59 -11t59 32z" />
    <glyph glyph-name="ograve" unicode="&#xf2;" horiz-adv-x="477" 
d="M425 316v-132q0 -84 -46 -139t-139 -55t-140.5 55.5t-47.5 138.5v132q0 95 48.5 145.5t139.5 50.5q87 0 136 -52.5t49 -143.5zM393 180v139q0 82 -43 122.5t-110 40.5q-70 0 -113 -40.5t-43 -122.5v-139q0 -68 39 -114.5t117 -46.5q76 0 114.5 45.5t38.5 115.5zM257 538
h-28l-65 105q-6 9 -3.5 19.5t12.5 14.5q20 8 30 -15z" />
    <glyph glyph-name="oacute" unicode="&#xf3;" horiz-adv-x="477" 
d="M425 316v-132q0 -84 -46 -139t-139 -55t-140.5 55.5t-47.5 138.5v132q0 95 48.5 145.5t139.5 50.5q87 0 136 -52.5t49 -143.5zM393 180v139q0 82 -43 122.5t-110 40.5q-70 0 -113 -40.5t-43 -122.5v-139q0 -68 39 -114.5t117 -46.5q76 0 114.5 45.5t38.5 115.5zM241 538
h-28l54 124q10 23 30 15q10 -4 12.5 -14t-3.5 -19z" />
    <glyph glyph-name="ocircumflex" unicode="&#xf4;" horiz-adv-x="477" 
d="M425 316v-132q0 -84 -46 -139t-139 -55t-140.5 55.5t-47.5 138.5v132q0 95 48.5 145.5t139.5 50.5q87 0 136 -52.5t49 -143.5zM393 180v139q0 82 -43 122.5t-110 40.5q-70 0 -113 -40.5t-43 -122.5v-139q0 -68 39 -114.5t117 -46.5q76 0 114.5 45.5t38.5 115.5zM361 555
l-119 119l-123 -119l-24 24l148 141l142 -141z" />
    <glyph glyph-name="otilde" unicode="&#xf5;" horiz-adv-x="477" 
d="M425 316v-132q0 -84 -46 -139t-139 -55t-140.5 55.5t-47.5 138.5v132q0 95 48.5 145.5t139.5 50.5q87 0 136 -52.5t49 -143.5zM393 180v139q0 82 -43 122.5t-110 40.5q-70 0 -113 -40.5t-43 -122.5v-139q0 -68 39 -114.5t117 -46.5q76 0 114.5 45.5t38.5 115.5zM385 627
l16 -24q-25 -25 -49.5 -34.5t-46 -6t-42.5 12t-41.5 17.5t-41 12t-43.5 -6.5t-46 -34.5l-16 24q35 39 70.5 47t64.5 -3.5t57 -24.5t59 -11t59 32z" />
    <glyph glyph-name="odieresis" unicode="&#xf6;" horiz-adv-x="477" 
d="M425 316v-132q0 -84 -46 -139t-139 -55t-140.5 55.5t-47.5 138.5v132q0 95 48.5 145.5t139.5 50.5q87 0 136 -52.5t49 -143.5zM393 180v139q0 82 -43 122.5t-110 40.5q-70 0 -113 -40.5t-43 -122.5v-139q0 -68 39 -114.5t117 -46.5q76 0 114.5 45.5t38.5 115.5z" />
    <glyph glyph-name="divide" unicode="&#xf7;" horiz-adv-x="488" 
d="M404 371h-320v32h320v-32zM247 246q-9 0 -15.5 6.5t-6.5 14.5q0 9 6.5 15.5t15.5 6.5q8 0 14.5 -6.5t6.5 -15.5q0 -8 -6.5 -14.5t-14.5 -6.5zM247 479q-9 0 -15.5 6.5t-6.5 14.5q0 9 6.5 15.5t15.5 6.5q8 0 14.5 -6.5t6.5 -15.5q0 -8 -6.5 -14.5t-14.5 -6.5z" />
    <glyph glyph-name="oslash" unicode="&#xf8;" horiz-adv-x="480" 
d="M111 -114h-34l57 132q-81 51 -81 166v132q0 95 48.5 145.5t139.5 50.5q55 0 96 -23l66 154h33l-74 -171q64 -52 64 -156v-132q0 -84 -46 -139t-139 -55q-44 0 -80 14zM146 46l179 415q-37 21 -84 21q-70 0 -113 -40.5t-43 -122.5v-139q0 -91 61 -134zM394 180v139
q0 81 -45 123l-176 -411q28 -12 68 -12q76 0 114.5 45.5t38.5 115.5z" />
    <glyph glyph-name="ugrave" unicode="&#xf9;" horiz-adv-x="507" 
d="M437 0h-32l2 69q-51 -80 -155 -80q-188 0 -188 186v326h32v-329q0 -153 156 -153q68 0 110.5 37.5t42.5 105.5v339h32v-501zM276 538h-28l-65 105q-6 9 -3.5 19.5t12.5 14.5q20 8 30 -15z" />
    <glyph glyph-name="uacute" unicode="&#xfa;" horiz-adv-x="507" 
d="M437 0h-32l2 69q-51 -80 -155 -80q-188 0 -188 186v326h32v-329q0 -153 156 -153q68 0 110.5 37.5t42.5 105.5v339h32v-501zM253 538h-28l54 124q10 23 30 15q10 -4 12.5 -14t-3.5 -19z" />
    <glyph glyph-name="ucircumflex" unicode="&#xfb;" horiz-adv-x="507" 
d="M437 0h-32l2 69q-51 -80 -155 -80q-188 0 -188 186v326h32v-329q0 -153 156 -153q68 0 110.5 37.5t42.5 105.5v339h32v-501zM371 555l-119 119l-123 -119l-24 24l148 141l142 -141z" />
    <glyph glyph-name="udieresis" unicode="&#xfc;" horiz-adv-x="507" 
d="M437 0h-32l2 69q-51 -80 -155 -80q-188 0 -188 186v326h32v-329q0 -153 156 -153q68 0 110.5 37.5t42.5 105.5v339h32v-501z" />
    <glyph glyph-name="yacute" unicode="&#xfd;" horiz-adv-x="513" 
d="M333 -210l-9 27q84 25 84 120v137q-24 -46 -69.5 -66t-92.5 -20q-88 0 -135.5 47.5t-47.5 140.5v325h31v-335q0 -69 38 -108.5t114 -39.5q72 0 116.5 40t44.5 108v203q0 33 1 49t5 38t15 34t29 20l10 -24q-29 -18 -29 -83v-464q0 -61 -24 -96t-81 -53zM249 538h-28
l54 124q10 23 30 15q10 -4 12.5 -14t-3.5 -19z" />
    <glyph glyph-name="thorn" unicode="&#xfe;" horiz-adv-x="482" 
d="M102 0h-32v578h32v-152q56 84 156 84q92 0 141 -55.5t49 -139.5q0 -93 -54 -146t-134 -53q-46 0 -90 23.5t-68 77.5v-217zM103 326q0 -85 44.5 -132t113.5 -47q65 0 110 43t45 126q0 82 -47 123.5t-107 41.5q-62 0 -110 -40.5t-49 -114.5z" />
    <glyph glyph-name="ydieresis" unicode="&#xff;" horiz-adv-x="513" 
d="M333 -210l-9 27q84 25 84 120v137q-24 -46 -69.5 -66t-92.5 -20q-88 0 -135.5 47.5t-47.5 140.5v325h31v-335q0 -69 38 -108.5t114 -39.5q72 0 116.5 40t44.5 108v203q0 33 1 49t5 38t15 34t29 20l10 -24q-29 -18 -29 -83v-464q0 -61 -24 -96t-81 -53zM169 561
q-9 0 -15 6.5t-6 15.5q0 8 6 14.5t15 6.5q8 0 14.5 -6.5t6.5 -14.5q0 -9 -6.5 -15.5t-14.5 -6.5zM328 562q-9 0 -15.5 6.5t-6.5 14.5q0 9 6.5 15.5t15.5 6.5q8 0 14.5 -6.5t6.5 -15.5q0 -8 -6.5 -14.5t-14.5 -6.5z" />
    <glyph glyph-name="Amacron" unicode="&#x100;" horiz-adv-x="532" 
d="M519 0h-35l-91 268h-254l-92 -268h-33l238 700h27zM383 300l-118 344l-116 -344h234zM370 755h-217v33h217v-33z" />
    <glyph glyph-name="amacron" unicode="&#x101;" horiz-adv-x="490" 
d="M428 298v-298q-152 -14 -213 -8q-164 18 -172 163v14v83q0 97 72 132q54 26 138 14.5t143 -52.5q0 138 -178 136l2 27q38 0 68.5 -4.5t51.5 -15t37 -21.5t25 -29t15 -31.5t8 -36.5t2.5 -36t0.5 -37zM396 28v288q-37 23 -88.5 38.5t-105 18t-90.5 -28.5t-37 -95v-87
q0 -44 18.5 -74.5t47.5 -45.5t73 -20.5t86.5 -3t95.5 9.5zM351 563h-217v33h217v-33z" />
    <glyph glyph-name="Abreve" unicode="&#x102;" horiz-adv-x="532" 
d="M519 0h-35l-91 268h-254l-92 -268h-33l238 700h27zM383 300l-118 344l-116 -344h234zM380 848v-5q0 -47 -33 -80t-80 -33t-80 33t-33 80v5h29v-5q0 -31 23.5 -57.5t60.5 -26.5q36 0 60 26.5t24 57.5v5h29z" />
    <glyph glyph-name="abreve" unicode="&#x103;" horiz-adv-x="490" 
d="M428 298v-298q-152 -14 -213 -8q-164 18 -172 163v14v83q0 97 72 132q54 26 138 14.5t143 -52.5q0 138 -178 136l2 27q38 0 68.5 -4.5t51.5 -15t37 -21.5t25 -29t15 -31.5t8 -36.5t2.5 -36t0.5 -37zM396 28v288q-37 23 -88.5 38.5t-105 18t-90.5 -28.5t-37 -95v-87
q0 -44 18.5 -74.5t47.5 -45.5t73 -20.5t86.5 -3t95.5 9.5zM387 656v-5q0 -47 -33.5 -80t-79.5 -33t-79.5 33t-33.5 80v5h29v-5q0 -31 23.5 -57.5t60.5 -26.5q36 0 60 26.5t24 57.5v5h29z" />
    <glyph glyph-name="Aogonek" unicode="&#x104;" horiz-adv-x="532" 
d="M552 -139l23 -24q-32 -50 -96 -50q-17 0 -35.5 4.5t-38 25t-19.5 54.5q0 65 96 129h2l-91 268h-254l-92 -268h-33l238 700h27l240 -700h-1q-99 -73 -102 -127q-1 -25 17 -41t45 -16q46 0 74 45zM383 300l-118 344l-116 -344h234z" />
    <glyph glyph-name="aogonek" unicode="&#x105;" horiz-adv-x="490" 
d="M460 -139l23 -24q-32 -50 -96 -50q-17 0 -35.5 4.5t-38 25t-19.5 54.5q0 62 89 125q-47 -4 -79.5 -5.5t-76 0.5t-73 13.5t-57 30.5t-41 53t-13.5 81v83q0 97 72 132q54 26 138 14.5t143 -52.5q0 138 -178 136l2 27q38 0 68.5 -4.5t51.5 -15t37 -21.5t25 -29t15 -31.5
t8 -36.5t2.5 -36t0.5 -37v-298h-2q-99 -73 -102 -127q-1 -25 17 -41t45 -16q46 0 74 45zM396 28v288q-37 23 -88.5 38.5t-105 18t-90.5 -28.5t-37 -95v-87q0 -44 18.5 -74.5t47.5 -45.5t73 -20.5t86.5 -3t95.5 9.5z" />
    <glyph glyph-name="Cacute" unicode="&#x106;" horiz-adv-x="468" 
d="M424 51l8 -28q-49 -19 -98 -27.5t-97 -4t-84.5 24t-59 62t-22.5 105.5v321q0 76 21.5 115t65.5 66q50 28 121.5 25t127.5 -33l-11 -24q-66 27 -123 27q-21 0 -40 -2.5t-44 -13t-43 -27.5t-30.5 -49t-12.5 -75v-328q0 -118 89 -153t232 19zM267 734h-28l54 124
q10 23 30 15q10 -4 12.5 -14t-3.5 -19z" />
    <glyph glyph-name="cacute" unicode="&#x107;" horiz-adv-x="416" 
d="M368 34l7 -28q-120 -32 -210 -4q-59 20 -85.5 61.5t-26.5 116.5v128q0 71 28 119t74 67t103 15t115 -31l-10 -27q-48 23 -97 27.5t-89.5 -9.5t-66 -54.5t-25.5 -100.5v-145q0 -56 25 -91.5t67.5 -47.5t90 -11t100.5 15zM212 538h-28l54 124q10 23 30 15q10 -4 12.5 -14
t-3.5 -19z" />
    <glyph glyph-name="Ccircumflex" unicode="&#x108;" horiz-adv-x="468" 
d="M402 748l-119 119l-123 -119l-24 24l148 141l142 -141zM424 51l8 -28q-49 -19 -98 -27.5t-97 -4t-84.5 24t-59 62t-22.5 105.5v321q0 76 21.5 115t65.5 66q50 28 121.5 25t127.5 -33l-11 -24q-66 27 -123 27q-21 0 -40 -2.5t-44 -13t-43 -27.5t-30.5 -49t-12.5 -75v-328
q0 -118 89 -153t232 19z" />
    <glyph glyph-name="ccircumflex" unicode="&#x109;" horiz-adv-x="416" 
d="M368 34l7 -28q-120 -32 -210 -4q-59 20 -85.5 61.5t-26.5 116.5v128q0 71 28 119t74 67t103 15t115 -31l-10 -27q-48 23 -97 27.5t-89.5 -9.5t-66 -54.5t-25.5 -100.5v-145q0 -56 25 -91.5t67.5 -47.5t90 -11t100.5 15zM360 556l-119 119l-123 -119l-24 24l148 141
l142 -141z" />
    <glyph glyph-name="Cdotaccent" unicode="&#x10a;" horiz-adv-x="468" 
d="M424 51l8 -28q-49 -19 -98 -27.5t-97 -4t-84.5 24t-59 62t-22.5 105.5v321q0 76 21.5 115t65.5 66q50 28 121.5 25t127.5 -33l-11 -24q-66 27 -123 27q-21 0 -40 -2.5t-44 -13t-43 -27.5t-30.5 -49t-12.5 -75v-328q0 -118 89 -153t232 19zM271 756q-9 0 -15 6t-6 15
q0 8 6 14t15 6q8 0 14 -6t6 -14q0 -9 -6 -15t-14 -6z" />
    <glyph glyph-name="cdotaccent" unicode="&#x10b;" horiz-adv-x="416" 
d="M368 34l7 -28q-120 -32 -210 -4q-59 20 -85.5 61.5t-26.5 116.5v128q0 71 28 119t74 67t103 15t115 -31l-10 -27q-48 23 -97 27.5t-89.5 -9.5t-66 -54.5t-25.5 -100.5v-145q0 -56 25 -91.5t67.5 -47.5t90 -11t100.5 15zM240 564q-9 0 -15 6t-6 15q0 8 6 14t15 6
q8 0 14 -6t6 -14q0 -9 -6 -15t-14 -6z" />
    <glyph glyph-name="Ccaron" unicode="&#x10c;" horiz-adv-x="468" 
d="M424 51l8 -28q-49 -19 -98 -27.5t-97 -4t-84.5 24t-59 62t-22.5 105.5v321q0 76 21.5 115t65.5 66q50 28 121.5 25t127.5 -33l-11 -24q-66 27 -123 27q-21 0 -40 -2.5t-44 -13t-43 -27.5t-30.5 -49t-12.5 -75v-328q0 -118 89 -153t232 19zM403 874l-142 -141l-148 141
l23 23l124 -118l120 118z" />
    <glyph glyph-name="ccaron" unicode="&#x10d;" horiz-adv-x="416" 
d="M368 34l7 -28q-120 -32 -210 -4q-59 20 -85.5 61.5t-26.5 116.5v128q0 71 28 119t74 67t103 15t115 -31l-10 -27q-48 23 -97 27.5t-89.5 -9.5t-66 -54.5t-25.5 -100.5v-145q0 -56 25 -91.5t67.5 -47.5t90 -11t100.5 15zM376 684l-142 -141l-148 141l23 23l124 -118
l120 118z" />
    <glyph glyph-name="Dcaron" unicode="&#x10e;" horiz-adv-x="576" 
d="M295 0h-208v701h188q113 0 172.5 -62t59.5 -165v-274q0 -200 -212 -200zM475 206v268q0 98 -55.5 146.5t-134.5 48.5h-166v-639h164q28 0 49 2t50 12.5t47.5 28t32 52t13.5 81.5zM425 875l-142 -141l-148 141l23 23l124 -118l120 118z" />
    <glyph glyph-name="dcaron" unicode="&#x10f;" horiz-adv-x="524" 
d="M392 476v224h32v-700q-86 -12 -159 -12t-132 30q-78 40 -78 139v189q0 105 85 144q50 23 126 18t126 -32zM392 30v416q-28 15 -66 24.5t-80 9.5t-77.5 -11t-58.5 -43.5t-23 -82.5v-187q0 -51 27.5 -83.5t73.5 -43.5t97 -10.5t107 11.5zM485 560l-25 17q24 13 40 29.5
t20 25.5l3 10l-5 1q-15 7 -15 23q0 8 6.5 14t15.5 6t15.5 -7t6.5 -16q0 -52 -62 -103z" />
    <glyph glyph-name="Dcroat" unicode="&#x110;" horiz-adv-x="576" 
d="M295 0h-208v701h188q113 0 172.5 -62t59.5 -165v-274q0 -200 -212 -200zM475 206v268q0 98 -55.5 146.5t-134.5 48.5h-166v-639h164q28 0 49 2t50 12.5t47.5 28t32 52t13.5 81.5zM401 755h-217v33h217v-33z" />
    <glyph glyph-name="dcroat" unicode="&#x111;" horiz-adv-x="494" 
d="M392 476v109h-141v32h141v83h32v-83h61v-32h-61v-585q-86 -12 -159 -12t-132 30q-78 40 -78 139v189q0 105 85 144q50 23 126 18t126 -32zM392 30v416q-28 15 -66 24.5t-80 9.5t-77.5 -11t-58.5 -43.5t-23 -82.5v-187q0 -51 27.5 -83.5t73.5 -43.5t97 -10.5t107 11.5z
" />
    <glyph glyph-name="Emacron" unicode="&#x112;" horiz-adv-x="473" 
d="M419 0h-332v700h334v-31h-302v-256h215l-11 -32h-204v-351h300v-30zM361 755h-217v33h217v-33z" />
    <glyph glyph-name="emacron" unicode="&#x113;" horiz-adv-x="462" 
d="M377 61l14 -26q-74 -45 -165 -47q-78 -2 -124 34.5t-46 111.5v205q0 81 50.5 126t133.5 45t129.5 -44.5t46.5 -123.5v-107l-328 -17v-85q0 -62 43.5 -92.5t110 -24t135.5 44.5zM384 265v80q0 73 -44 104.5t-101 31.5q-63 0 -107 -34.5t-44 -107.5v-90zM347 563h-217v33
h217v-33z" />
    <glyph glyph-name="Edotaccent" unicode="&#x116;" horiz-adv-x="473" 
d="M419 0h-332v700h334v-31h-302v-256h215l-11 -32h-204v-351h300v-30zM265 756q-9 0 -15 6t-6 15q0 8 6 14t15 6q8 0 14 -6t6 -14q0 -9 -6 -15t-14 -6z" />
    <glyph glyph-name="edotaccent" unicode="&#x117;" horiz-adv-x="462" 
d="M377 61l14 -26q-74 -45 -165 -47q-78 -2 -124 34.5t-46 111.5v205q0 81 50.5 126t133.5 45t129.5 -44.5t46.5 -123.5v-107l-328 -17v-85q0 -62 43.5 -92.5t110 -24t135.5 44.5zM384 265v80q0 73 -44 104.5t-101 31.5q-63 0 -107 -34.5t-44 -107.5v-90zM248 564
q-9 0 -15 6t-6 15q0 8 6 14t15 6q8 0 14 -6t6 -14q0 -9 -6 -15t-14 -6z" />
    <glyph glyph-name="Eogonek" unicode="&#x118;" horiz-adv-x="473" 
d="M453 -139l23 -24q-32 -50 -96 -50q-17 0 -35.5 4.5t-38 25t-19.5 54.5q0 65 96 129h-296v700h334v-31h-302v-256h215l-11 -32h-204v-351h300v-30q-99 -73 -102 -127q-1 -25 17 -41t45 -16q46 0 74 45z" />
    <glyph glyph-name="eogonek" unicode="&#x119;" horiz-adv-x="462" 
d="M305 -139l23 -24q-32 -50 -96 -50q-17 0 -35.5 4.5t-38 25t-19.5 54.5q0 59 79 117q-75 0 -118.5 36.5t-43.5 109.5v205q0 81 50.5 126t133.5 45t129.5 -44.5t46.5 -123.5v-107l-328 -17v-85q0 -62 43.5 -92.5t110 -24t135.5 44.5l14 -26q-57 -35 -133 -45
q-86 -66 -89 -117q-1 -25 17 -41t45 -16q46 0 74 45zM384 265v80q0 73 -44 104.5t-101 31.5q-63 0 -107 -34.5t-44 -107.5v-90z" />
    <glyph glyph-name="Ecaron" unicode="&#x11a;" horiz-adv-x="473" 
d="M419 0h-332v700h334v-31h-302v-256h215l-11 -32h-204v-351h300v-30zM400 875l-142 -141l-148 141l23 23l124 -118l120 118z" />
    <glyph glyph-name="ecaron" unicode="&#x11b;" horiz-adv-x="462" 
d="M377 61l14 -26q-74 -45 -165 -47q-78 -2 -124 34.5t-46 111.5v205q0 81 50.5 126t133.5 45t129.5 -44.5t46.5 -123.5v-107l-328 -17v-85q0 -62 43.5 -92.5t110 -24t135.5 44.5zM384 265v80q0 73 -44 104.5t-101 31.5q-63 0 -107 -34.5t-44 -107.5v-90zM385 683l-142 -141
l-148 141l23 23l124 -118l120 118z" />
    <glyph glyph-name="Gcircumflex" unicode="&#x11c;" horiz-adv-x="535" 
d="M481 0h-27l-5 72q-46 -82 -168 -82q-88 0 -149.5 50t-61.5 149v314q0 128 87 181q50 28 120 25t129 -33l-10 -24q-65 26 -114 28q-22 1 -42.5 -1.5t-47 -13t-45 -28.5t-32 -53t-13.5 -82v-315q0 -75 49 -120.5t130 -45.5q86 0 127.5 46.5t41.5 115.5v85h-95l-12 32h138
v-300zM405 748l-119 119l-123 -119l-24 24l148 141l142 -141z" />
    <glyph glyph-name="gcircumflex" unicode="&#x11d;" horiz-adv-x="500" 
d="M367 556l-119 119l-123 -119l-24 24l148 141l142 -141zM323 -210l-9 27q41 15 62.5 40.5t21.5 79.5v133q-53 -82 -159 -82q-88 0 -137 48t-49 140v149q0 88 52.5 136.5t139.5 48.5q106 0 154 -71l-1 62h32v-565q0 -60 -25 -94t-82 -52zM398 165v211q-13 53 -55.5 78.5
t-98.5 25.5q-26 0 -51 -7t-50.5 -23t-41.5 -49.5t-16 -80.5v-153q0 -69 40 -109t114 -40q61 0 110 37t49 110z" />
    <glyph glyph-name="Gbreve" unicode="&#x11e;" horiz-adv-x="535" 
d="M481 0h-27l-5 72q-46 -82 -168 -82q-88 0 -149.5 50t-61.5 149v314q0 128 87 181q50 28 120 25t129 -33l-10 -24q-65 26 -114 28q-22 1 -42.5 -1.5t-47 -13t-45 -28.5t-32 -53t-13.5 -82v-315q0 -75 49 -120.5t130 -45.5q86 0 127.5 46.5t41.5 115.5v85h-95l-12 32h138
v-300zM394 846v-5q0 -47 -33 -80t-80 -33t-80 33t-33 80v5h29v-5q0 -31 23.5 -57.5t60.5 -26.5q36 0 60 26.5t24 57.5v5h29z" />
    <glyph glyph-name="gbreve" unicode="&#x11f;" horiz-adv-x="500" 
d="M370 650v-5q0 -47 -33 -80t-80 -33t-80 33t-33 80v5h29v-5q0 -31 23.5 -57.5t60.5 -26.5q36 0 60 26.5t24 57.5v5h29zM323 -210l-9 27q41 15 62.5 40.5t21.5 79.5v133q-53 -82 -159 -82q-88 0 -137 48t-49 140v149q0 88 52.5 136.5t139.5 48.5q106 0 154 -71l-1 62h32
v-565q0 -60 -25 -94t-82 -52zM398 165v211q-13 53 -55.5 78.5t-98.5 25.5q-26 0 -51 -7t-50.5 -23t-41.5 -49.5t-16 -80.5v-153q0 -69 40 -109t114 -40q61 0 110 37t49 110z" />
    <glyph glyph-name="Gdotaccent" unicode="&#x120;" horiz-adv-x="535" 
d="M278 755q-9 0 -15 6t-6 15q0 8 6 14t15 6q8 0 14 -6t6 -14q0 -9 -6 -15t-14 -6zM481 0h-27l-5 72q-46 -82 -168 -82q-88 0 -149.5 50t-61.5 149v314q0 128 87 181q50 28 120 25t129 -33l-10 -24q-65 26 -114 28q-22 1 -42.5 -1.5t-47 -13t-45 -28.5t-32 -53t-13.5 -82
v-315q0 -75 49 -120.5t130 -45.5q86 0 127.5 46.5t41.5 115.5v85h-95l-12 32h138v-300z" />
    <glyph glyph-name="gdotaccent" unicode="&#x121;" horiz-adv-x="500" 
d="M255 563q-9 0 -15 6t-6 15q0 8 6 14t15 6q8 0 14 -6t6 -14q0 -9 -6 -15t-14 -6zM323 -210l-9 27q41 15 62.5 40.5t21.5 79.5v133q-53 -82 -159 -82q-88 0 -137 48t-49 140v149q0 88 52.5 136.5t139.5 48.5q106 0 154 -71l-1 62h32v-565q0 -60 -25 -94t-82 -52zM398 165
v211q-13 53 -55.5 78.5t-98.5 25.5q-26 0 -51 -7t-50.5 -23t-41.5 -49.5t-16 -80.5v-153q0 -69 40 -109t114 -40q61 0 110 37t49 110z" />
    <glyph glyph-name="Gcommaaccent" unicode="&#x122;" horiz-adv-x="535" 
d="M481 0h-27l-5 72q-46 -82 -168 -82q-88 0 -149.5 50t-61.5 149v314q0 128 87 181q50 28 120 25t129 -33l-10 -24q-65 26 -114 28q-22 1 -42.5 -1.5t-47 -13t-45 -28.5t-32 -53t-13.5 -82v-315q0 -75 49 -120.5t130 -45.5q86 0 127.5 46.5t41.5 115.5v85h-95l-12 32h138
v-300zM243 -184l-25 17q24 13 40 29.5t20 25.5l3 10l-5 1q-15 7 -15 23q0 8 6.5 14t15.5 6t15.5 -7t6.5 -16q0 -52 -62 -103z" />
    <glyph glyph-name="gcommaaccent" unicode="&#x123;" horiz-adv-x="500" 
d="M323 -210l-9 27q41 15 62.5 40.5t21.5 79.5v133q-53 -82 -159 -82q-88 0 -137 48t-49 140v149q0 88 52.5 136.5t139.5 48.5q106 0 154 -71l-1 62h32v-565q0 -60 -25 -94t-82 -52zM398 165v211q-13 53 -55.5 78.5t-98.5 25.5q-26 0 -51 -7t-50.5 -23t-41.5 -49.5
t-16 -80.5v-153q0 -69 40 -109t114 -40q61 0 110 37t49 110zM233 609l5 -1q15 -7 15 -23q0 -8 -6.5 -14t-15.5 -6t-15.5 6.5t-6.5 16.5q0 52 62 103l25 -17q-24 -13 -40 -29.5t-20 -26.5z" />
    <glyph glyph-name="Hcircumflex" unicode="&#x124;" horiz-adv-x="604" 
d="M517 0h-32v381h-366v-381h-32v700h32v-287h366v287h32v-700zM425 748l-119 119l-123 -119l-24 24l148 141l142 -141z" />
    <glyph glyph-name="hcircumflex" unicode="&#x125;" horiz-adv-x="504" 
d="M211 749l-119 119l-123 -119l-24 24l148 141l142 -141zM439 0h-32v346q0 58 -33 91.5t-81 40t-99 -2.5t-92 -31v-444h-32v700h32v-225q55 31 130 34.5t122 -19.5q85 -39 85 -144v-346z" />
    <glyph glyph-name="Hbar" unicode="&#x126;" horiz-adv-x="621" 
d="M526 0h-32v381h-366v-381h-32v506h-49v32h49v162h32v-162h366v162h32v-162h48v-32h-48v-506zM494 413v93h-366v-93h366z" />
    <glyph glyph-name="hbar" unicode="&#x127;" horiz-adv-x="504" 
d="M439 0h-32v346q0 58 -33 91.5t-81 40t-99 -2.5t-92 -31v-444h-32v585h-62v32h62v83h32v-83h140v-32h-140v-110q55 31 130 34.5t122 -19.5q85 -39 85 -144v-346z" />
    <glyph glyph-name="Itilde" unicode="&#x128;" horiz-adv-x="227" 
d="M140 0h-32v668l-80 2v30h112v-700zM253 816l16 -24q-25 -25 -49.5 -34.5t-46 -6t-42.5 12t-41.5 17.5t-41 12t-43.5 -6.5t-46 -34.5l-16 24q35 39 70.5 47t64.5 -3.5t57 -24.5t59 -11t59 32z" />
    <glyph glyph-name="itilde" unicode="&#x129;" 
d="M235 617l16 -24q-25 -25 -49.5 -34.5t-46 -6t-42.5 12t-41.5 17.5t-41 12t-43.5 -6.5t-46 -34.5l-16 24q35 39 70.5 47t64.5 -3.5t57 -24.5t59 -11t59 32zM102 0h-32v501h32v-501z" />
    <glyph glyph-name="Imacron" unicode="&#x12a;" horiz-adv-x="227" 
d="M140 0h-32v668l-80 2v30h112v-700zM200 755h-216v33h216v-33z" />
    <glyph glyph-name="imacron" unicode="&#x12b;" 
d="M191 563h-217v33h217v-33zM102 0h-32v501h32v-501z" />
    <glyph glyph-name="Iogonek" unicode="&#x12e;" horiz-adv-x="227" 
d="M140 0h-32v668l-80 2v30h112v-700zM175 -139l23 -24q-32 -50 -96 -50q-17 0 -35.5 4.5t-38 25t-19.5 54.5q0 65 96 129h36q-99 -73 -102 -127q-1 -25 17 -41t45 -16q46 0 74 45z" />
    <glyph glyph-name="iogonek" unicode="&#x12f;" 
d="M102 0h-32v501h32v-501zM86 669q-9 0 -15 6t-6 15q0 8 6 14t15 6q8 0 14 -6t6 -14q0 -9 -6 -15t-14 -6zM138 -139l23 -24q-32 -50 -96 -50q-17 0 -35.5 4.5t-38 25t-19.5 54.5q0 65 96 129h36q-99 -73 -102 -127q-1 -25 17 -41t45 -16q46 0 74 45z" />
    <glyph glyph-name="Idotaccent" unicode="&#x130;" horiz-adv-x="227" 
d="M140 0h-32v668l-80 2v30h112v-700zM124 756q-9 0 -15 6t-6 15q0 8 6 14t15 6q8 0 14 -6t6 -14q0 -9 -6 -15t-14 -6z" />
    <glyph glyph-name="dotlessi" unicode="&#x131;" 
d="M102 0h-32v501h32v-501z" />
    <glyph glyph-name="Jcircumflex" unicode="&#x134;" horiz-adv-x="235" 
d="M40 -37l-8 25q88 9 88 129v551l-78 2v30h110v-579q0 -75 -27 -113.5t-85 -44.5zM245 846v-5q0 -47 -33.5 -80t-79.5 -33t-79.5 33t-33.5 80v5h29v-5q0 -31 23.5 -57.5t60.5 -26.5q36 0 60 26.5t24 57.5v5h29z" />
    <glyph glyph-name="jcircumflex" unicode="&#x135;" horiz-adv-x="197" 
d="M233 556l-119 119l-123 -119l-24 24l148 141l142 -141zM95 -73v542l-64 1l-15 31h111v-581q-1 -50 -28 -86.5t-83 -42.5l-5 27q3 0 9 1t20.5 7.5t25.5 17t20 32.5t9 51z" />
    <glyph glyph-name="Kcommaaccent" unicode="&#x136;" horiz-adv-x="495" 
d="M484 0h-37l-248 383l-80 -107v-276h-32v701h32v-372l276 372h37l-213 -290zM235 -184l-25 17q24 13 40 29.5t20 25.5l3 10l-5 1q-15 7 -15 23q0 8 6.5 14t15.5 6t15.5 -7t6.5 -16q0 -52 -62 -103z" />
    <glyph glyph-name="kcommaaccent" unicode="&#x137;" horiz-adv-x="442" 
d="M437 0h-38l-215 349l-82 -74v-275h-32v700h32v-387l224 207l23 -22l-141 -128q99 -164 229 -370zM206 -184l-25 17q24 13 39.5 29.5t19.5 25.5l4 10l-5 1q-15 7 -15 23q0 8 6.5 14t15.5 6q8 0 15 -7t7 -16q0 -52 -62 -103z" />
    <glyph glyph-name="kgreenlandic" unicode="&#x138;" horiz-adv-x="450" 
d="M439 29v-30q-37 0 -68.5 26.5t-67.5 76.5l-121 168l-80 -84v-186h-32v512l32 -8v-275l250 272h43l-191 -208l127 -179q63 -85 108 -85z" />
    <glyph glyph-name="Lacute" unicode="&#x139;" horiz-adv-x="461" 
d="M448 0h-361v700h32v-670h329v-30zM118 730h-28l54 124q10 23 30 15q10 -4 12.5 -14t-3.5 -19z" />
    <glyph glyph-name="lacute" unicode="&#x13a;" 
d="M102 0h-32v700h32v-700zM101 734h-28l54 124q10 23 30 15q10 -4 12.5 -14t-3.5 -19z" />
    <glyph glyph-name="Lcommaaccent" unicode="&#x13b;" horiz-adv-x="461" 
d="M448 0h-361v700h32v-670h329v-30zM247 -184l-25 17q24 13 40 29.5t20 25.5l3 10l-5 1q-15 7 -15 23q0 8 6.5 14t15.5 6t15.5 -7t6.5 -16q0 -52 -62 -103z" />
    <glyph glyph-name="lcommaaccent" unicode="&#x13c;" 
d="M102 0h-32v700h32v-700zM54 -184l-25 17q24 13 39.5 29.5t19.5 25.5l4 10l-5 1q-15 7 -15 23q0 8 6.5 14t15.5 6q8 0 15 -7t7 -16q0 -52 -62 -103z" />
    <glyph glyph-name="Lcaron" unicode="&#x13d;" horiz-adv-x="461" 
d="M448 0h-361v700h32v-670h329v-30zM248 875l-142 -141l-148 141l23 23l124 -118l120 118z" />
    <glyph glyph-name="lcaron" unicode="&#x13e;" horiz-adv-x="202" 
d="M102 0h-32v700h32v-700zM231 875l-142 -141l-148 141l23 23l124 -118l120 118z" />
    <glyph glyph-name="Lslash" unicode="&#x141;" horiz-adv-x="521" 
d="M504 0h-361v379l-111 -50l-12 29l123 55v287h32v-272l136 61l13 -29l-149 -67v-363h329v-30z" />
    <glyph glyph-name="lslash" unicode="&#x142;" horiz-adv-x="334" 
d="M187 0h-32v385l-125 -56l-12 29l137 61v249l-80 2v30h112v-266l122 55l13 -29l-135 -61v-399z" />
    <glyph glyph-name="Nacute" unicode="&#x143;" horiz-adv-x="666" 
d="M579 0h-31l-430 644v-644h-31v700h31l430 -643v643h31v-700zM315 730h-28l54 124q10 23 30 15q10 -4 12.5 -14t-3.5 -19z" />
    <glyph glyph-name="nacute" unicode="&#x144;" horiz-adv-x="504" 
d="M439 0h-32v346q0 57 -33 90.5t-81 40t-99.5 -2t-91.5 -30.5v-444h-32v501h32v-26q55 31 130 34.5t122 -19.5q85 -39 85 -144v-346zM251 538h-28l54 124q10 23 30 15q10 -4 12.5 -14t-3.5 -19z" />
    <glyph glyph-name="Ncommaaccent" unicode="&#x145;" horiz-adv-x="666" 
d="M579 0h-31l-430 644v-644h-31v700h31l430 -643v643h31v-700zM320 -184l-25 17q24 13 39.5 29.5t19.5 25.5l4 10l-5 1q-15 7 -15 23q0 8 6.5 14t15.5 6q8 0 15 -7t7 -16q0 -52 -62 -103z" />
    <glyph glyph-name="ncommaaccent" unicode="&#x146;" horiz-adv-x="504" 
d="M439 0h-32v346q0 57 -33 90.5t-81 40t-99.5 -2t-91.5 -30.5v-444h-32v501h32v-26q55 31 130 34.5t122 -19.5q85 -39 85 -144v-346zM221 -184l-25 17q24 13 40 29.5t20 25.5l3 10l-5 1q-15 7 -15 23q0 8 6.5 14t15.5 6t15.5 -7t6.5 -16q0 -52 -62 -103z" />
    <glyph glyph-name="Ncaron" unicode="&#x147;" horiz-adv-x="666" 
d="M579 0h-31l-430 644v-644h-31v700h31l430 -643v643h31v-700zM483 875l-142 -141l-148 141l23 23l124 -118l120 118z" />
    <glyph glyph-name="ncaron" unicode="&#x148;" horiz-adv-x="504" 
d="M439 0h-32v346q0 57 -33 90.5t-81 40t-99.5 -2t-91.5 -30.5v-444h-32v501h32v-26q55 31 130 34.5t122 -19.5q85 -39 85 -144v-346zM413 733l-142 -141l-148 141l23 23l124 -118l120 118z" />
    <glyph glyph-name="Eng" unicode="&#x14a;" horiz-adv-x="662" 
d="M548 129v539l-78 2v30h109v-579q0 -146 -111 -158q-1 4 -4 12.5t-5 12.5q46 4 69 41q-51 77 -192 288.5t-218 326.5v-644h-31v700h31q47 -70 424 -634q6 19 6 63z" />
    <glyph glyph-name="eng" unicode="&#x14b;" horiz-adv-x="504" 
d="M408 -68l-1 414q0 57 -33 90.5t-81 40t-99.5 -2t-91.5 -30.5v-444h-32v501h32v-26q55 31 130 34.5t122 -19.5q82 -40 85 -146l1 1v-425q-1 -50 -28 -86.5t-84 -42.5l-4 27q3 0 9 1.5t20.5 8.5t25.5 18t20 33.5t9 52.5z" />
    <glyph glyph-name="Omacron" unicode="&#x14c;" horiz-adv-x="560" 
d="M490 506v-321q0 -101 -61.5 -148.5t-147.5 -47.5t-148.5 47.5t-62.5 148.5v322q0 103 56.5 156t155.5 53t153.5 -56t54.5 -154zM458 185v327q0 81 -46 126.5t-132 45.5t-132 -45.5t-46 -127.5v-326q0 -82 51.5 -123.5t126.5 -41.5q77 0 127.5 39.5t50.5 125.5zM384 755
h-217v33h217v-33z" />
    <glyph glyph-name="omacron" unicode="&#x14d;" horiz-adv-x="477" 
d="M425 316v-132q0 -84 -46 -139t-139 -55t-140.5 55.5t-47.5 138.5v132q0 95 48.5 145.5t139.5 50.5q87 0 136 -52.5t49 -143.5zM393 180v139q0 82 -43 122.5t-110 40.5q-70 0 -113 -40.5t-43 -122.5v-139q0 -68 39 -114.5t117 -46.5q76 0 114.5 45.5t38.5 115.5zM346 563
h-216v33h216v-33z" />
    <glyph glyph-name="Ohungarumlaut" unicode="&#x150;" horiz-adv-x="560" 
d="M490 506v-321q0 -101 -61.5 -148.5t-147.5 -47.5t-148.5 47.5t-62.5 148.5v322q0 103 56.5 156t155.5 53t153.5 -56t54.5 -154zM458 185v327q0 81 -46 126.5t-132 45.5t-132 -45.5t-46 -127.5v-326q0 -82 51.5 -123.5t126.5 -41.5q77 0 127.5 39.5t50.5 125.5zM336 731
h-28l54 124q10 23 30 15q10 -4 12.5 -14t-3.5 -19zM224 731h-28l54 124q10 23 30 15q10 -4 12.5 -14t-3.5 -19z" />
    <glyph glyph-name="ohungarumlaut" unicode="&#x151;" horiz-adv-x="477" 
d="M425 316v-132q0 -84 -46 -139t-139 -55t-140.5 55.5t-47.5 138.5v132q0 95 48.5 145.5t139.5 50.5q87 0 136 -52.5t49 -143.5zM393 180v139q0 82 -43 122.5t-110 40.5q-70 0 -113 -40.5t-43 -122.5v-139q0 -68 39 -114.5t117 -46.5q76 0 114.5 45.5t38.5 115.5zM290 543
h-28l54 124q10 23 30 15q10 -4 12.5 -14t-3.5 -19zM178 543h-28l54 124q10 23 30 15q10 -4 12.5 -14t-3.5 -19z" />
    <glyph glyph-name="OE" unicode="&#x152;" horiz-adv-x="845" 
d="M791 0h-332v70q-55 -81 -178 -81q-86 0 -148.5 47.5t-62.5 148.5v322q0 103 56.5 156t155.5 53q123 0 177 -86v70h334v-31h-302v-256h215l-11 -32h-204v-351h300v-30zM458 185v327q0 81 -46 126.5t-132 45.5t-132 -45.5t-46 -127.5v-326q0 -82 51.5 -123.5t126.5 -41.5
q77 0 127.5 39.5t50.5 125.5z" />
    <glyph glyph-name="oe" unicode="&#x153;" horiz-adv-x="777" 
d="M693 60l13 -25q-74 -45 -164 -47q-54 -2 -94.5 22t-55.5 69q-22 -41 -63 -65t-93 -24q-92 0 -137.5 55t-45.5 139v132q0 95 47.5 145.5t137.5 50.5q57 0 99 -28t59 -77q20 47 61.5 75t102.5 28q81 0 126 -44.5t45 -123.5v-108l-317 -17v-82q0 -64 42.5 -94.5t106.5 -24
t130 43.5zM381 164v163q0 76 -40.5 116t-102.5 39q-153 0 -153 -166v-142q0 -72 42 -113t109 -41q66 0 105.5 40.5t39.5 103.5zM699 263v86q0 71 -42 102t-98 31q-62 0 -103.5 -39t-41.5 -105v-88z" />
    <glyph glyph-name="Racute" unicode="&#x154;" horiz-adv-x="577" 
d="M522 0h-34l-117 271q-15 -3 -30 -3h-221v-268h-33v700h241q98 0 145.5 -58t47.5 -156q0 -165 -119 -207zM120 300h211q46 0 79 17.5t49 47t22.5 59t6.5 62.5q0 88 -41 135t-118 47h-209v-368zM264 730h-28l54 124q10 23 30 15q10 -4 12.5 -14t-3.5 -19z" />
    <glyph glyph-name="racute" unicode="&#x155;" horiz-adv-x="327" 
d="M102 0h-32v501h32l-1 -47q76 77 219 47l-9 -32q-51 13 -97.5 8t-79 -27.5t-32.5 -52.5v-397zM158 538h-28l54 124q10 23 30 15q10 -4 12.5 -14t-3.5 -19z" />
    <glyph glyph-name="Rcommaaccent" unicode="&#x156;" horiz-adv-x="577" 
d="M522 0h-34l-117 271q-15 -3 -30 -3h-221v-268h-33v700h241q98 0 145.5 -58t47.5 -156q0 -165 -119 -207zM120 300h211q46 0 79 17.5t49 47t22.5 59t6.5 62.5q0 88 -41 135t-118 47h-209v-368zM257 -184l-25 17q24 13 40 29.5t20 25.5l3 10l-5 1q-15 7 -15 23q0 8 6.5 14
t15.5 6t15.5 -7t6.5 -16q0 -52 -62 -103z" />
    <glyph glyph-name="rcommaaccent" unicode="&#x157;" horiz-adv-x="327" 
d="M102 0h-32v501h32l-1 -47q76 77 219 47l-9 -32q-51 13 -97.5 8t-79 -27.5t-32.5 -52.5v-397zM117 -184l-25 17q24 13 40 29.5t20 25.5l3 10l-5 1q-15 7 -15 23q0 8 6.5 14t15.5 6t15.5 -7t6.5 -16q0 -52 -62 -103z" />
    <glyph glyph-name="Rcaron" unicode="&#x158;" horiz-adv-x="577" 
d="M522 0h-34l-117 271q-15 -3 -30 -3h-221v-268h-33v700h241q98 0 145.5 -58t47.5 -156q0 -165 -119 -207zM120 300h211q46 0 79 17.5t49 47t22.5 59t6.5 62.5q0 88 -41 135t-118 47h-209v-368zM436 875l-142 -141l-148 141l23 23l124 -118l120 118z" />
    <glyph glyph-name="rcaron" unicode="&#x159;" horiz-adv-x="327" 
d="M102 0h-32v501h32l-1 -47q76 77 219 47l-9 -32q-51 13 -97.5 8t-79 -27.5t-32.5 -52.5v-397zM359 733l-142 -141l-148 141l23 23l124 -118l120 118z" />
    <glyph glyph-name="Sacute" unicode="&#x15a;" horiz-adv-x="558" 
d="M48 178h34q2 -59 55 -108.5t146 -49.5q90 0 147.5 40t57.5 127q0 48 -31.5 82.5t-78 52t-101.5 37.5t-101.5 38t-78 54.5t-31.5 86.5q0 70 58 121t167 51q83 0 146 -30l-11 -32q-60 31 -133 31q-84 0 -138.5 -37.5t-54.5 -106.5q0 -49 43.5 -81.5t106 -52t124.5 -42
t105.5 -65t43.5 -105.5q0 -92 -58.5 -146t-180.5 -54q-109 0 -171.5 57.5t-64.5 131.5zM279 735h-28l54 124q10 23 30 15q10 -4 12.5 -14t-3.5 -19z" />
    <glyph glyph-name="sacute" unicode="&#x15b;" horiz-adv-x="430" 
d="M40 127h31q5 -48 46 -79.5t108 -31.5q61 0 102 29t41 79q0 40 -30.5 66.5t-74.5 40.5t-88.5 28t-79 40t-39.5 66q-7 55 34.5 101.5t132.5 46.5q31 0 59 -7.5t40 -15.5l13 -7l-13 -27q-41 26 -99 27q-57 1 -99 -27.5t-37 -84.5q3 -32 36.5 -53.5t79 -34.5t90.5 -29t76 -48
t31 -81q0 -60 -44.5 -100t-130.5 -40q-85 0 -134 41t-51 101zM214 538h-28l54 124q10 23 30 15q10 -4 12.5 -14t-3.5 -19z" />
    <glyph glyph-name="Scircumflex" unicode="&#x15c;" horiz-adv-x="558" 
d="M48 178h34q2 -59 55 -108.5t146 -49.5q90 0 147.5 40t57.5 127q0 48 -31.5 82.5t-78 52t-101.5 37.5t-101.5 38t-78 54.5t-31.5 86.5q0 70 58 121t167 51q83 0 146 -30l-11 -32q-60 31 -133 31q-84 0 -138.5 -37.5t-54.5 -106.5q0 -49 43.5 -81.5t106 -52t124.5 -42
t105.5 -65t43.5 -105.5q0 -92 -58.5 -146t-180.5 -54q-109 0 -171.5 57.5t-64.5 131.5zM419 748l-119 119l-123 -119l-24 24l148 141l142 -141z" />
    <glyph glyph-name="scircumflex" unicode="&#x15d;" horiz-adv-x="430" 
d="M344 556l-119 119l-123 -119l-24 24l148 141l142 -141zM40 127h31q5 -48 46 -79.5t108 -31.5q61 0 102 29t41 79q0 40 -30.5 66.5t-74.5 40.5t-88.5 28t-79 40t-39.5 66q-7 55 34.5 101.5t132.5 46.5q31 0 59 -7.5t40 -15.5l13 -7l-13 -27q-41 26 -99 27q-57 1 -99 -27.5
t-37 -84.5q3 -32 36.5 -53.5t79 -34.5t90.5 -29t76 -48t31 -81q0 -60 -44.5 -100t-130.5 -40q-85 0 -134 41t-51 101z" />
    <glyph glyph-name="scedilla" unicode="&#x15f;" horiz-adv-x="430" 
d="M114 -191l15 32q37 -24 81 -24q36 0 62.5 15.5t26.5 46.5q1 32 -29.5 44.5t-71.5 -3.5l-38 -14l-10 16l50 64q-74 6 -116 46t-44 95h31q5 -48 46 -79.5t108 -31.5q61 0 102 29t41 79q0 40 -30.5 66.5t-74.5 40.5t-88.5 28t-79 40t-39.5 66q-7 55 34.5 101.5t132.5 46.5
q31 0 59 -7.5t40 -15.5l13 -7l-13 -27q-41 26 -99 27q-57 1 -99 -27.5t-37 -84.5q3 -32 36.5 -53.5t79 -34.5t90.5 -29t76 -48t31 -81q0 -60 -43.5 -99.5t-128.5 -40.5l-31 -40q12 6 38 8q38 3 66.5 -15.5t28.5 -58.5q0 -48 -37 -68.5t-87 -20.5q-40 0 -92 19z" />
    <glyph glyph-name="Scaron" unicode="&#x160;" horiz-adv-x="558" 
d="M48 178h34q2 -59 55 -108.5t146 -49.5q90 0 147.5 40t57.5 127q0 48 -31.5 82.5t-78 52t-101.5 37.5t-101.5 38t-78 54.5t-31.5 86.5q0 70 58 121t167 51q83 0 146 -30l-11 -32q-60 31 -133 31q-84 0 -138.5 -37.5t-54.5 -106.5q0 -49 43.5 -81.5t106 -52t124.5 -42
t105.5 -65t43.5 -105.5q0 -92 -58.5 -146t-180.5 -54q-109 0 -171.5 57.5t-64.5 131.5zM455 925l-142 -141l-148 141l23 23l124 -118l120 118z" />
    <glyph glyph-name="scaron" unicode="&#x161;" horiz-adv-x="430" 
d="M40 127h31q5 -48 46 -79.5t108 -31.5q61 0 102 29t41 79q0 40 -30.5 66.5t-74.5 40.5t-88.5 28t-79 40t-39.5 66q-7 55 34.5 101.5t132.5 46.5q31 0 59 -7.5t40 -15.5l13 -7l-13 -27q-41 26 -99 27q-57 1 -99 -27.5t-37 -84.5q3 -32 36.5 -53.5t79 -34.5t90.5 -29t76 -48
t31 -81q0 -60 -44.5 -100t-130.5 -40q-85 0 -134 41t-51 101zM393 732l-142 -141l-148 141l23 23l124 -118l120 118z" />
    <glyph glyph-name="Tcommaaccent" unicode="&#x162;" horiz-adv-x="429" 
d="M230 0h-31l-1 669h-182v31h402v-31h-188v-669zM184 -184l-25 17q24 13 39.5 29.5t19.5 25.5l4 10l-5 1q-15 7 -15 23q0 8 6.5 14t15.5 6q8 0 15 -7t7 -16q0 -52 -62 -103z" />
    <glyph glyph-name="tcommaaccent" unicode="&#x163;" horiz-adv-x="247" 
d="M182 14l-9 -27q-56 16 -81 51t-25 94v568h32v-199h144l-14 -31h-130v-338q0 -50 19.5 -77t63.5 -41zM84 -184l-25 17q24 13 39.5 29.5t19.5 25.5l4 10l-5 1q-15 7 -15 23q0 8 6.5 14t15.5 6q8 0 15 -7t7 -16q0 -52 -62 -103z" />
    <glyph glyph-name="Tcaron" unicode="&#x164;" horiz-adv-x="429" 
d="M230 0h-31l-1 669h-182v31h402v-31h-188v-669zM360 875l-142 -141l-148 141l23 23l124 -118l120 118z" />
    <glyph glyph-name="tcaron" unicode="&#x165;" horiz-adv-x="247" 
d="M182 14l-9 -27q-56 16 -81 51t-25 94v568h32v-199h144l-14 -31h-130v-338q0 -50 19.5 -77t63.5 -41zM226 875l-142 -141l-148 141l23 23l124 -118l120 118z" />
    <glyph glyph-name="Tbar" unicode="&#x166;" horiz-adv-x="429" 
d="M230 0h-31l-1 669h-182v31h402v-31h-188v-669zM323 755h-217v33h217v-33z" />
    <glyph glyph-name="tbar" unicode="&#x167;" horiz-adv-x="294" 
d="M211 14l-9 -27q-56 16 -81 51t-25 94v194h-70v32h70v342h32v-199h144l-14 -31h-130v-112h132v-32h-132v-194q0 -50 19.5 -77t63.5 -41z" />
    <glyph glyph-name="Utilde" unicode="&#x168;" horiz-adv-x="587" 
d="M472 182v519h32v-515q0 -53 -18.5 -92t-50 -60t-66.5 -31t-75 -10t-75.5 10t-67 31t-50 60t-18.5 92v515h32v-519q0 -81 53.5 -120t126.5 -39q71 0 124 39.5t53 119.5zM439 816l16 -24q-25 -25 -49.5 -34.5t-46 -6t-42.5 12t-41.5 17.5t-41 12t-43.5 -6.5t-46 -34.5
l-16 24q35 39 70.5 47t64.5 -3.5t57 -24.5t59 -11t59 32z" />
    <glyph glyph-name="utilde" unicode="&#x169;" horiz-adv-x="507" 
d="M437 0h-32l2 69q-51 -80 -155 -80q-188 0 -188 186v326h32v-329q0 -153 156 -153q68 0 110.5 37.5t42.5 105.5v339h32v-501zM393 627l16 -24q-25 -25 -49.5 -34.5t-46 -6t-42.5 12t-41.5 17.5t-41 12t-43.5 -6.5t-46 -34.5l-16 24q35 39 70.5 47t64.5 -3.5t57 -24.5
t59 -11t59 32z" />
    <glyph glyph-name="Umacron" unicode="&#x16a;" horiz-adv-x="587" 
d="M472 182v519h32v-515q0 -53 -18.5 -92t-50 -60t-66.5 -31t-75 -10t-75.5 10t-67 31t-50 60t-18.5 92v515h32v-519q0 -81 53.5 -120t126.5 -39q71 0 124 39.5t53 119.5zM400 755h-217v33h217v-33z" />
    <glyph glyph-name="umacron" unicode="&#x16b;" horiz-adv-x="507" 
d="M437 0h-32l2 69q-51 -80 -155 -80q-188 0 -188 186v326h32v-329q0 -153 156 -153q68 0 110.5 37.5t42.5 105.5v339h32v-501zM354 563h-217v33h217v-33z" />
    <glyph glyph-name="Ubreve" unicode="&#x16c;" horiz-adv-x="587" 
d="M472 182v519h32v-515q0 -53 -18.5 -92t-50 -60t-66.5 -31t-75 -10t-75.5 10t-67 31t-50 60t-18.5 92v515h32v-519q0 -81 53.5 -120t126.5 -39q71 0 124 39.5t53 119.5zM406 842v-5q0 -47 -33 -80t-80 -33t-80 33t-33 80v5h29v-5q0 -31 23.5 -57.5t60.5 -26.5
q36 0 60 26.5t24 57.5v5h29z" />
    <glyph glyph-name="ubreve" unicode="&#x16d;" horiz-adv-x="507" 
d="M369 653v-5q0 -46 -33.5 -79.5t-79.5 -33.5t-79.5 33.5t-33.5 79.5v5h29v-5q0 -31 23.5 -57.5t60.5 -26.5q36 0 60 26.5t24 57.5v5h29zM437 0h-32l2 69q-51 -80 -155 -80q-188 0 -188 186v326h32v-329q0 -153 156 -153q68 0 110.5 37.5t42.5 105.5v339h32v-501z" />
    <glyph glyph-name="Uring" unicode="&#x16e;" horiz-adv-x="587" 
d="M472 182v519h32v-515q0 -53 -18.5 -92t-50 -60t-66.5 -31t-75 -10t-75.5 10t-67 31t-50 60t-18.5 92v515h32v-519q0 -81 53.5 -120t126.5 -39q71 0 124 39.5t53 119.5zM293 686q34 0 58.5 24.5t24.5 59.5q0 34 -24 58.5t-59 24.5t-59.5 -24.5t-24.5 -58.5t24.5 -59
t59.5 -25zM293 657q-47 0 -80 33.5t-33 79.5t33 79.5t80 33.5t80 -33.5t33 -79.5t-33 -79.5t-80 -33.5z" />
    <glyph glyph-name="uring" unicode="&#x16f;" horiz-adv-x="507" 
d="M437 0h-32l2 69q-51 -80 -155 -80q-188 0 -188 186v326h32v-329q0 -153 156 -153q68 0 110.5 37.5t42.5 105.5v339h32v-501zM256 504q34 0 58.5 24.5t24.5 59.5q0 34 -24.5 58.5t-58.5 24.5q-35 0 -59.5 -24.5t-24.5 -58.5t25 -59t59 -25zM256 475q-46 0 -79.5 33.5
t-33.5 79.5t33.5 79.5t79.5 33.5t79.5 -33.5t33.5 -79.5t-33.5 -79.5t-79.5 -33.5z" />
    <glyph glyph-name="Uhungarumlaut" unicode="&#x170;" horiz-adv-x="587" 
d="M472 182v519h32v-515q0 -53 -18.5 -92t-50 -60t-66.5 -31t-75 -10t-75.5 10t-67 31t-50 60t-18.5 92v515h32v-519q0 -81 53.5 -120t126.5 -39q71 0 124 39.5t53 119.5zM350 731h-28l54 124q10 23 30 15q10 -4 12.5 -14t-3.5 -19zM238 731h-28l54 124q10 23 30 15
q10 -4 12.5 -14t-3.5 -19z" />
    <glyph glyph-name="uhungarumlaut" unicode="&#x171;" horiz-adv-x="507" 
d="M437 0h-32l2 69q-51 -80 -155 -80q-188 0 -188 186v326h32v-329q0 -153 156 -153q68 0 110.5 37.5t42.5 105.5v339h32v-501zM302 543h-28l54 124q10 23 30 15q10 -4 12.5 -14t-3.5 -19zM190 543h-28l54 124q10 23 30 15q10 -4 12.5 -14t-3.5 -19z" />
    <glyph glyph-name="Uogonek" unicode="&#x172;" horiz-adv-x="587" 
d="M360 -139l23 -24q-32 -50 -96 -50q-17 0 -35.5 4.5t-38 25t-19.5 54.5q0 62 86 123q-52 2 -94 19.5t-72.5 61.5t-30.5 111v515h32v-519q0 -81 53.5 -120t126.5 -39q71 0 124 39.5t53 119.5v519h32v-515q0 -93 -53.5 -139.5t-132.5 -52.5q-91 -68 -94 -121q-1 -25 17 -41
t45 -16q46 0 74 45z" />
    <glyph glyph-name="uogonek" unicode="&#x173;" horiz-adv-x="507" 
d="M472 -139l23 -24q-32 -50 -96 -50q-17 0 -35.5 4.5t-38 25t-19.5 54.5q0 65 96 129h3l2 69q-51 -80 -155 -80q-188 0 -188 186v326h32v-329q0 -153 156 -153q68 0 110.5 37.5t42.5 105.5v339h32v-501h1q-99 -73 -102 -127q-1 -25 17 -41t45 -16q46 0 74 45z" />
    <glyph glyph-name="Ydieresis" unicode="&#x178;" horiz-adv-x="576" 
d="M388 -7l-8 25q17 6 25 10.5t24 18.5t23.5 40.5t7.5 64.5v173q-29 -43 -81.5 -61.5t-100.5 -18.5q-106 0 -167.5 52.5t-61.5 155.5v247h32v-247q0 -85 50.5 -130.5t146.5 -45.5q73 0 122.5 35t59.5 91v297h32v-551q0 -134 -104 -156z" />
    <glyph glyph-name="Zacute" unicode="&#x179;" horiz-adv-x="566" 
d="M524 0h-487v30l441 640h-427l-1 30h468v-30l-441 -640h447v-30zM313 785h-28l54 124q10 23 30 15q10 -4 12.5 -14t-3.5 -19z" />
    <glyph glyph-name="zacute" unicode="&#x17a;" horiz-adv-x="435" 
d="M403 0h-367v30l306 441h-297v30h337v-30l-307 -441h328v-30zM210 538h-28l54 124q10 23 30 15q10 -4 12.5 -14t-3.5 -19z" />
    <glyph glyph-name="Zdotaccent" unicode="&#x17b;" horiz-adv-x="566" 
d="M524 0h-487v30l441 640h-427l-1 30h468v-30l-441 -640h447v-30zM294 752q-9 0 -15 6t-6 15q0 8 6 14t15 6q8 0 14 -6t6 -14q0 -9 -6 -15t-14 -6z" />
    <glyph glyph-name="zdotaccent" unicode="&#x17c;" horiz-adv-x="435" 
d="M403 0h-367v30l306 441h-297v30h337v-30l-307 -441h328v-30zM219 561q-9 0 -15 6t-6 15q0 8 6 14t15 6q8 0 14 -6t6 -14q0 -9 -6 -15t-14 -6z" />
    <glyph glyph-name="Zcaron" unicode="&#x17d;" horiz-adv-x="566" 
d="M524 0h-487v30l441 640h-427l-1 30h468v-30l-441 -640h447v-30zM450 925l-142 -141l-148 141l23 23l124 -118l120 118z" />
    <glyph glyph-name="zcaron" unicode="&#x17e;" horiz-adv-x="435" 
d="M403 0h-367v30l306 441h-297v30h337v-30l-307 -441h328v-30zM367 732l-142 -141l-148 141l23 23l124 -118l120 118z" />
    <glyph glyph-name="florin" unicode="&#x192;" horiz-adv-x="257" 
 />
    <glyph glyph-name="Scommaaccent" unicode="&#x218;" horiz-adv-x="558" 
d="M48 178h34q2 -59 55 -108.5t146 -49.5q90 0 147.5 40t57.5 127q0 48 -31.5 82.5t-78 52t-101.5 37.5t-101.5 38t-78 54.5t-31.5 86.5q0 70 58 121t167 51q83 0 146 -30l-11 -32q-60 31 -133 31q-84 0 -138.5 -37.5t-54.5 -106.5q0 -49 43.5 -81.5t106 -52t124.5 -42
t105.5 -65t43.5 -105.5q0 -92 -58.5 -146t-180.5 -54q-109 0 -171.5 57.5t-64.5 131.5zM253 -184l-25 17q24 13 40 29.5t20 25.5l3 10l-5 1q-15 7 -15 23q0 8 6.5 14t15.5 6t15.5 -7t6.5 -16q0 -52 -62 -103z" />
    <glyph glyph-name="scommaaccent" unicode="&#x219;" horiz-adv-x="430" 
d="M40 127h31q5 -48 46 -79.5t108 -31.5q61 0 102 29t41 79q0 40 -30.5 66.5t-74.5 40.5t-88.5 28t-79 40t-39.5 66q-7 55 34.5 101.5t132.5 46.5q31 0 59 -7.5t40 -15.5l13 -7l-13 -27q-41 26 -99 27q-57 1 -99 -27.5t-37 -84.5q3 -32 36.5 -53.5t79 -34.5t90.5 -29t76 -48
t31 -81q0 -60 -44.5 -100t-130.5 -40q-85 0 -134 41t-51 101zM187 -184l-25 17q24 13 40 29.5t20 25.5l3 10l-5 1q-15 7 -15 23q0 8 6.5 14t15.5 6t15.5 -7t6.5 -16q0 -52 -62 -103z" />
    <glyph glyph-name="circumflex" unicode="&#x2c6;" horiz-adv-x="523" 
d="M382 606l-119 119l-123 -119l-24 24l148 141l142 -141z" />
    <glyph glyph-name="caron" unicode="&#x2c7;" horiz-adv-x="522" 
d="M405 732l-142 -141l-148 141l23 23l124 -118l120 118z" />
    <glyph glyph-name="breve" unicode="&#x2d8;" horiz-adv-x="522" 
d="M374 700v-5q0 -47 -33 -80t-80 -33t-80 33t-33 80v5h29v-5q0 -31 23.5 -57.5t60.5 -26.5q36 0 60 26.5t24 57.5v5h29z" />
    <glyph glyph-name="dotaccent" unicode="&#x2d9;" horiz-adv-x="523" 
d="M262 669q-9 0 -15 6t-6 15q0 8 6 14t15 6q8 0 14 -6t6 -14q0 -9 -6 -15t-14 -6z" />
    <glyph glyph-name="ring" unicode="&#x2da;" horiz-adv-x="522" 
d="M261 578q34 0 58.5 24.5t24.5 59.5q0 34 -24 58.5t-59 24.5t-59.5 -24.5t-24.5 -58.5t24.5 -59t59.5 -25zM261 549q-47 0 -80 33.5t-33 79.5t33 79.5t80 33.5t80 -33.5t33 -79.5t-33 -79.5t-80 -33.5z" />
    <glyph glyph-name="ogonek" unicode="&#x2db;" horiz-adv-x="523" 
d="M333 -136l23 -24q-32 -50 -96 -50q-17 0 -35.5 4.5t-38 25t-19.5 54.5q0 65 96 129h36q-99 -73 -102 -127q-1 -25 17 -41t45 -16q46 0 74 45z" />
    <glyph glyph-name="tilde" unicode="&#x2dc;" horiz-adv-x="523" 
d="M411 692l16 -24q-25 -25 -49.5 -34.5t-46 -6t-42.5 12t-41.5 17.5t-41 12t-43.5 -6.5t-46 -34.5l-16 24q35 39 70.5 47t64.5 -3.5t57 -24.5t59 -11t59 32z" />
    <glyph glyph-name="hungarumlaut" unicode="&#x2dd;" horiz-adv-x="522" 
d="M302 568h-28l54 124q10 23 30 15q10 -4 12.5 -14t-3.5 -19zM190 568h-28l54 124q10 23 30 15q10 -4 12.5 -14t-3.5 -19z" />
    <glyph glyph-name="dieresistonos" unicode="&#x385;" horiz-adv-x="522" 
d="M266 731h-28l54 124q10 23 30 15q10 -4 12.5 -14t-3.5 -19zM183 686q-9 0 -15.5 6.5t-6.5 14.5q0 9 6.5 15.5t15.5 6.5q8 0 14.5 -6.5t6.5 -15.5q0 -8 -6.5 -14.5t-14.5 -6.5zM341 687q-9 0 -15.5 6.5t-6.5 14.5q0 9 6.5 15.5t15.5 6.5q8 0 14.5 -6.5t6.5 -15.5
q0 -8 -6.5 -14.5t-14.5 -6.5z" />
    <glyph glyph-name="Alphatonos" unicode="&#x386;" horiz-adv-x="554" 
d="M541 0h-35l-91 268h-254l-92 -268h-33l238 700h27zM405 300l-118 344l-116 -344h234zM89 568h-28l54 124q10 23 30 15q10 -4 12.5 -14t-3.5 -19z" />
    <glyph glyph-name="Epsilontonos" unicode="&#x388;" horiz-adv-x="572" 
d="M47 568h-28l54 124q10 23 30 15q10 -4 12.5 -14t-3.5 -19zM518 0h-332v700h334v-31h-302v-256h215l-11 -32h-204v-351h300v-30z" />
    <glyph glyph-name="Etatonos" unicode="&#x389;" horiz-adv-x="705" 
d="M47 568h-28l54 124q10 23 30 15q10 -4 12.5 -14t-3.5 -19zM618 0h-32v381h-366v-381h-32v700h32v-287h366v287h32v-700z" />
    <glyph glyph-name="Iotatonos" unicode="&#x38a;" horiz-adv-x="371" 
d="M284 0h-32v668l-80 2v30h112v-700zM44 568h-28l54 124q10 23 30 15q10 -4 12.5 -14t-3.5 -19z" />
    <glyph glyph-name="Omicrontonos" unicode="&#x38c;" horiz-adv-x="629" 
d="M559 506v-321q0 -101 -61.5 -148.5t-147.5 -47.5t-148.5 47.5t-62.5 148.5v322q0 103 56.5 156t155.5 53t153.5 -56t54.5 -154zM527 185v327q0 81 -46 126.5t-132 45.5t-132 -45.5t-46 -127.5v-326q0 -82 51.5 -123.5t126.5 -41.5q77 0 127.5 39.5t50.5 125.5zM50 568
h-28l54 124q10 23 30 15q10 -4 12.5 -14t-3.5 -19z" />
    <glyph glyph-name="Upsilontonos" unicode="&#x38e;" horiz-adv-x="706" 
d="M40 568h-28l54 124q10 23 30 15q10 -4 12.5 -14t-3.5 -19zM518 -7l-8 25q17 6 25 10.5t24 18.5t23.5 40.5t7.5 64.5v173q-29 -43 -81.5 -61.5t-100.5 -18.5q-106 0 -167.5 52.5t-61.5 155.5v247h32v-247q0 -85 50.5 -130.5t146.5 -45.5q73 0 122.5 35t59.5 91v297h32
v-551q0 -134 -104 -156z" />
    <glyph glyph-name="Omegatonos" unicode="&#x38f;" horiz-adv-x="695" 
d="M633 0h-228v31q30 2 60 11t59 27t47.5 51t18.5 76v310q0 85 -43.5 128t-114.5 43h-112q-72 0 -114.5 -43.5t-42.5 -127.5v-310q0 -57 32.5 -95.5t71.5 -53t80 -16.5v-31h-228l10 31h108q-56 28 -80.5 67.5t-24.5 97.5v307q0 92 47 148t141 56h112q94 0 141 -56t47 -148
v-307q0 -60 -25.5 -97.5t-80.5 -67.5h107zM53 568h-28l54 124q10 23 30 15q10 -4 12.5 -14t-3.5 -19z" />
    <glyph glyph-name="iotadieresistonos" unicode="&#x390;" 
d="M102 0h-32v501h32v-501zM97 613h-28l54 124q10 23 30 15q10 -4 12.5 -14t-3.5 -19zM10 579q-9 0 -15.5 6.5t-6.5 14.5q0 9 6.5 15.5t15.5 6.5q8 0 14.5 -6.5t6.5 -15.5q0 -8 -6.5 -14.5t-14.5 -6.5zM168 580q-9 0 -15.5 6.5t-6.5 14.5q0 9 6.5 15.5t15.5 6.5
q8 0 14.5 -6.5t6.5 -15.5q0 -8 -6.5 -14.5t-14.5 -6.5z" />
    <glyph glyph-name="Alpha" unicode="&#x391;" horiz-adv-x="532" 
d="M519 0h-35l-91 268h-254l-92 -268h-33l238 700h27zM383 300l-118 344l-116 -344h234z" />
    <glyph glyph-name="Beta" unicode="&#x392;" horiz-adv-x="573" 
d="M317 0h-230v700h221q82 0 130 -42.5t46 -127.5q-1 -37 -20.5 -73.5t-59.5 -56.5q-1 -1 -1 -2v-1q50 -20 83.5 -66t33.5 -122q0 -39 -9.5 -73.5t-31 -66t-63 -50.5t-99.5 -19zM119 413h212q49 0 84 32t36 85q3 70 -36.5 104.5t-114.5 34.5h-181v-256zM119 31h196
q82 0 127 45t45 137q0 75 -45 121.5t-119 46.5h-204v-350z" />
    <glyph glyph-name="Gamma" unicode="&#x393;" horiz-adv-x="434" 
d="M119 0h-32v700h334v-32h-302v-668z" />
    <glyph glyph-name="uni0394" unicode="&#x394;" horiz-adv-x="537" 
d="M522 0h-505l234 700h31zM478 30l-211 623l-207 -623h418z" />
    <glyph glyph-name="Epsilon" unicode="&#x395;" horiz-adv-x="473" 
d="M419 0h-332v700h334v-31h-302v-256h215l-11 -32h-204v-351h300v-30z" />
    <glyph glyph-name="Zeta" unicode="&#x396;" horiz-adv-x="566" 
d="M524 0h-487v30l441 640h-427l-1 30h468v-30l-441 -640h447v-30z" />
    <glyph glyph-name="Eta" unicode="&#x397;" horiz-adv-x="604" 
d="M517 0h-32v381h-366v-381h-32v700h32v-287h366v287h32v-700z" />
    <glyph glyph-name="Theta" unicode="&#x398;" horiz-adv-x="560" 
d="M490 506v-321q0 -101 -61.5 -148.5t-147.5 -47.5t-148.5 47.5t-62.5 148.5v322q0 103 56.5 156t155.5 53t153.5 -56t54.5 -154zM458 360v152q0 81 -46 126.5t-132 45.5t-132 -45.5t-46 -127.5v-151h356zM458 185v143h-356v-143q0 -82 51.5 -123.5t126.5 -41.5
q77 0 127.5 39.5t50.5 125.5z" />
    <glyph glyph-name="Iota" unicode="&#x399;" horiz-adv-x="227" 
d="M140 0h-32v668l-80 2v30h112v-700z" />
    <glyph glyph-name="Kappa" unicode="&#x39a;" horiz-adv-x="493" 
d="M484 0h-37l-248 383l-80 -107v-276h-32v701h32v-372l276 372h37l-213 -290z" />
    <glyph glyph-name="Lambda" unicode="&#x39b;" horiz-adv-x="533" 
d="M520 0h-34l-221 650l-217 -650h-33l235 700h31z" />
    <glyph glyph-name="Mu" unicode="&#x39c;" horiz-adv-x="710" 
d="M623 0h-31v608l-221 -608h-33l-220 608v-608h-31v700h31l237 -650l237 650h31v-700z" />
    <glyph glyph-name="Nu" unicode="&#x39d;" horiz-adv-x="666" 
d="M579 0h-31l-430 644v-644h-31v700h31l430 -643v643h31v-700z" />
    <glyph glyph-name="Xi" unicode="&#x39e;" horiz-adv-x="594" 
d="M431 381h-264v32h264v-32zM497 669h-312q-52 0 -78 -22t-40 -62l-27 10q16 56 51 80.5t94 24.5h325zM522 116l27 -10q-16 -56 -51 -81t-94 -25h-325l13 31h312q52 0 78 22t40 63z" />
    <glyph glyph-name="Omicron" unicode="&#x39f;" horiz-adv-x="560" 
d="M490 506v-321q0 -101 -61.5 -148.5t-147.5 -47.5t-148.5 47.5t-62.5 148.5v322q0 103 56.5 156t155.5 53t153.5 -56t54.5 -154zM458 185v327q0 81 -46 126.5t-132 45.5t-132 -45.5t-46 -127.5v-326q0 -82 51.5 -123.5t126.5 -41.5q77 0 127.5 39.5t50.5 125.5z" />
    <glyph glyph-name="Pi" unicode="&#x3a0;" horiz-adv-x="604" 
d="M517 0h-32v668h-366v-668h-32v700h430v-700z" />
    <glyph glyph-name="Rho" unicode="&#x3a1;" horiz-adv-x="559" 
d="M119 300h207q163 0 163 186q0 86 -38.5 134t-115.5 48h-216v-368zM119 0h-32v700h246q95 0 141.5 -58t46.5 -156q0 -31 -3 -57t-15 -57.5t-31.5 -52.5t-57 -36t-87.5 -15h-208v-268z" />
    <glyph glyph-name="Sigma" unicode="&#x3a3;" horiz-adv-x="529" 
d="M464 116l28 -10q-16 -56 -51 -81t-94 -25h-323l226 384l-210 316h428l-12 -32h-356l188 -283l-209 -354h256q52 0 83 18.5t46 66.5z" />
    <glyph glyph-name="Tau" unicode="&#x3a4;" horiz-adv-x="429" 
d="M230 0h-31l-1 669h-182v31h402v-31h-188v-669z" />
    <glyph glyph-name="Upsilon" unicode="&#x3a5;" horiz-adv-x="576" 
d="M388 -7l-8 25q17 6 25 10.5t24 18.5t23.5 40.5t7.5 64.5v173q-29 -43 -81.5 -61.5t-100.5 -18.5q-106 0 -167.5 52.5t-61.5 155.5v247h32v-247q0 -85 50.5 -130.5t146.5 -45.5q73 0 122.5 35t59.5 91v297h32v-551q0 -134 -104 -156z" />
    <glyph glyph-name="Phi" unicode="&#x3a6;" horiz-adv-x="670" 
d="M350 -32l-33 7v55h-57q-95 0 -141.5 52t-46.5 143v292q0 152 116 189l16 -26q-100 -31 -100 -163v-302q0 -77 41.5 -116t114.5 -39h57v545q1 50 27.5 78t73.5 28q82 0 131.5 -55t49.5 -145v-286q0 -91 -46.5 -143t-141.5 -52h-61v-62zM567 215v306q0 42 -14.5 75
t-37.5 51t-47 26.5t-47 7.5q-71 -3 -71 -85v-536h65q72 0 112 41t40 114z" />
    <glyph glyph-name="Chi" unicode="&#x3a7;" horiz-adv-x="552" 
d="M529 2l-39 -2l-214 328l-214 -328h-40l235 360l-216 340h36l199 -310l199 310h38l-217 -340z" />
    <glyph glyph-name="Psi" unicode="&#x3a8;" horiz-adv-x="634" 
d="M332 0h-33v212h-56q-95 0 -141.5 51.5t-46.5 142.5v294h32v-298q0 -82 42.5 -121t113.5 -39h56v458h33v-458h62q76 0 116 41.5t40 118.5v162q0 20 -1 36.5t-5 29.5t-6 20.5t-9 16.5t-8.5 11.5t-11 11t-10.5 9.5l27 10q27 -17 40 -46.5t14.5 -50.5t1.5 -63v-143
q0 -91 -46.5 -142.5t-141.5 -51.5h-62v-212z" />
    <glyph glyph-name="uni03A9" unicode="&#x3a9;" horiz-adv-x="641" 
d="M576 0h-228v31q30 2 60 11t59 27t47.5 51t18.5 76v310q0 85 -43.5 128t-114.5 43h-112q-72 0 -114.5 -43.5t-42.5 -127.5v-310q0 -57 32.5 -95.5t71.5 -53t80 -16.5v-31h-228l10 31h108q-56 28 -80.5 67.5t-24.5 97.5v307q0 92 47 148t141 56h112q94 0 141 -56t47 -148
v-307q0 -60 -25.5 -97.5t-80.5 -67.5h107z" />
    <glyph glyph-name="Iotadieresis" unicode="&#x3aa;" horiz-adv-x="227" 
d="M140 0h-32v668l-80 2v30h112v-700zM46 753q-9 0 -15 6.5t-6 15.5q0 8 6 14.5t15 6.5q8 0 14.5 -6.5t6.5 -14.5q0 -9 -6.5 -15.5t-14.5 -6.5zM205 754q-9 0 -15.5 6.5t-6.5 14.5q0 9 6.5 15.5t15.5 6.5q8 0 14.5 -6.5t6.5 -15.5q0 -8 -6.5 -14.5t-14.5 -6.5z" />
    <glyph glyph-name="Upsilondieresis.alt" unicode="&#x3ab;" horiz-adv-x="483" 
d="M257 0h-31v341l-220 359h37l198 -323l200 323h37l-221 -358v-342zM157 751q-9 0 -15 6.5t-6 15.5q0 8 6 14.5t15 6.5q8 0 14.5 -6.5t6.5 -14.5q0 -9 -6.5 -15.5t-14.5 -6.5zM316 752q-9 0 -15.5 6.5t-6.5 14.5q0 9 6.5 15.5t15.5 6.5q8 0 14.5 -6.5t6.5 -15.5
q0 -8 -6.5 -14.5t-14.5 -6.5z" />
    <glyph glyph-name="alphatonos" unicode="&#x3ac;" horiz-adv-x="493" 
d="M444 21l-13 -20q-21 4 -35 3q-36 -4 -55 -5.5t-53.5 -3t-53.5 0t-47 5.5t-44 12.5t-35 21.5t-28.5 31.5t-16.5 44.5t-7 58v185q0 70 33.5 108.5t85.5 43.5t107.5 -7.5t107.5 -39.5l12 39l26 -12q-7 -43 -7 -75v-370q7 -11 23 -20zM389 33v394q-51 26 -101 39t-96.5 11
t-75 -33.5t-28.5 -92.5v-189q0 -68 38 -101t105 -35t158 7zM243 538h-28l54 124q10 23 30 15q10 -4 12.5 -14t-3.5 -19z" />
    <glyph glyph-name="epsilontonos" unicode="&#x3ad;" horiz-adv-x="416" 
d="M219 538h-28l54 124q10 23 30 15q10 -4 12.5 -14t-3.5 -19zM379 54l10 -31q-78 -34 -170 -34q-77 0 -123 41t-51 102q-9 119 88 152q-32 7 -53 43t-14 79q8 51 51.5 78.5t96.5 26.5t105 -15v-32q-41 16 -89.5 18t-89 -20.5t-43.5 -69.5q-2 -34 19 -62.5t65 -28.5h137
l-11 -31h-103q-52 0 -90 -31t-38 -89q0 -62 40 -95.5t107 -33.5q37 0 76 8.5t59 16.5z" />
    <glyph glyph-name="etatonos" unicode="&#x3ae;" horiz-adv-x="504" 
d="M269 538h-28l54 124q10 23 30 15q10 -4 12.5 -14t-3.5 -19zM439 -211l-32 14v543q0 57 -33 90.5t-81 40t-99.5 -2t-91.5 -30.5v-444h-32v501h32v-26q55 31 130 34.5t122 -19.5q85 -39 85 -144v-557z" />
    <glyph glyph-name="iotatonos" unicode="&#x3af;" 
d="M95 538h-28l54 124q10 23 30 15q10 -4 12.5 -14t-3.5 -19zM102 0h-32v501h32v-501z" />
    <glyph glyph-name="upsilondieresistonos" unicode="&#x3b0;" horiz-adv-x="508" 
d="M412 165v336h32v-329q0 -182 -192 -182q-188 0 -188 182v329h32v-336q0 -145 156 -145q160 0 160 145zM268 614h-28l54 124q10 23 30 15q10 -4 12.5 -14t-3.5 -19zM179 579q-9 0 -15.5 6.5t-6.5 14.5q0 9 6.5 15.5t15.5 6.5q8 0 14.5 -6.5t6.5 -15.5q0 -8 -6.5 -14.5
t-14.5 -6.5zM337 580q-9 0 -15.5 6.5t-6.5 14.5q0 9 6.5 15.5t15.5 6.5q8 0 14.5 -6.5t6.5 -15.5q0 -8 -6.5 -14.5t-14.5 -6.5z" />
    <glyph glyph-name="alpha" unicode="&#x3b1;" horiz-adv-x="493" 
d="M444 21l-13 -20q-21 4 -35 3q-36 -4 -55 -5.5t-53.5 -3t-53.5 0t-47 5.5t-44 12.5t-35 21.5t-28.5 31.5t-16.5 44.5t-7 58v185q0 70 33.5 108.5t85.5 43.5t107.5 -7.5t107.5 -39.5l12 39l26 -12q-7 -43 -7 -75v-370q7 -11 23 -20zM389 33v394q-51 26 -101 39t-96.5 11
t-75 -33.5t-28.5 -92.5v-189q0 -68 38 -101t105 -35t158 7z" />
    <glyph glyph-name="beta" unicode="&#x3b2;" horiz-adv-x="494" 
d="M102 -161h-32v698q0 77 34.5 120t105.5 44q58 0 91 -39t27.5 -88.5t-46.5 -76.5q71 -5 114.5 -51t43.5 -116v-184q0 -51 -23 -86t-58 -51.5t-82 -23t-89 -4t-86 9.5v-152zM408 146v181q0 64 -35.5 99t-86.5 39t-100 -5.5t-84 -27.5v-410q51 -10 100.5 -11.5t98 8.5t78 42
t29.5 85zM102 534v-71q22 12 136 43q40 11 53 51t-10 76.5t-71 36.5q-108 0 -108 -136z" />
    <glyph glyph-name="gamma" unicode="&#x3b3;" horiz-adv-x="485" 
d="M267 -176l-23 -21q-41 43 -15 119l22 73q-20 6 -33 12.5t-30 20.5t-31 39.5t-24 61.5l-108 372h32l106 -361q31 -105 99 -114l110 362q15 50 34 78.5t57 43.5l24 -21q-32 -14 -50 -34.5t-37 -78.5l-125 -418q-20 -59 -21.5 -86.5t13.5 -47.5z" />
    <glyph glyph-name="delta" unicode="&#x3b4;" horiz-adv-x="475" 
d="M426 286v-102q0 -194 -185 -194q-95 0 -141.5 51.5t-46.5 142.5v126q0 79 39.5 130t107.5 65q-42 32 -48 79.5t26 84t92 36.5h43l-14 -30h-33q-45 0 -67.5 -29t-11.5 -67t52 -62q50 -29 76.5 -47t56 -46t42 -61.5t12.5 -76.5zM394 180v121q0 103 -158 181
q-65 -6 -108 -51t-43 -121v-130q0 -85 45 -122.5t111 -37.5t109.5 36.5t43.5 123.5z" />
    <glyph glyph-name="epsilon" unicode="&#x3b5;" horiz-adv-x="416" 
d="M379 54l10 -31q-78 -34 -170 -34q-77 0 -123 41t-51 102q-9 119 88 152q-32 7 -53 43t-14 79q8 51 51.5 78.5t96.5 26.5t105 -15v-32q-41 16 -89.5 18t-89 -20.5t-43.5 -69.5q-2 -34 19 -62.5t65 -28.5h137l-11 -31h-103q-52 0 -90 -31t-38 -89q0 -62 40 -95.5t107 -33.5
q37 0 76 8.5t59 16.5z" />
    <glyph glyph-name="zeta" unicode="&#x3b6;" horiz-adv-x="404" 
d="M367 -194l-32 -15v220q-128 -30 -204.5 9.5t-89.5 118.5q-7 44 2.5 98.5t30.5 98.5q74 154 263 335h-231v29h273l9 -30q-61 -48 -140.5 -138t-127.5 -175q-27 -49 -40.5 -101.5t-6.5 -103.5t39 -80q76 -71 255 -21v-245z" />
    <glyph glyph-name="eta" unicode="&#x3b7;" horiz-adv-x="504" 
d="M439 -211l-32 14v543q0 57 -33 90.5t-81 40t-99.5 -2t-91.5 -30.5v-444h-32v501h32v-26q55 31 130 34.5t122 -19.5q85 -39 85 -144v-557z" />
    <glyph glyph-name="theta" unicode="&#x3b8;" horiz-adv-x="495" 
d="M433 505v-314q0 -89 -49.5 -143t-140.5 -54q-92 1 -141 54.5t-49 142.5v134q2 70 55 112q-36 70 -34.5 130.5t47 101.5t120.5 41q95 -2 143.5 -56t48.5 -149zM401 185v290q-38 3 -88.5 -2.5t-103 -20t-88.5 -47.5t-36 -79v-135q0 -77 42.5 -122t115.5 -45
q71 0 114.5 45.5t43.5 115.5zM136 453q53 34 130 46t135 6q0 86 -43 130.5t-117 44.5q-94 0 -124.5 -70.5t19.5 -156.5z" />
    <glyph glyph-name="iota" unicode="&#x3b9;" 
d="M102 0h-32v501h32v-501z" />
    <glyph glyph-name="kappa" unicode="&#x3ba;" horiz-adv-x="448" 
d="M439 29v-30q-37 0 -68.5 26.5t-67.5 76.5l-121 168l-80 -84v-186h-32v512l32 -8v-275l250 272h43l-191 -208l127 -179q63 -85 108 -85z" />
    <glyph glyph-name="lambda" unicode="&#x3bb;" horiz-adv-x="488" 
d="M490 9l-24 -20q-28 12 -47.5 33t-28 40t-18.5 52l-109 362q-46 -23 -66.5 -48.5t-31.5 -66.5l-106 -361h-33l108 372q9 26 19.5 45.5t24.5 33.5t23 22t27 19.5t24 15.5l-23 71q-17 56 -46 74t-71 19v28q61 1 94 -23.5t53 -83.5l143 -471q12 -38 28 -62t27.5 -32t32.5 -19
z" />
    <glyph glyph-name="uni03BC" unicode="&#x3bc;" horiz-adv-x="522" 
d="M476 18l-18 -21q-8 0 -20.5 14t-15.5 37q-45 -62 -153 -59q-17 0 -34 3t-30.5 6.5t-27 9.5t-22.5 11t-19.5 12l-15 10t-11.5 9l-7 6v-261l-32 4v702h32v-405q7 -9 24.5 -24t59.5 -34t87 -20q59 -1 102 26.5t43 97.5v361l32 7v-445q1 -38 26 -47z" />
    <glyph glyph-name="nu" unicode="&#x3bd;" horiz-adv-x="410" 
d="M223 0h-36l-174 501h33l159 -457l160 457h33z" />
    <glyph glyph-name="xi" unicode="&#x3be;" horiz-adv-x="394" 
d="M358 -202l-31 -16v223q-123 -22 -197 16.5t-74 142.5v184q0 71 44.5 116.5t106.5 49.5q-38 28 -44.5 74.5t25 83t92.5 36.5h43l-15 -30h-34q-36 0 -57 -21t-22 -48.5t16.5 -54t49.5 -36.5q30 -9 75 -24l-10 -28q-35 15 -75.5 17t-77 -9t-61 -44t-24.5 -85v-185
q0 -50 24.5 -81.5t64.5 -41.5t86 -8t95 16v-247z" />
    <glyph glyph-name="omicron" unicode="&#x3bf;" horiz-adv-x="477" 
d="M425 316v-132q0 -84 -46 -139t-139 -55t-140.5 55.5t-47.5 138.5v132q0 95 48.5 145.5t139.5 50.5q87 0 136 -52.5t49 -143.5zM393 180v139q0 82 -43 122.5t-110 40.5q-70 0 -113 -40.5t-43 -122.5v-139q0 -68 39 -114.5t117 -46.5q76 0 114.5 45.5t38.5 115.5z" />
    <glyph glyph-name="pi" unicode="&#x3c0;" horiz-adv-x="522" 
d="M475 23l-18 -22q-4 2 -11 7t-18 25t-11 46l1 393h-316v-472h-32v501h379v-427q2 -34 26 -51z" />
    <glyph glyph-name="rho" unicode="&#x3c1;" horiz-adv-x="490" 
d="M94 -202l-31 -9v526q0 89 48 140.5t133 51.5q192 0 192 -202v-133q0 -182 -190 -182q-102 0 -152 79v-271zM404 170v137q0 43 -11 75t-26.5 49.5t-38.5 28t-42.5 13.5t-42.5 3q-64 0 -106.5 -39t-42.5 -123v-147q0 -72 43.5 -110t108.5 -38q158 0 158 151z" />
    <glyph glyph-name="sigma1" unicode="&#x3c2;" horiz-adv-x="354" 
d="M326 -147l-26 17q16 21 8 55.5t-41 55.5q-11 7 -40.5 25t-41.5 25.5t-36 24t-34.5 27.5t-26.5 29t-23 33.5t-12.5 37t-5.5 44.5v140q0 53 41.5 95.5t130.5 42.5q32 0 60 -6.5t40 -13.5l12 -7l-12 -27q-35 24 -98 24q-57 0 -99.5 -27t-42.5 -85v-129q0 -68 42.5 -113
t155.5 -112q46 -27 59.5 -71t-10.5 -85z" />
    <glyph glyph-name="sigma" unicode="&#x3c3;" horiz-adv-x="493" 
d="M428 310v-135q0 -194 -185 -194q-95 0 -141.5 51.5t-46.5 142.5v179q0 48 18.5 81.5t48.5 48.5t67 21.5t74 -0.5q58 -9 97 -2t75 40l25 -10q-33 -53 -104 -61q72 -43 72 -162zM397 171v139q0 112 -79 157q-43 11 -81 11.5t-73 -9.5t-56 -40t-21 -78v-180
q0 -81 41.5 -120.5t114.5 -39.5q154 0 154 160z" />
    <glyph glyph-name="tau" unicode="&#x3c4;" horiz-adv-x="334" 
d="M249 13l-9 -26q-54 16 -74 49.5t-20 95.5v336h-132v32h301v-32h-137v-336q0 -58 16 -82t55 -37z" />
    <glyph glyph-name="upsilon" unicode="&#x3c5;" horiz-adv-x="508" 
d="M412 165v336h32v-329q0 -182 -192 -182q-188 0 -188 182v329h32v-336q0 -145 156 -145q160 0 160 145z" />
    <glyph glyph-name="phi" unicode="&#x3c6;" horiz-adv-x="633" 
d="M330 -213l-31 9l-1 199h-56q-95 0 -141.5 51.5t-46.5 142.5v125q0 152 116 189l16 -26q-45 -11 -73 -51t-28 -111v-136q0 -77 43.5 -116t113.5 -39h56v378q2 46 27 75.5t72 29.5q85 0 134.5 -54.5t49.5 -145.5v-118q0 -91 -46.5 -142.5t-141.5 -51.5h-63v-208zM550 183
v134q0 45 -15.5 78t-40 50t-47.5 24.5t-45 7.5q-38 0 -55 -23t-17 -58v-373h63q76 0 116.5 42t40.5 118z" />
    <glyph glyph-name="chi" unicode="&#x3c7;" horiz-adv-x="415" 
d="M454 -188l-17 -24q-42 0 -69 26.5t-52 75.5l-112 227l-163 -318l-30 12l176 340l-174 350h35l156 -316l163 316h36l-182 -351l125 -253q23 -47 47.5 -64t60.5 -21z" />
    <glyph glyph-name="psi" unicode="&#x3c8;" horiz-adv-x="649" 
d="M340 -218l-33 7v206h-56q-95 0 -141.5 51.5t-46.5 142.5v311h32v-314q0 -87 44 -124t112 -37h56v475h33v-475h62q69 0 112.5 37.5t43.5 125.5v173q0 59 -11.5 85.5t-38.5 48.5l26 11q27 -17 40 -46.5t14.5 -50.5t1.5 -63v-157q0 -91 -46.5 -142.5t-141.5 -51.5h-62v-213z
" />
    <glyph glyph-name="omega" unicode="&#x3c9;" horiz-adv-x="640" 
d="M554 180v140q0 62 -26.5 102.5t-68.5 49.5l20 28q107 -40 107 -183v-129q0 -200 -161 -200q-31 0 -60.5 15t-44.5 44q-15 -28 -45 -43.5t-60 -15.5q-161 0 -161 200v129q0 143 107 183l18 -27q-41 -10 -67 -51t-26 -102v-141q0 -47 12 -80.5t32.5 -50t40 -23t41.5 -6.5
q89 0 92 108v172h33v-172q1 -108 91 -108q22 0 41.5 6t40 22t32.5 50t12 83z" />
    <glyph glyph-name="iotadieresis" unicode="&#x3ca;" 
d="M102 0h-32v501h32v-501zM7 561q-9 0 -15 6.5t-6 15.5q0 8 6 14.5t15 6.5q8 0 14.5 -6.5t6.5 -14.5q0 -9 -6.5 -15.5t-14.5 -6.5zM166 562q-9 0 -15.5 6.5t-6.5 14.5q0 9 6.5 15.5t15.5 6.5q8 0 14.5 -6.5t6.5 -15.5q0 -8 -6.5 -14.5t-14.5 -6.5z" />
    <glyph glyph-name="upsilondieresis" unicode="&#x3cb;" horiz-adv-x="508" 
d="M412 165v336h32v-329q0 -182 -192 -182q-188 0 -188 182v329h32v-336q0 -145 156 -145q160 0 160 145zM179 561q-9 0 -15 6.5t-6 15.5q0 8 6 14.5t15 6.5q8 0 14.5 -6.5t6.5 -14.5q0 -9 -6.5 -15.5t-14.5 -6.5zM338 562q-9 0 -15.5 6.5t-6.5 14.5q0 9 6.5 15.5t15.5 6.5
q8 0 14.5 -6.5t6.5 -15.5q0 -8 -6.5 -14.5t-14.5 -6.5z" />
    <glyph glyph-name="omicrontonos" unicode="&#x3cc;" horiz-adv-x="477" 
d="M241 538h-28l54 124q10 23 30 15q10 -4 12.5 -14t-3.5 -19zM425 316v-132q0 -84 -46 -139t-139 -55t-140.5 55.5t-47.5 138.5v132q0 95 48.5 145.5t139.5 50.5q87 0 136 -52.5t49 -143.5zM393 180v139q0 82 -43 122.5t-110 40.5q-70 0 -113 -40.5t-43 -122.5v-139
q0 -68 39 -114.5t117 -46.5q76 0 114.5 45.5t38.5 115.5z" />
    <glyph glyph-name="upsilontonos" unicode="&#x3cd;" horiz-adv-x="508" 
d="M263 538h-28l54 124q10 23 30 15q10 -4 12.5 -14t-3.5 -19zM412 165v336h32v-329q0 -182 -192 -182q-188 0 -188 182v329h32v-336q0 -145 156 -145q160 0 160 145z" />
    <glyph glyph-name="omegatonos" unicode="&#x3ce;" horiz-adv-x="640" 
d="M327 538h-28l54 124q10 23 30 15q10 -4 12.5 -14t-3.5 -19zM554 180v140q0 62 -26.5 102.5t-68.5 49.5l20 28q107 -40 107 -183v-129q0 -200 -161 -200q-31 0 -60.5 15t-44.5 44q-15 -28 -45 -43.5t-60 -15.5q-161 0 -161 200v129q0 143 107 183l18 -27q-41 -10 -67 -51
t-26 -102v-141q0 -47 12 -80.5t32.5 -50t40 -23t41.5 -6.5q89 0 92 108v172h33v-172q1 -108 91 -108q22 0 41.5 6t40 22t32.5 50t12 83z" />
    <glyph glyph-name="quoteleft" unicode="&#x2018;" horiz-adv-x="176" 
d="M78 630l5 -1q15 -7 15 -23q0 -8 -6.5 -14t-15.5 -6q-8 0 -15 7t-7 16q0 52 62 103l25 -17q-24 -13 -40 -29.5t-19 -25.5z" />
    <glyph glyph-name="quoteright" unicode="&#x2019;" horiz-adv-x="180" 
d="M71 560l-25 17q24 13 39.5 29.5t19.5 25.5l4 10l-5 1q-15 7 -15 23q0 8 6.5 14t15.5 6t15.5 -7t6.5 -16q0 -52 -62 -103z" />
    <glyph glyph-name="quotesinglbase" unicode="&#x201a;" horiz-adv-x="204" 
d="M62 -84l-25 17q24 13 39.5 29.5t19.5 25.5l4 10l-5 1q-15 7 -15 23q0 8 6.5 14t15.5 6q8 0 15 -7t7 -16q0 -52 -62 -103z" />
    <glyph glyph-name="quotedblleft" unicode="&#x201c;" horiz-adv-x="325" 
d="M78 634l5 -1q15 -7 15 -23q0 -8 -6.5 -14t-15.5 -6q-8 0 -15 7t-7 16q0 52 62 103l25 -17q-24 -13 -40 -29.5t-19 -25.5zM229 634l5 -1q15 -7 15 -23q0 -8 -6.5 -14t-15.5 -6t-15.5 7t-6.5 16q0 52 62 103l25 -17q-24 -13 -40 -29.5t-20 -25.5z" />
    <glyph glyph-name="quotedblright" unicode="&#x201d;" horiz-adv-x="331" 
d="M71 560l-25 17q24 13 39.5 29.5t19.5 25.5l4 10l-5 1q-15 7 -15 23q0 8 6.5 14t15.5 6t15.5 -7t6.5 -16q0 -52 -62 -103zM222 560l-25 17q24 13 39.5 29.5t19.5 25.5l4 10l-5 1q-15 7 -15 23q0 8 6.5 14t15.5 6q8 0 15 -7t7 -16q0 -52 -62 -103z" />
    <glyph glyph-name="quotedblbase" unicode="&#x201e;" horiz-adv-x="355" 
d="M62 -82l-25 17q24 13 39.5 29.5t19.5 25.5l4 10l-5 1q-15 7 -15 23q0 8 6.5 14t15.5 6q8 0 15 -7t7 -16q0 -52 -62 -103zM213 -82l-25 17q24 13 40 29.5t20 25.5l3 10l-5 1q-15 7 -15 23q0 8 6.5 14t15.5 6t15.5 -7t6.5 -16q0 -52 -62 -103z" />
    <glyph glyph-name="bullet" unicode="&#x2022;" horiz-adv-x="491" 
d="M245 158q-74 0 -126 52.5t-52 126.5t52 126t126 52t126.5 -52t52.5 -126t-52.5 -126.5t-126.5 -52.5z" />
    <glyph glyph-name="ellipsis" unicode="&#x2026;" horiz-adv-x="559" 
d="M102 0q-9 0 -15.5 6.5t-6.5 14.5q0 9 6.5 15.5t15.5 6.5q8 0 14.5 -6.5t6.5 -15.5q0 -8 -6.5 -14.5t-14.5 -6.5zM279 0q-9 0 -15.5 6.5t-6.5 14.5q0 9 6.5 15.5t15.5 6.5q8 0 14.5 -6.5t6.5 -15.5q0 -8 -6.5 -14.5t-14.5 -6.5zM459 0q-9 0 -15.5 6.5t-6.5 14.5
q0 9 6.5 15.5t15.5 6.5q8 0 14.5 -6.5t6.5 -15.5q0 -8 -6.5 -14.5t-14.5 -6.5z" />
    <glyph glyph-name="perthousand" unicode="&#x2030;" horiz-adv-x="1035" 
d="M841 -11q-60 0 -102 42t-42 102t42 102t102 42t102 -42t42 -102t-42 -102t-102 -42zM955 133q0 45 -31.5 79.5t-82.5 34.5t-82.5 -34.5t-31.5 -79.5t31.5 -79.5t82.5 -34.5t82.5 34.5t31.5 79.5zM84 1l-21 24l553 715l24 -23zM510 -11q-60 0 -102 42t-42 102t42 102
t102 42t102 -42t42 -102t-42 -102t-102 -42zM624 133q0 45 -31.5 79.5t-82.5 34.5t-82.5 -34.5t-31.5 -79.5t31.5 -79.5t82.5 -34.5t82.5 34.5t31.5 79.5zM199 439q-60 0 -102 42t-42 102t42 102t102 42t102 -42t42 -102t-42 -102t-102 -42zM313 583q0 45 -31.5 79t-82.5 34
t-82 -34t-31 -79t31 -79.5t82 -34.5t82.5 34.5t31.5 79.5z" />
    <glyph glyph-name="guilsinglleft" unicode="&#x2039;" horiz-adv-x="333" 
d="M235 80l-187 187v1l187 187l23 -22l-165 -166l164 -165z" />
    <glyph glyph-name="guilsinglright" unicode="&#x203a;" horiz-adv-x="333" 
d="M285 267l-187 -187l-22 22l164 165l-165 166l23 22l187 -187v-1z" />
    <glyph glyph-name="fraction" unicode="&#x2044;" horiz-adv-x="425" 
d="M68 -114h-34l324 931h32z" />
    <glyph glyph-name="Euro" unicode="&#x20ac;" horiz-adv-x="496" 
d="M450 51l8 -28q-49 -19 -98 -27.5t-97 -4t-84.5 24t-59 62t-22.5 105.5v93h-55v32h55v73h-55v32h55v91q0 76 21.5 115t65.5 66q50 28 121.5 25t127.5 -33l-11 -24q-66 27 -123 27q-21 0 -40 -2.5t-44 -13t-43 -27.5t-30.5 -49t-12.5 -75v-100h233v-32h-233v-73h233v-32
h-233v-91q0 -118 89 -153t232 19z" />
    <glyph glyph-name="trademark" unicode="&#x2122;" horiz-adv-x="474" 
d="M408 512h-28v151l-61 -151h-24l-62 151v-151h-30v160h-65v-160h-29v160h-73v28h211l59 -146l61 146h41v-188z" />
    <glyph glyph-name="Omega" unicode="&#x2126;" horiz-adv-x="638" 
d="M576 0h-228v31q30 2 60 11t59 27t47.5 51t18.5 76v310q0 85 -43.5 128t-114.5 43h-112q-72 0 -114.5 -43.5t-42.5 -127.5v-310q0 -57 32.5 -95.5t71.5 -53t80 -16.5v-31h-228l10 31h108q-56 28 -80.5 67.5t-24.5 97.5v307q0 92 47 148t141 56h112q94 0 141 -56t47 -148
v-307q0 -60 -25.5 -97.5t-80.5 -67.5h107z" />
    <glyph glyph-name="Delta" unicode="&#x2206;" horiz-adv-x="620" 
d="M583 0h-505l234 700h31zM539 30l-211 623l-207 -623h418z" />
    <glyph glyph-name="CR" horiz-adv-x="458" 
 />
    <glyph glyph-name="uni03BC.001" horiz-adv-x="170" 
 />
    <glyph glyph-name="Upsilondieresis" horiz-adv-x="576" 
d="M388 -7l-8 25q17 6 25 10.5t24 18.5t23.5 40.5t7.5 64.5v173q-29 -43 -81.5 -61.5t-100.5 -18.5q-106 0 -167.5 52.5t-61.5 155.5v247h32v-247q0 -85 50.5 -130.5t146.5 -45.5q73 0 122.5 35t59.5 91v297h32v-551q0 -134 -104 -156zM187 751q-9 0 -15 6.5t-6 15.5
q0 8 6 14.5t15 6.5q8 0 14.5 -6.5t6.5 -14.5q0 -9 -6.5 -15.5t-14.5 -6.5zM346 752q-9 0 -15.5 6.5t-6.5 14.5q0 9 6.5 15.5t15.5 6.5q8 0 14.5 -6.5t6.5 -15.5q0 -8 -6.5 -14.5t-14.5 -6.5z" />
    <glyph glyph-name="_210" horiz-adv-x="511" 
 />
    <glyph glyph-name="_196" horiz-adv-x="620" 
d="M583 0h-505l234 700h31zM539 30l-211 623l-207 -623h418z" />
    <glyph glyph-name="Y.alt" horiz-adv-x="471" 
d="M251 0h-31v341l-220 359h37l198 -323l200 323h37l-221 -358v-342z" />
    <glyph glyph-name="y.alt" horiz-adv-x="481" 
d="M171 -198h-35l94 218l-224 481h35l206 -443l192 443h35z" />
    <glyph glyph-name="Ydieresis.alt" horiz-adv-x="471" 
d="M251 0h-31v341l-220 359h37l198 -323l200 323h37l-221 -358v-342z" />
    <glyph glyph-name="Yacute.alt" horiz-adv-x="471" 
d="M242 731h-28l54 124q10 23 30 15q10 -4 12.5 -14t-3.5 -19zM251 0h-31v341l-220 359h37l198 -323l200 323h37l-221 -358v-342z" />
    <glyph glyph-name="yacute.alt" horiz-adv-x="481" 
d="M171 -198h-35l94 218l-224 481h35l206 -443l192 443h35zM236 543h-28l54 124q10 23 30 15q10 -4 12.5 -14t-3.5 -19z" />
    <glyph glyph-name="ydieresis.alt" horiz-adv-x="481" 
d="M171 -198h-35l94 218l-224 481h35l206 -443l192 443h35zM165 561q-9 0 -15 6.5t-6 15.5q0 8 6 14.5t15 6.5q8 0 14.5 -6.5t6.5 -14.5q0 -9 -6.5 -15.5t-14.5 -6.5zM324 562q-9 0 -15.5 6.5t-6.5 14.5q0 9 6.5 15.5t15.5 6.5q8 0 14.5 -6.5t6.5 -15.5q0 -8 -6.5 -14.5
t-14.5 -6.5z" />
    <glyph glyph-name="Upsilon.alt" horiz-adv-x="483" 
d="M257 0h-31v341l-220 359h37l198 -323l200 323h37l-221 -358v-342z" />
    <glyph glyph-name="dotlessj" horiz-adv-x="197" 
d="M95 -73v542l-64 1l-15 31h111v-581q-1 -50 -28 -86.5t-83 -42.5l-5 27q3 0 9 1t20.5 7.5t25.5 17t20 32.5t9 51z" />
    <glyph glyph-name="sigma_chi" horiz-adv-x="874" 
d="M912 -188l-16 -24q-42 -1 -70 26t-52 75l-111 228l-163 -318l-30 12l174 341l-82 169q-32 64 -30.5 112t41.5 93l20 -18q-53 -70 -4 -171l74 -152l161 316h36l-179 -350l123 -254q17 -34 37.5 -53.5t34.5 -24t36 -7.5zM428 310v-135q0 -194 -185 -194q-95 0 -141.5 51.5
t-46.5 142.5v179q0 48 18.5 81.5t48.5 48.5t67 21.5t74 -0.5q58 -9 97 -2t75 40l25 -10q-33 -53 -104 -61q72 -43 72 -162zM397 171v139q0 112 -79 157q-43 11 -81 11.5t-73 -9.5t-56 -40t-21 -78v-180q0 -81 41.5 -120.5t114.5 -39.5q154 0 154 160z" />
    <glyph glyph-name="sigma_tau" horiz-adv-x="784" 
d="M596 132v336h-85q-38 0 -71 35q-31 -27 -84 -31q72 -43 72 -162v-135q0 -194 -185 -194q-95 0 -141.5 51.5t-46.5 142.5v179q0 48 18.5 81.5t48.5 48.5t67 21.5t74 -0.5q58 -9 97 -2t75 40q19 -36 81 -43h249v-32h-137v-336q0 -58 16 -82t55 -37q-2 -4 -5 -13t-4 -13
q-54 16 -74 49.5t-20 95.5zM397 171v139q0 112 -79 157q-43 11 -81 11.5t-73 -9.5t-56 -40t-21 -78v-164q0 -30 5 -58q19 -118 151 -118q154 0 154 160z" />
    <glyph glyph-name="lambda_lambda" horiz-adv-x="899" 
d="M901 9l-24 -19q-62 23 -93 123q-17 57 -54 180.5t-55 181.5q-78 -34 -98 -114l-102 -353l-28 -18q-25 9 -41.5 39.5t-32.5 83.5q-17 57 -54 181t-55 181q-75 -37 -97 -110q-55 -185 -108 -365h-33l108 372q11 32 27.5 56.5t25.5 33t35.5 26t29.5 19.5q-32 98 -47 121
q-28 43 -93 44v28q61 1 94 -23.5t53 -83.5l154 -498q6 -19 14 -35.5t13 -23.5l6 -8q16 55 50 172t50 172q9 26 19 45.5t24.5 34t22.5 21.5t27 19t24 15q-4 11 -13.5 42.5t-13.5 42t-15.5 31.5t-22.5 28.5t-30.5 14.5t-44.5 6v28q61 1 94 -23.5t53 -83.5q24 -78 71.5 -234
t70.5 -234q14 -41 30.5 -66t26.5 -32t32 -18z" />
    <glyph glyph-name="gamma_gamma" horiz-adv-x="884" 
d="M665 -176l-23 -21q-35 42 -13 120l22 72q-48 15 -72 41.5t-46 92.5q-16 54 -48 164t-48 164q-20 -28 -37 -81q-21 -69 -63 -208.5t-63 -209.5q-20 -58 -21.5 -87.5t12.5 -46.5l-23 -22q-38 40 -13 121l21 71q-41 11 -68 40.5t-49 94.5l-108 372h32q13 -43 48.5 -163
t47.5 -163q19 -65 44.5 -103.5t64.5 -44.5q18 57 55.5 180.5t54.5 181.5q15 48 28 71t39 37l22 -6q64 -218 79 -270q2 -8 9 -33.5t10.5 -37.5t11.5 -34t15.5 -33.5t18.5 -25.5t25 -21.5t31 -10.5q18 58 55 182t54 181q15 50 35 78.5t58 43.5q6 -5 11.5 -10t11.5 -10
q-17 -9 -24 -13t-20 -16.5t-23 -32.5t-20 -52q-41 -140 -125 -418q-20 -58 -21.5 -86.5t12.5 -47.5z" />
    <glyph glyph-name="gamma_kappa" horiz-adv-x="835" 
d="M827 29v-30q-37 0 -68.5 26.5t-67.5 76.5l-121 168q-14 -16 -42 -44.5t-38 -39.5v-186h-32v474q-34 -24 -58 -98q-21 -69 -62.5 -208.5t-62.5 -209.5q-20 -59 -21.5 -86.5t13.5 -47.5q-16 -14 -23 -21q-41 43 -15 119q4 12 11 36.5t11 36.5q-20 6 -33 12.5t-30 20.5
t-31 39.5t-24 61.5l-108 372h32q18 -60 53.5 -180.5t52.5 -180.5q31 -105 99 -114l110 361q25 66 52 94q18 19 41 30q6 -2 25 -7v-275q89 98 250 272h43q-58 -63 -191 -208q21 -30 63.5 -89.5t63.5 -89.5q63 -85 108 -85z" />
    <glyph glyph-name="Upsilontonos.alt" horiz-adv-x="650" 
d="M55 568h-28l54 124q10 23 30 15q10 -4 12.5 -14t-3.5 -19zM424 0h-31v341l-220 359h37l198 -323l200 323h37l-221 -358v-342z" />
    </font>
</defs>
</svg>
