<?xml version="1.0" encoding="utf-8"?>
<!-- Generator: Adobe Illustrator 16.0.0, SVG Export Plug-In . SVG Version: 6.00 Build 0)  -->
<!DOCTYPE svg PUBLIC "-//W3C//DTD SVG 1.1//EN" "http://www.w3.org/Graphics/SVG/1.1/DTD/svg11.dtd">
<svg version="1.1" id="图层_1" xmlns="http://www.w3.org/2000/svg" xmlns:xlink="http://www.w3.org/1999/xlink" x="0px" y="0px"
	 width="304.723px" height="81.77px" viewBox="0 0 304.723 81.77" enable-background="new 0 0 304.723 81.77" xml:space="preserve">
<g>
	<g>
		<path fill="#FFFFFF" d="M54.266,18.471h-3.613c-1.523,0-3.753,0.766-4.939,1.722c-3.853,3.104-10.12,5.979-13.475,6.991
			c-0.403,0.122-0.529,0.634-0.231,0.932l0.089,0.088c0.234,0.235,0.562,0.354,0.892,0.325c2.415-0.22,7.369-1.098,10.75-2.162
			c0.529-0.166,0.963,0.154,0.963,0.709L44.699,53.22v1.12c0,3.714,5.292,6.724,9.007,6.724h0.56c0.619,0,1.122-0.501,1.122-1.12
			V19.591C55.388,18.973,54.885,18.471,54.266,18.471"/>
		<path fill="#FFFFFF" d="M70.343,11.705C62.755,4.464,52.941,0.539,42.534,0.539c-0.026,0-0.053,0.001-0.078,0.001l0.002-0.001
			c-22.284,0-40.297,18.046-40.297,40.33C2.154,51.293,6.077,61.122,13.327,68.72c7.696,8.063,18.05,12.505,29.156,12.511
			c0.328,0,0.656-0.004,0.982-0.012c0.063-0.002,0.126-0.004,0.19-0.006c0.248-0.008,0.495-0.018,0.742-0.029
			c0.149-0.006,0.296-0.016,0.445-0.023c0.145-0.01,0.289-0.02,0.434-0.027c0.215-0.016,0.43-0.031,0.645-0.051
			c0.055-0.006,0.108-0.01,0.165-0.014c1.143-0.104,2.29-0.256,3.433-0.457c9.052-2.764,15.354-6.916,15.354-17.312V19.591
			c0-0.618-0.502-1.12-1.122-1.12h-4.48c-0.62,0-1.122,0.502-1.122,1.12V63.3c0,4.215-2.039,11.179-13.246,12.654
			c-1.233,0.107-2.233,0.152-3.2,0.152c-10.097,0-18.198-3.854-25.084-11.276C9.639,57.309,6.22,48.346,6.989,38.09
			C8.327,20.298,21.964,5.524,39.755,4.188C50.01,3.425,60.589,7.19,68.108,14.167c7.421,6.887,11.677,16.625,11.677,26.719
			c0,7.088-2.756,16.089-5.48,21.519c-0.309,0.617-0.467,1.302-0.467,1.992v0.56c0,0.424,0.541,0.606,0.797,0.267
			c0.242-0.32,0.479-0.645,0.713-0.973c0.355-0.468,0.813-1.146,1.387-2.07c0.424-0.679,0.826-1.374,1.209-2.08
			c0.002-0.007,0.006-0.013,0.01-0.019c2.824-5.212,4.533-11.116,4.811-17.393c0.002-0.064,0.006-0.129,0.008-0.193
			c0.004-0.114,0.01-0.229,0.012-0.344c0.004-0.121,0.008-0.243,0.01-0.365c0.002-0.084,0.004-0.169,0.004-0.255
			c0.006-0.215,0.008-0.43,0.008-0.646c0-0.027,0-0.055,0-0.08C82.805,29.688,78.41,19.405,70.343,11.705"/>
	</g>
	<g>
		<path fill="#FFFFFF" d="M130.078,62.579c0-0.09,0.033-0.178,0.1-0.262c0.047-0.051,0.109-0.094,0.186-0.125
			c0.145-0.045,0.297-0.074,0.457-0.09c0.152-0.023,0.311-0.027,0.473-0.012c0.113,0.008,0.219,0.041,0.313,0.102
			c0.076,0.061,0.135,0.125,0.172,0.195c0.066,0.143,0.109,0.291,0.129,0.441c0.039,0.234,0.105,0.465,0.199,0.691
			c0.086,0.221,0.205,0.426,0.357,0.615c0.143,0.174,0.324,0.314,0.543,0.42c0.18,0.068,0.371,0.102,0.572,0.102
			c0.504,0,0.912-0.158,1.227-0.477c0.162-0.205,0.281-0.424,0.357-0.66c0.076-0.295,0.115-0.594,0.115-0.895v-5.451
			c0-0.129,0.047-0.242,0.143-0.342c0.113-0.082,0.252-0.125,0.414-0.125h0.727c0.154,0,0.281,0.039,0.387,0.115
			c0.123,0.098,0.186,0.215,0.186,0.352v5.301c0,0.389-0.063,0.77-0.186,1.148c-0.152,0.393-0.41,0.732-0.771,1.021
			c-0.332,0.25-0.723,0.43-1.17,0.533c-0.467,0.107-0.939,0.16-1.414,0.16c-0.449,0-0.885-0.051-1.314-0.148
			c-0.4-0.105-0.752-0.266-1.057-0.477c-0.324-0.242-0.576-0.523-0.756-0.84c-0.162-0.289-0.277-0.586-0.344-0.898
			C130.092,62.849,130.078,62.716,130.078,62.579"/>
		<path fill="#FFFFFF" d="M148.318,56.837c0.119-0.086,0.26-0.129,0.426-0.129h0.748c0.156,0,0.289,0.041,0.396,0.117
			c0.127,0.102,0.191,0.223,0.191,0.363v7.674c0,0.141-0.064,0.26-0.191,0.361c-0.107,0.078-0.24,0.115-0.396,0.115h-0.748
			c-0.166,0-0.307-0.043-0.426-0.127c-0.098-0.102-0.146-0.217-0.146-0.35v-7.674C148.172,57.056,148.221,56.938,148.318,56.837"/>
		<path fill="#FFFFFF" d="M162.244,57.397c0.08-0.193,0.217-0.357,0.412-0.49c0.215-0.133,0.463-0.199,0.748-0.199h0.732
			c0.234,0,0.455,0.053,0.662,0.152c0.225,0.141,0.391,0.32,0.498,0.537l3.477,7.346c0.039,0.094,0.057,0.188,0.057,0.281
			c0,0.063-0.018,0.125-0.057,0.186c-0.088,0.096-0.211,0.137-0.367,0.129h-0.881c-0.313-0.008-0.533-0.129-0.66-0.361l-0.82-1.842
			h-4.549l-0.82,1.842c-0.127,0.232-0.348,0.354-0.66,0.361h-0.879c-0.158,0.008-0.279-0.033-0.367-0.129
			c-0.039-0.061-0.059-0.123-0.059-0.186c0-0.094,0.02-0.188,0.059-0.281L162.244,57.397z M165.723,62.437l-1.938-4.363
			l-1.965,4.363H165.723z"/>
		<path fill="#FFFFFF" d="M178.564,56.86c0.117-0.094,0.254-0.145,0.41-0.15h0.953c0.203,0.016,0.375,0.086,0.512,0.209
			c0.217,0.188,0.393,0.389,0.529,0.607l4.604,6.084v-6.424c0-0.131,0.049-0.248,0.146-0.35c0.117-0.084,0.26-0.127,0.426-0.127
			h0.748c0.156,0,0.289,0.039,0.396,0.115c0.127,0.102,0.189,0.223,0.189,0.361v7.684c0.01,0.141-0.043,0.258-0.16,0.35
			c-0.117,0.086-0.26,0.125-0.426,0.117h-0.764c-0.205,0.016-0.391-0.027-0.557-0.127c-0.107-0.078-0.199-0.164-0.279-0.258
			c-0.135-0.154-0.268-0.314-0.395-0.479l-4.605-6.215v6.6c0,0.141-0.063,0.262-0.189,0.361c-0.107,0.08-0.24,0.117-0.396,0.117
			h-0.748c-0.166,0-0.307-0.043-0.426-0.127c-0.098-0.104-0.146-0.219-0.146-0.352v-7.672
			C178.396,57.063,178.455,56.954,178.564,56.86"/>
		<path fill="#FFFFFF" d="M210.703,56.909c0.184-0.143,0.41-0.207,0.674-0.199h3.021c0.41,0,0.82,0.027,1.232,0.082
			c0.361,0.055,0.719,0.131,1.07,0.234c0.637,0.199,1.18,0.512,1.629,0.932c0.215,0.209,0.395,0.438,0.543,0.688
			c0.156,0.271,0.283,0.553,0.381,0.84c0.127,0.498,0.195,1.002,0.205,1.516c0.01,0.639-0.102,1.26-0.338,1.867
			c-0.215,0.535-0.557,1.01-1.027,1.422c-0.244,0.186-0.512,0.354-0.805,0.502c-0.314,0.139-0.641,0.256-0.984,0.35
			c-0.605,0.123-1.227,0.189-1.861,0.197h-3.037c-0.254,0.008-0.48-0.051-0.674-0.174c-0.166-0.148-0.244-0.322-0.234-0.525v-7.23
			C210.488,57.224,210.555,57.056,210.703,56.909 M212.404,64.64h1.965c0.432-0.008,0.85-0.064,1.262-0.174
			c0.469-0.164,0.852-0.412,1.145-0.748c0.293-0.365,0.492-0.764,0.602-1.201c0.117-0.504,0.174-1.014,0.174-1.525
			c0-0.529-0.057-1.057-0.174-1.576c-0.109-0.428-0.318-0.816-0.631-1.166c-0.322-0.318-0.73-0.545-1.217-0.676
			c-0.451-0.109-0.91-0.164-1.379-0.164h-1.746V64.64z"/>
		<path fill="#FFFFFF" d="M229.434,56.896c0.184-0.131,0.398-0.193,0.645-0.188h6.51c0.088,0,0.16,0.029,0.221,0.084
			c0.066,0.078,0.098,0.166,0.088,0.268c0,0.086-0.025,0.168-0.074,0.244c-0.049,0.07-0.127,0.105-0.234,0.105h-5.484v3.205h5.074
			c0.088,0,0.16,0.025,0.221,0.072c0.068,0.084,0.096,0.174,0.088,0.268c0.008,0.092-0.016,0.178-0.074,0.256
			c-0.049,0.07-0.127,0.105-0.234,0.105h-5.074v3.324h5.66c0.088,0,0.162,0.025,0.221,0.08c0.068,0.076,0.096,0.168,0.088,0.268
			c0,0.086-0.025,0.168-0.074,0.246c-0.049,0.07-0.127,0.104-0.234,0.104h-6.686c-0.246,0.016-0.465-0.029-0.662-0.139
			c-0.078-0.063-0.135-0.137-0.174-0.223c-0.031-0.109-0.045-0.221-0.045-0.336v-7.23C229.188,57.216,229.266,57.044,229.434,56.896
			"/>
		<path fill="#FFFFFF" d="M245.039,62.464c0.018-0.074,0.064-0.137,0.139-0.188c0.084-0.053,0.186-0.088,0.305-0.111
			c0.121-0.016,0.242-0.021,0.363-0.021c0.168,0,0.334,0.004,0.502,0.01c0.111,0,0.217,0.021,0.318,0.066
			c0.057,0.031,0.102,0.072,0.141,0.121c0.055,0.104,0.086,0.211,0.098,0.322c0.027,0.26,0.092,0.51,0.193,0.752
			c0.092,0.252,0.242,0.48,0.445,0.686c0.213,0.207,0.473,0.359,0.779,0.453c0.279,0.082,0.566,0.121,0.861,0.121
			c0.334,0,0.656-0.039,0.961-0.121c0.287-0.088,0.543-0.209,0.766-0.363c0.398-0.311,0.598-0.686,0.598-1.129
			c0.01-0.361-0.158-0.656-0.5-0.887c-0.25-0.16-0.529-0.291-0.834-0.385c-0.447-0.141-0.896-0.264-1.35-0.367
			c-0.576-0.125-1.143-0.279-1.697-0.463c-0.408-0.141-0.779-0.326-1.113-0.555c-0.502-0.367-0.752-0.82-0.752-1.359
			c0.008-0.688,0.348-1.242,1.014-1.67c0.4-0.229,0.83-0.395,1.295-0.498c0.537-0.111,1.086-0.166,1.643-0.166
			c0.566,0,1.123,0.066,1.67,0.199c0.445,0.117,0.842,0.291,1.195,0.52c0.26,0.184,0.469,0.402,0.627,0.652
			c0.146,0.297,0.227,0.602,0.236,0.92c0.01,0.152-0.055,0.283-0.195,0.385c-0.092,0.053-0.193,0.086-0.307,0.1
			c-0.139,0.023-0.281,0.033-0.43,0.033c-0.139,0-0.279-0.006-0.418-0.021c-0.102-0.008-0.191-0.035-0.264-0.088
			c-0.057-0.037-0.104-0.082-0.141-0.133c-0.055-0.096-0.102-0.199-0.139-0.311c-0.102-0.273-0.227-0.537-0.375-0.795
			c-0.113-0.178-0.264-0.336-0.459-0.477c-0.344-0.221-0.742-0.328-1.197-0.32c-0.277,0-0.551,0.033-0.82,0.1
			c-0.242,0.072-0.455,0.18-0.641,0.32c-0.176,0.146-0.305,0.32-0.389,0.52c-0.066,0.17-0.098,0.348-0.098,0.531
			c0.445,0.752,1.262,1.188,2.447,1.305c0.559,0.133,1.105,0.285,1.643,0.455c0.465,0.162,0.896,0.363,1.295,0.607
			c0.277,0.184,0.51,0.398,0.693,0.643c0.168,0.273,0.258,0.561,0.266,0.861c0,0.385-0.105,0.746-0.32,1.084
			c-0.23,0.34-0.541,0.627-0.932,0.863c-0.445,0.258-0.938,0.439-1.475,0.543c-0.473,0.08-0.951,0.125-1.434,0.131
			c-0.5,0-0.992-0.043-1.475-0.131c-0.49-0.098-0.949-0.26-1.377-0.488c-0.428-0.242-0.76-0.555-1.002-0.939
			c-0.203-0.34-0.328-0.697-0.377-1.072C245.016,62.626,245.02,62.546,245.039,62.464"/>
		<path fill="#FFFFFF" d="M263.867,56.837c0.117-0.086,0.26-0.129,0.426-0.129h0.748c0.156,0,0.289,0.041,0.395,0.117
			c0.127,0.102,0.193,0.223,0.193,0.363v7.674c0,0.141-0.066,0.26-0.193,0.361c-0.105,0.078-0.238,0.115-0.395,0.115h-0.748
			c-0.166,0-0.309-0.043-0.426-0.127c-0.098-0.102-0.146-0.217-0.146-0.35v-7.674C263.721,57.056,263.77,56.938,263.867,56.837"/>
		<path fill="#FFFFFF" d="M275.529,60.03c0.074-0.303,0.182-0.594,0.32-0.875c0.26-0.537,0.654-1.004,1.184-1.404
			c0.564-0.391,1.205-0.67,1.92-0.84c0.611-0.125,1.238-0.191,1.877-0.199c0.445,0.008,0.887,0.039,1.322,0.1
			c0.49,0.088,0.961,0.229,1.404,0.42c0.371,0.178,0.688,0.402,0.947,0.674c0.221,0.26,0.371,0.543,0.445,0.852
			c0.037,0.148,0.01,0.285-0.084,0.41c-0.141,0.125-0.314,0.207-0.529,0.244c-0.242,0.074-0.486,0.088-0.738,0.045
			c-0.174-0.053-0.301-0.152-0.375-0.301c-0.166-0.309-0.355-0.611-0.57-0.906c-0.119-0.148-0.26-0.287-0.416-0.42
			c-0.225-0.162-0.479-0.285-0.768-0.365c-0.258-0.059-0.527-0.088-0.805-0.088c-0.447,0.006-0.881,0.07-1.309,0.188
			c-0.482,0.17-0.887,0.424-1.211,0.764c-0.324,0.361-0.555,0.76-0.695,1.195c-0.141,0.471-0.209,0.953-0.209,1.447
			c0,0.518,0.094,1.025,0.277,1.527c0.168,0.443,0.428,0.848,0.781,1.217c0.334,0.34,0.746,0.598,1.238,0.775
			c0.381,0.125,0.779,0.186,1.195,0.186c0.539,0,1.059-0.072,1.559-0.219c0.445-0.141,0.844-0.336,1.197-0.588v-2.123h-2.324
			c-0.129,0.008-0.25-0.01-0.361-0.055c-0.039-0.029-0.061-0.064-0.07-0.102c-0.01-0.059-0.014-0.117-0.014-0.176
			c-0.01-0.096,0.014-0.184,0.07-0.266c0.047-0.029,0.096-0.049,0.152-0.057c0.074-0.006,0.152-0.01,0.236-0.01h3.576
			c0.092,0,0.18,0.004,0.264,0.01c0.066,0.008,0.125,0.027,0.182,0.057c0.027,0.029,0.051,0.063,0.068,0.1
			c0.02,0.088,0.029,0.176,0.029,0.266v2.123c0.008,0.148-0.023,0.291-0.098,0.434c-0.111,0.117-0.25,0.217-0.418,0.297
			c-0.584,0.303-1.209,0.535-1.877,0.697c-0.715,0.176-1.443,0.27-2.186,0.275c-0.789,0-1.543-0.117-2.268-0.352
			c-0.668-0.23-1.242-0.559-1.727-0.986c-0.48-0.449-0.828-0.961-1.043-1.537c-0.166-0.473-0.25-0.955-0.25-1.449
			C275.441,60.683,275.473,60.356,275.529,60.03"/>
		<path fill="#FFFFFF" d="M293.637,56.86c0.117-0.094,0.254-0.145,0.412-0.15H295c0.205,0.016,0.377,0.086,0.514,0.209
			c0.215,0.188,0.391,0.389,0.527,0.607l4.605,6.084v-6.424c0-0.131,0.049-0.248,0.146-0.35c0.117-0.084,0.26-0.127,0.426-0.127
			h0.748c0.154,0,0.289,0.039,0.396,0.115c0.127,0.102,0.189,0.223,0.189,0.361v7.684c0.01,0.141-0.043,0.258-0.16,0.35
			c-0.117,0.086-0.26,0.125-0.426,0.117h-0.764c-0.205,0.016-0.391-0.027-0.557-0.127c-0.107-0.078-0.199-0.164-0.279-0.258
			c-0.137-0.154-0.268-0.314-0.395-0.479l-4.605-6.215v6.6c0,0.141-0.063,0.262-0.189,0.361c-0.107,0.08-0.24,0.117-0.396,0.117
			h-0.748c-0.168,0-0.309-0.043-0.426-0.127c-0.098-0.104-0.146-0.219-0.146-0.352v-7.672
			C293.471,57.063,293.529,56.954,293.637,56.86"/>
		<path fill="#FFFFFF" d="M186.945,32.97c0-0.281-0.152-0.544-0.459-0.789c-0.307-0.244-0.637-0.365-0.992-0.365h-2.32
			c-0.355,0-0.678,0.104-0.969,0.309c-0.289,0.206-0.451,0.447-0.482,0.73h-7.014c-0.066-0.283-0.234-0.524-0.508-0.73
			c-0.275-0.205-0.59-0.309-0.943-0.309h-2.129c-0.355,0-0.686,0.121-0.992,0.365c-0.307,0.245-0.459,0.508-0.459,0.789v12.998
			c0,0.283,0.152,0.545,0.459,0.789s0.637,0.363,0.992,0.363h2.129c0.354,0,0.684-0.119,0.99-0.363s0.461-0.506,0.461-0.789v-0.461
			h7.014v0.27c0,0.281,0.152,0.545,0.459,0.789c0.307,0.242,0.637,0.365,0.992,0.365h2.32c0.355,0,0.686-0.123,0.992-0.365
			c0.307-0.244,0.459-0.508,0.459-0.789V32.97z M181.723,43.813h-7.014v-3.806h7.014V43.813z M181.723,38.315h-7.014v-3.77h7.014
			V38.315z"/>
		<path fill="#FFFFFF" d="M163.971,29.624h-2.807c-0.354,0-0.684,0.122-0.99,0.365c-0.309,0.244-0.459,0.507-0.459,0.789v18.883
			c0,0.281,0.15,0.545,0.459,0.787c0.307,0.242,0.637,0.365,0.99,0.365h2.807c0.354,0,0.686-0.123,0.992-0.365
			c0.305-0.242,0.459-0.506,0.459-0.787V30.778c0-0.282-0.154-0.545-0.459-0.789C164.656,29.746,164.324,29.624,163.971,29.624"/>
		<path fill="#FFFFFF" d="M165.52,21.51h1.885c0.451,0.513,0.928,1.128,1.428,1.846s0.943,1.423,1.33,2.114
			c0.256,0.515,0.66,0.758,1.209,0.732c0.547-0.026,1.031-0.193,1.451-0.5c0.258-0.207,0.508-0.449,0.75-0.732
			c0.242-0.28,0.393-0.512,0.459-0.691c0.16-0.308,0.193-0.609,0.096-0.904c-0.096-0.293-0.467-0.594-1.111-0.903
			c-0.291-0.128-0.621-0.269-0.992-0.423c-0.371-0.153-0.848-0.334-1.426-0.538h2.736l1.174-1.712h-7.469l1.043-1.288
			c0.193-0.231,0.217-0.493,0.072-0.788c-0.146-0.295-0.396-0.48-0.75-0.559l-2.854-0.691c-0.451-0.077-0.863-0.045-1.232,0.097
			c-0.371,0.142-0.621,0.392-0.75,0.749c-0.742,1.615-1.646,3.146-2.709,4.596c-1.064,1.449-2.355,2.93-3.869,4.441
			c-0.129,0.13-0.17,0.27-0.121,0.424c0.047,0.153,0.137,0.295,0.266,0.424c0.129,0.127,0.281,0.224,0.459,0.287
			c0.178,0.064,0.314,0.071,0.41,0.02c1.709-0.795,3.25-1.686,4.619-2.674C162.996,23.85,164.291,22.739,165.52,21.51"/>
		<path fill="#FFFFFF" d="M171.402,29.948c0.211-0.307,0.348-0.551,0.412-0.73c0.193-0.436,0.266-0.793,0.219-1.076
			c-0.049-0.283-0.35-0.59-0.896-0.924c-0.258-0.154-0.604-0.32-1.041-0.5c-0.434-0.179-0.91-0.352-1.426-0.519
			s-1.057-0.326-1.621-0.479c-0.563-0.156-1.086-0.271-1.572-0.349c-0.16-0.024-0.313-0.005-0.459,0.06
			c-0.145,0.063-0.273,0.153-0.387,0.269c-0.113,0.114-0.176,0.237-0.193,0.364c-0.016,0.129,0.025,0.244,0.121,0.347
			c0.355,0.411,0.66,0.769,0.918,1.078c0.26,0.306,0.492,0.614,0.703,0.921c0.209,0.309,0.402,0.623,0.58,0.943
			c0.178,0.322,0.395,0.699,0.652,1.135c0.354,0.59,0.854,0.896,1.5,0.923c0.645,0.026,1.209-0.181,1.693-0.615
			C170.926,30.539,171.193,30.256,171.402,29.948"/>
		<path fill="#FFFFFF" d="M195.635,19.798h-9.057l1.141-1.404c0.162-0.255,0.162-0.523,0-0.807c-0.16-0.282-0.436-0.463-0.822-0.538
			l-2.902-0.539c-0.387-0.076-0.766-0.031-1.135,0.135c-0.371,0.167-0.59,0.392-0.654,0.673c-0.258,0.592-0.549,1.191-0.869,1.809
			c-0.324,0.615-0.695,1.256-1.113,1.922c-0.42,0.667-0.912,1.359-1.475,2.076c-0.564,0.718-1.219,1.476-1.961,2.27
			c-0.096,0.076-0.111,0.193-0.049,0.346c0.066,0.154,0.162,0.295,0.291,0.424c0.129,0.127,0.283,0.218,0.459,0.27
			c0.178,0.053,0.348,0.038,0.51-0.039c1.354-0.666,2.604-1.385,3.748-2.154c1.145-0.769,2.232-1.678,3.266-2.729h1.98
			c0.453,0.513,0.928,1.161,1.428,1.94c0.5,0.785,0.943,1.52,1.332,2.213c0.225,0.437,0.611,0.641,1.158,0.615
			c0.549-0.025,1.018-0.179,1.404-0.461c0.258-0.207,0.508-0.457,0.75-0.75c0.242-0.296,0.395-0.533,0.459-0.713
			c0.162-0.307,0.209-0.621,0.145-0.941c-0.064-0.321-0.418-0.635-1.063-0.942c-0.291-0.128-0.621-0.269-0.992-0.422
			c-0.373-0.154-0.846-0.334-1.428-0.539h5.449c0.162,0,0.322-0.063,0.482-0.192c0.162-0.129,0.244-0.295,0.244-0.5v-0.289
			c0-0.205-0.082-0.377-0.244-0.52C195.957,19.868,195.797,19.798,195.635,19.798"/>
		<path fill="#FFFFFF" d="M195.604,26.394h-2.854c-0.322,0-0.613,0.084-0.871,0.25c-0.258,0.167-0.436,0.365-0.531,0.596H174.66
			c-0.227,0-0.42,0.071-0.58,0.212c-0.162,0.142-0.244,0.289-0.244,0.442v0.539c0,0.179,0.082,0.334,0.244,0.461
			c0.16,0.129,0.354,0.191,0.58,0.191h16.639v15.461c0,0.563-0.137,1.018-0.41,1.365c-0.275,0.346-0.832,0.57-1.67,0.674
			l-1.596,0.229c-0.324,0.027-0.574,0.117-0.75,0.27c-0.178,0.154-0.186,0.371-0.023,0.654c0.191,0.385,0.426,0.795,0.699,1.23
			c0.275,0.436,0.525,0.834,0.75,1.191c0.26,0.359,0.539,0.59,0.848,0.693c0.307,0.104,0.732,0.127,1.281,0.076
			c0.74-0.025,1.33-0.063,1.766-0.115c0.436-0.051,0.926-0.141,1.475-0.27c1-0.256,1.814-0.73,2.443-1.422
			c0.629-0.693,0.943-1.848,0.943-3.461V27.548c0-0.283-0.154-0.545-0.459-0.789C196.289,26.515,195.957,26.394,195.604,26.394"/>
		<path fill="#FFFFFF" d="M145.764,30.8c0-0.334-0.34-0.567-0.646-0.438c-1.242,0.525-3.42,0.525-4.963,0.525h-32.605
			c-0.346,0-0.625,0.279-0.625,0.623v0.313c0,1.032,0.838,1.869,1.871,1.869h31.359c1.83,0,4.555-1.791,5.547-2.744
			C145.742,30.909,145.764,30.856,145.764,30.8"/>
		<path fill="#FFFFFF" d="M178.623,19.745c0-0.205-0.207-0.348-0.396-0.269c-0.756,0.321-2.086,0.321-3.029,0.321h-4.543
			c-0.211,0-0.381,0.17-0.381,0.381v0.189c0,0.631,0.512,1.141,1.143,1.141h3.781c1.117,0,2.781-1.092,3.389-1.674
			C178.609,19.811,178.623,19.778,178.623,19.745"/>
		<path fill="#FFFFFF" d="M199.832,19.745c0-0.205-0.207-0.348-0.396-0.269c-0.756,0.321-2.086,0.321-3.027,0.321h-3.686
			c-0.211,0-0.381,0.17-0.381,0.381v0.189c0,0.631,0.512,1.141,1.141,1.141h2.926c1.117,0,2.781-1.092,3.387-1.674
			C199.818,19.811,199.832,19.778,199.832,19.745"/>
		<path fill="#FFFFFF" d="M264.742,20.636c0.52,0.864,1.008,1.775,1.463,2.73c0.195,0.388,0.43,0.672,0.707,0.854
			c0.273,0.18,0.584,0.27,0.926,0.27c0.34,0,0.682-0.063,1.023-0.193c0.34-0.129,0.656-0.311,0.949-0.542
			c0.391-0.284,0.715-0.606,0.975-0.969c0.26-0.361,0.455-0.659,0.586-0.892c0.26-0.517,0.34-0.961,0.242-1.336
			s-0.422-0.781-0.975-1.221c-0.26-0.206-0.648-0.447-1.168-0.717c-0.521-0.271-1.098-0.543-1.73-0.814
			c-0.635-0.271-1.291-0.522-1.975-0.754c-0.682-0.232-1.314-0.414-1.9-0.543c-0.162-0.025-0.334-0.008-0.512,0.059
			c-0.178,0.063-0.34,0.152-0.486,0.27s-0.244,0.253-0.293,0.407c-0.049,0.155-0.008,0.31,0.121,0.466
			C263.541,18.794,264.223,19.771,264.742,20.636"/>
		<path fill="#FFFFFF" d="M277.121,38.73c-0.162-0.116-0.35-0.207-0.561-0.271c-0.211-0.064-0.365-0.072-0.463-0.021l-6.336,3.138
			V27.9c0-0.285-0.154-0.55-0.463-0.795s-0.641-0.368-0.998-0.368h-3.119c-0.357,0-0.691,0.123-1,0.368s-0.463,0.51-0.463,0.795
			v0.541h-3.752c-0.26,0-0.488,0.071-0.682,0.214c-0.195,0.143-0.293,0.316-0.293,0.523v0.541c0,0.209,0.098,0.388,0.293,0.543
			c0.193,0.156,0.422,0.232,0.682,0.232h3.752v14.027l-1.121,0.541c-0.52,0.209-0.82,0.473-0.9,0.795
			c-0.082,0.324,0.008,0.693,0.268,1.105c0.195,0.387,0.504,0.826,0.926,1.318c0.422,0.49,0.713,0.824,0.877,1.006
			c0.391,0.389,0.813,0.563,1.268,0.523s0.926-0.252,1.414-0.639c0.777-0.568,1.648-1.24,2.607-2.014
			c0.957-0.777,1.924-1.592,2.898-2.443c0.975-0.854,1.934-1.725,2.875-2.615s1.787-1.725,2.535-2.498
			c0.129-0.156,0.16-0.311,0.098-0.465C277.396,38.981,277.283,38.847,277.121,38.73"/>
		<path fill="#FFFFFF" d="M291.107,28.288V17.594c0-0.284-0.154-0.55-0.463-0.795s-0.643-0.368-0.998-0.368h-3.51
			c-0.357,0-0.689,0.123-1,0.368c-0.309,0.245-0.463,0.511-0.463,0.795v10.694v2.518v18.986c0,0.285,0.154,0.547,0.463,0.795
			c0.311,0.244,0.643,0.367,1,0.367h3.51c0.355,0,0.689-0.123,0.998-0.367c0.309-0.248,0.463-0.51,0.463-0.795V30.806V28.288z"/>
		<path fill="#FFFFFF" d="M302.561,28.21c0-0.299-0.307-0.51-0.58-0.393c-1.113,0.471-3.066,0.471-4.447,0.471H275.52
			c-0.309,0-0.559,0.25-0.559,0.559v0.279c0,0.925,0.75,1.676,1.676,1.676h20.896c1.641,0,4.082-1.605,4.971-2.46
			C302.539,28.308,302.561,28.26,302.561,28.21"/>
		<path fill="#FFFFFF" d="M219.797,30.672c0.111,0.142,0.242,0.25,0.387,0.327c0.146,0.078,0.266,0.104,0.363,0.078
			c2.326-0.643,4.197-1.311,5.619-2.004c1.42-0.693,2.525-1.463,3.318-2.311c0.791-0.848,1.324-1.797,1.598-2.85
			c0.275-1.053,0.412-2.26,0.412-3.619h0.049h5.813v3.773c0,0.924,0.072,1.676,0.217,2.252c0.146,0.58,0.389,1.041,0.727,1.387
			c0.34,0.346,0.783,0.604,1.332,0.771c0.549,0.167,1.227,0.276,2.035,0.326c0.225,0.026,0.598,0.046,1.113,0.06
			c0.518,0.012,1.066,0.019,1.648,0.019c0.58,0,1.129-0.007,1.645-0.019c0.518-0.014,0.92-0.021,1.211-0.021
			c0.68-0.024,1.146-0.089,1.406-0.19c0.258-0.104,0.516-0.334,0.775-0.695c0.191-0.281,0.393-0.629,0.604-1.039
			c0.211-0.411,0.348-0.719,0.412-0.924c0.162-0.334,0.178-0.592,0.049-0.771c-0.129-0.181-0.484-0.271-1.064-0.271h-4.604
			c-0.453-0.025-0.814-0.051-1.088-0.078c-0.275-0.023-0.484-0.088-0.631-0.191c-0.145-0.102-0.242-0.264-0.291-0.48
			c-0.047-0.217-0.072-0.547-0.072-0.982v-4.545c0-0.436-0.137-0.764-0.412-0.982c-0.273-0.218-0.783-0.326-1.525-0.326h-1.84
			c-0.551,0-0.945,0.108-1.188,0.326c-0.242,0.219-0.395,0.471-0.459,0.752h-5.813h-0.049c-0.064-0.281-0.26-0.521-0.582-0.713
			c-0.322-0.193-0.662-0.289-1.016-0.289h-2.664c-0.389,0-0.719,0.115-0.994,0.346c-0.273,0.233-0.412,0.49-0.412,0.771
			c0,0.206,0.008,0.469,0.025,0.789c0.016,0.322,0.023,0.816,0.023,1.482c0,0.925-0.072,1.76-0.219,2.504
			c-0.145,0.744-0.434,1.457-0.871,2.138c-0.436,0.681-1.057,1.367-1.865,2.062c-0.807,0.691-1.855,1.475-3.148,2.348
			c-0.162,0.104-0.225,0.227-0.193,0.365C219.609,30.389,219.684,30.53,219.797,30.672"/>
		<path fill="#FFFFFF" d="M223.404,40.165c0.129-0.154,0.162-0.309,0.098-0.463c-0.064-0.153-0.178-0.288-0.34-0.403
			c-0.16-0.116-0.338-0.206-0.531-0.271c-0.195-0.063-0.34-0.071-0.438-0.019l-4.746,2.156V27.108c0-0.281-0.152-0.545-0.459-0.789
			c-0.309-0.244-0.641-0.365-0.994-0.365h-2.713c-0.355,0-0.688,0.121-0.992,0.365c-0.307,0.244-0.461,0.508-0.461,0.789v0.617
			h-3.439c-0.258,0-0.475,0.071-0.652,0.211c-0.18,0.143-0.268,0.315-0.268,0.521v0.54c0,0.205,0.088,0.385,0.268,0.539
			c0.178,0.152,0.395,0.23,0.652,0.23h3.439v13.98l-0.727,0.307c-0.484,0.207-0.768,0.471-0.848,0.791s0.008,0.686,0.268,1.096
			c0.096,0.207,0.225,0.424,0.387,0.656c0.162,0.23,0.322,0.455,0.484,0.674c0.16,0.217,0.322,0.416,0.484,0.596
			s0.273,0.311,0.34,0.385c0.742,0.721,1.613,0.682,2.615-0.113c1.484-1.133,2.922-2.352,4.311-3.66
			C220.531,43.167,221.951,41.731,223.404,40.165"/>
		<path fill="#FFFFFF" d="M211.877,19.079c0.322,0.45,0.613,0.893,0.873,1.329c0.258,0.437,0.5,0.866,0.727,1.291
			c0.225,0.423,0.436,0.88,0.629,1.366c0.355,0.745,0.879,1.111,1.574,1.098c0.693-0.013,1.316-0.238,1.865-0.675
			c0.387-0.28,0.709-0.601,0.969-0.962c0.258-0.359,0.434-0.643,0.533-0.848c0.225-0.514,0.297-0.948,0.217-1.31
			c-0.08-0.358-0.379-0.757-0.896-1.194c-0.26-0.205-0.631-0.436-1.113-0.692c-0.484-0.257-1.033-0.521-1.648-0.789
			c-0.613-0.271-1.25-0.515-1.912-0.731c-0.662-0.219-1.268-0.393-1.816-0.521c-0.162-0.024-0.332-0.007-0.51,0.058
			s-0.33,0.153-0.459,0.27c-0.131,0.117-0.219,0.251-0.266,0.404c-0.049,0.154-0.01,0.309,0.121,0.463
			C211.182,18.149,211.555,18.63,211.877,19.079"/>
		<path fill="#FFFFFF" d="M250.826,42.563c-0.125-0.111-0.311-0.121-0.443-0.02c-0.705,0.539-2.732,2.105-4.283,1.854
			c-0.654-0.129-1.285-0.268-2.182-0.479c-1.922-0.449-3.705-1.008-5.352-1.674c1.484-1.258,2.824-2.664,4.02-4.218
			c1.193-1.554,2.309-3.306,3.342-5.257c0.129-0.282,0.09-0.564-0.121-0.848c-0.209-0.283-0.492-0.461-0.848-0.539l-3.244-0.808
			c-0.355-0.077-0.734-0.039-1.139,0.115c-0.404,0.153-0.672,0.373-0.801,0.653l-0.145,0.309h-16.227
			c-0.258,0-0.467,0.072-0.629,0.212c-0.162,0.142-0.242,0.289-0.242,0.442v0.541c0,0.179,0.08,0.332,0.242,0.461
			s0.371,0.193,0.629,0.193h2.664c1,3.518,2.648,6.469,4.941,8.855c-1.906,1.439-4.029,2.742-6.369,3.91
			c-2.342,1.168-4.902,2.293-7.678,3.369c-0.162,0.051-0.242,0.156-0.242,0.309c0,0.154,0.041,0.309,0.121,0.463
			s0.193,0.289,0.34,0.404c0.145,0.115,0.297,0.16,0.459,0.135c3.488-0.721,6.594-1.535,9.324-2.445
			c2.729-0.912,5.189-2.01,7.387-3.293c1.549,1.078,4.941,2.963,7.781,3.684c0.576,0.146,2.811,0.697,3.775,0.582
			c2.148-0.256,4.73-5.432,5.07-6.104C251.117,43.099,251.055,42.769,250.826,42.563 M233.965,39.856
			c-1.195-0.821-2.326-1.739-3.393-2.754c-1.064-1.014-2.082-2.215-3.051-3.6h11.238c-0.646,1.207-1.365,2.33-2.156,3.369
			C235.813,37.912,234.934,38.907,233.965,39.856"/>
		<path fill="#FFFFFF" d="M111.469,56.708h-0.732c-0.309,0-0.76,0.156-1.002,0.35c-0.781,0.629-2.051,1.213-2.729,1.418
			c-0.082,0.023-0.107,0.127-0.047,0.188l0.018,0.02c0.047,0.047,0.113,0.07,0.18,0.064c0.49-0.045,1.494-0.223,2.18-0.438
			c0.105-0.035,0.193,0.029,0.193,0.143v5.299v0.227c0,0.752,1.072,1.361,1.826,1.361h0.113c0.125,0,0.227-0.102,0.227-0.227v-8.176
			C111.695,56.812,111.594,56.708,111.469,56.708"/>
	</g>
</g>
</svg>
