<svg version="1.1" xmlns="http://www.w3.org/2000/svg" xmlns:xlink="http://www.w3.org/1999/xlink" x="0px" y="0px" width="150px" height="133.333px" viewBox="0 0 150 133.333" enable-background="new 0 0 150 133.333" xml:space="preserve"><g style="fill: rgb(255, 255, 255);"><path fill="none" stroke="#FFFFFF" stroke-width="0.7" stroke-miterlimit="10" stroke-dasharray="81,83" d="M58.03,115.866
		c0,0.209,0.11,0.397,0.336,0.581c0.226,0.183,0.47,0.269,0.732,0.269h1.712c0.262,0,0.504-0.086,0.729-0.269
		c0.227-0.184,0.338-0.372,0.338-0.581v-9.443c0-0.209-0.112-0.403-0.338-0.58c-0.226-0.178-0.467-0.271-0.729-0.271h-1.712
		c-0.263,0-0.5,0.074-0.711,0.228c-0.216,0.152-0.335,0.33-0.357,0.537h-5.171c-0.048-0.207-0.173-0.385-0.375-0.537
		c-0.202-0.152-0.434-0.228-0.697-0.228h-1.568c-0.26,0-0.504,0.093-0.73,0.271c-0.226,0.177-0.338,0.371-0.338,0.58v9.584
		c0,0.209,0.113,0.404,0.338,0.58c0.226,0.184,0.471,0.269,0.73,0.269h1.568c0.263,0,0.508-0.085,0.733-0.269
		c0.227-0.176,0.338-0.371,0.338-0.58v-0.342h5.171L58.03,115.866L58.03,115.866z M52.858,107.586h5.171v2.777h-5.171V107.586z
		 M52.858,111.61h5.171v2.809h-5.171V111.61z" style="stroke-dasharray: 81, 83; stroke-dashoffset: 0; fill: rgb(255, 255, 255);"></path> <path fill="none" stroke="#FFFFFF" stroke-width="0.7" stroke-miterlimit="10" stroke-dasharray="38,40" d="M42.141,104.224
		c-0.225,0.183-0.339,0.377-0.339,0.585v13.92c0,0.208,0.114,0.402,0.339,0.581c0.227,0.176,0.471,0.269,0.733,0.269h2.067
		c0.262,0,0.507-0.093,0.732-0.269c0.227-0.179,0.339-0.373,0.339-0.581v-13.92c0-0.208-0.112-0.402-0.339-0.585
		c-0.226-0.179-0.471-0.271-0.732-0.271h-2.067C42.612,103.956,42.368,104.045,42.141,104.224" style="stroke-dasharray: 38, 40; stroke-dashoffset: 0; fill: rgb(255, 255, 255);"></path> <path fill="none" stroke="#FFFFFF" stroke-width="0.7" stroke-miterlimit="10" stroke-dasharray="52,54" d="M46.083,97.971h1.392
		c0.333,0.379,0.684,0.837,1.05,1.361c0.368,0.531,0.696,1.051,0.982,1.563c0.189,0.379,0.485,0.558,0.892,0.537
		c0.402-0.019,0.759-0.142,1.068-0.366c0.192-0.152,0.375-0.335,0.553-0.543c0.18-0.208,0.293-0.372,0.339-0.507
		c0.119-0.231,0.143-0.452,0.072-0.665c-0.072-0.221-0.344-0.439-0.82-0.673c-0.214-0.091-0.458-0.195-0.729-0.312
		c-0.275-0.109-0.626-0.244-1.053-0.396h0.604h1.414h1.373c0.825,0,2.053-0.807,2.498-1.233c0.019-0.018,0.027-0.04,0.027-0.065
		c0-0.146-0.152-0.256-0.29-0.196c-0.559,0.239-1.539,0.239-2.235,0.239h-3.348h-0.003h-2.662l0.769-0.953
		c0.14-0.172,0.159-0.359,0.051-0.579c-0.106-0.222-0.29-0.354-0.552-0.409l-2.106-0.514c-0.333-0.055-0.635-0.029-0.907,0.072
		c-0.275,0.105-0.458,0.287-0.552,0.551c-0.55,1.191-1.216,2.32-2,3.39c-0.784,1.065-1.734,2.16-2.851,3.276
		c-0.095,0.093-0.125,0.195-0.088,0.308c0.033,0.114,0.1,0.22,0.194,0.315c0.095,0.092,0.208,0.164,0.34,0.207
		c0.131,0.05,0.231,0.056,0.302,0.019c1.261-0.585,2.396-1.244,3.406-1.972C44.223,99.7,45.179,98.881,46.083,97.971" style="stroke-dasharray: 52, 54; stroke-dashoffset: 0; fill: rgb(255, 255, 255);"></path> <path fill="none" stroke="#FFFFFF" stroke-width="0.7" stroke-miterlimit="10" stroke-dasharray="16,18" d="M50.423,104.193
		c0.153-0.226,0.254-0.401,0.302-0.536c0.144-0.318,0.195-0.587,0.158-0.795c-0.033-0.207-0.253-0.434-0.655-0.678
		c-0.192-0.115-0.449-0.238-0.77-0.372c-0.32-0.129-0.671-0.256-1.05-0.379c-0.382-0.121-0.782-0.243-1.197-0.354
		c-0.414-0.115-0.802-0.201-1.157-0.257c-0.119-0.018-0.231-0.005-0.342,0.044c-0.106,0.049-0.202,0.109-0.284,0.195
		c-0.082,0.085-0.131,0.177-0.144,0.273c-0.012,0.092,0.019,0.178,0.091,0.252c0.26,0.305,0.486,0.566,0.678,0.793
		c0.189,0.226,0.36,0.457,0.516,0.684c0.155,0.227,0.296,0.458,0.427,0.689c0.131,0.238,0.29,0.52,0.483,0.844
		c0.259,0.433,0.629,0.658,1.105,0.678c0.477,0.018,0.891-0.134,1.248-0.452C50.072,104.631,50.268,104.418,50.423,104.193" style="stroke-dasharray: 16, 18; stroke-dashoffset: 0; fill: rgb(255, 255, 255);"></path> <path fill="none" stroke="#FFFFFF" stroke-width="0.7" stroke-miterlimit="10" stroke-dasharray="73,75" d="M68.995,101.842
		c-0.226-0.178-0.47-0.27-0.732-0.27h-2.104c-0.238,0-0.451,0.061-0.641,0.184c-0.193,0.121-0.32,0.271-0.394,0.441H52.823
		c-0.166,0-0.309,0.053-0.427,0.156c-0.12,0.104-0.181,0.215-0.181,0.322v0.398c0,0.133,0.061,0.25,0.181,0.342
		c0.118,0.092,0.262,0.141,0.427,0.141h12.268v11.398c0,0.414-0.104,0.75-0.306,1.006c-0.202,0.256-0.61,0.422-1.23,0.494
		l-1.175,0.172c-0.238,0.018-0.425,0.086-0.553,0.201c-0.131,0.109-0.138,0.27-0.019,0.481c0.144,0.28,0.315,0.581,0.516,0.903
		c0.202,0.324,0.388,0.617,0.552,0.879c0.193,0.264,0.401,0.435,0.626,0.514c0.226,0.074,0.54,0.092,0.943,0.055
		c0.546-0.018,0.982-0.048,1.303-0.084c0.321-0.037,0.684-0.104,1.087-0.195c0.735-0.19,1.336-0.543,1.801-1.051
		c0.463-0.514,0.697-1.361,0.697-2.552v-13.353C69.334,102.215,69.221,102.027,68.995,101.842" style="stroke-dasharray: 73, 75; stroke-dashoffset: 0; fill: rgb(255, 255, 255);"></path> <path fill="none" stroke="#FFFFFF" stroke-width="0.7" stroke-miterlimit="10" stroke-dasharray="60,62" d="M31.043,104.499
		c-0.916,0.391-2.521,0.391-3.657,0.391H3.347c-0.257,0-0.461,0.203-0.461,0.46v0.229c0,0.764,0.616,1.381,1.379,1.381h23.12
		c1.349,0,3.358-1.324,4.088-2.026c0.03-0.024,0.045-0.067,0.045-0.11C31.519,104.577,31.269,104.407,31.043,104.499" style="stroke-dasharray: 60, 62; stroke-dashoffset: 0; fill: rgb(255, 255, 255);"></path> <path fill="none" stroke="#FFFFFF" stroke-width="0.7" stroke-miterlimit="10" stroke-dasharray="52,54" d="M71.089,96.475
		c-0.56,0.238-1.539,0.238-2.231,0.238H66.14h-0.002h-4.527l0.839-1.039c0.12-0.188,0.12-0.383,0-0.59
		c-0.119-0.209-0.32-0.342-0.607-0.397l-2.137-0.396c-0.287-0.062-0.564-0.023-0.839,0.097c-0.271,0.122-0.433,0.286-0.482,0.495
		c-0.189,0.439-0.403,0.879-0.642,1.336c-0.238,0.453-0.509,0.923-0.818,1.418c-0.311,0.488-0.674,1.001-1.09,1.525
		c-0.415,0.531-0.897,1.086-1.444,1.674c-0.07,0.061-0.083,0.146-0.033,0.256c0.046,0.115,0.116,0.221,0.21,0.312
		c0.094,0.099,0.21,0.166,0.343,0.201c0.127,0.037,0.253,0.024,0.372-0.03c0.998-0.488,1.919-1.02,2.765-1.587
		c0.843-0.567,1.646-1.239,2.406-2.016h1.462c0.333,0.379,0.684,0.86,1.053,1.437c0.366,0.579,0.693,1.116,0.979,1.629
		c0.167,0.324,0.453,0.469,0.855,0.451c0.402-0.018,0.751-0.127,1.034-0.342c0.189-0.146,0.376-0.329,0.553-0.55
		c0.176-0.22,0.29-0.39,0.339-0.522c0.119-0.228,0.156-0.459,0.106-0.697c-0.049-0.236-0.308-0.465-0.785-0.696
		c-0.214-0.091-0.458-0.195-0.729-0.312c-0.275-0.109-0.626-0.244-1.053-0.396h2.43h1.586h0.572c0.824,0,2.047-0.807,2.494-1.233
		c0.021-0.018,0.031-0.04,0.031-0.065C71.382,96.526,71.228,96.417,71.089,96.475" style="stroke-dasharray: 52, 54; stroke-dashoffset: 0; fill: rgb(255, 255, 255);"></path> <path fill="none" stroke="#FFFFFF" stroke-width="0.7" stroke-miterlimit="10" stroke-dasharray="20,22" d="M121.441,95.245
		c-0.463-0.203-0.95-0.387-1.451-0.558c-0.508-0.171-0.971-0.306-1.404-0.401c-0.115-0.019-0.244,0-0.373,0.047
		c-0.134,0.045-0.256,0.111-0.359,0.197c-0.108,0.086-0.184,0.188-0.22,0.299c-0.036,0.115-0.006,0.231,0.093,0.342
		c0.623,0.807,1.123,1.521,1.508,2.162c0.384,0.633,0.744,1.306,1.08,2.014c0.141,0.279,0.317,0.494,0.52,0.629
		c0.201,0.129,0.434,0.195,0.684,0.195s0.5-0.043,0.752-0.142c0.256-0.097,0.488-0.231,0.701-0.403
		c0.286-0.205,0.525-0.443,0.721-0.713c0.188-0.264,0.336-0.482,0.435-0.654c0.188-0.383,0.249-0.707,0.177-0.988
		c-0.074-0.273-0.313-0.572-0.721-0.896c-0.188-0.152-0.477-0.328-0.859-0.531C122.334,95.645,121.913,95.445,121.441,95.245" style="stroke-dasharray: 20, 22; stroke-dashoffset: 0; fill: rgb(255, 255, 255);"></path> <path fill="none" stroke="#FFFFFF" stroke-width="0.7" stroke-miterlimit="10" stroke-dasharray="59,61" d="M128.538,111.311
		c0.097-0.115,0.121-0.227,0.071-0.342c-0.047-0.115-0.129-0.215-0.25-0.299s-0.256-0.153-0.416-0.203
		c-0.15-0.041-0.268-0.049-0.334-0.012l-4.676,2.314v-10.087c0-0.206-0.111-0.401-0.338-0.585c-0.232-0.184-0.476-0.27-0.738-0.27
		h-2.303c-0.263,0-0.506,0.086-0.73,0.27c-0.232,0.184-0.342,0.379-0.342,0.585v0.397h-2.766c-0.197,0-0.361,0.053-0.507,0.158
		c-0.142,0.104-0.214,0.231-0.214,0.391v0.396c0,0.153,0.072,0.287,0.214,0.397c0.146,0.117,0.31,0.177,0.507,0.177h2.766v10.336
		l-0.83,0.403c-0.385,0.152-0.604,0.349-0.666,0.584c-0.063,0.24,0.006,0.51,0.201,0.813c0.141,0.286,0.373,0.61,0.684,0.972
		c0.313,0.359,0.525,0.609,0.643,0.744c0.293,0.286,0.604,0.416,0.939,0.385c0.33-0.03,0.677-0.184,1.038-0.471
		c0.573-0.421,1.214-0.916,1.924-1.482c0.707-0.574,1.422-1.172,2.136-1.801c0.721-0.629,1.43-1.271,2.118-1.932
		C127.366,112.495,127.988,111.885,128.538,111.311" style="stroke-dasharray: 59, 61; stroke-dashoffset: 0; fill: rgb(255, 255, 255);"></path> <path fill="none" stroke="#FFFFFF" stroke-width="0.7" stroke-miterlimit="10" stroke-dasharray="89,91" d="M143.409,104.829
		c1.21,0,3.011-1.186,3.663-1.82c0.031-0.023,0.041-0.055,0.041-0.092c0-0.226-0.225-0.377-0.426-0.291
		c-0.817,0.347-2.26,0.347-3.278,0.347h-4.738V95.09c0-0.215-0.116-0.409-0.342-0.588c-0.226-0.182-0.47-0.272-0.738-0.272h-2.581
		c-0.27,0-0.513,0.092-0.74,0.272c-0.226,0.179-0.342,0.373-0.342,0.588v7.881h-6.746c-0.23,0-0.414,0.184-0.414,0.408v0.209
		c0,0.684,0.556,1.24,1.238,1.24h5.922l0,0v13.998c0,0.207,0.116,0.401,0.342,0.586c0.229,0.178,0.472,0.27,0.74,0.27h2.581
		c0.271,0,0.513-0.092,0.738-0.27c0.226-0.185,0.342-0.379,0.342-0.586v-13.998l0,0H143.409L143.409,104.829z" style="stroke-dasharray: 89, 91; stroke-dashoffset: 0; fill: rgb(255, 255, 255);"></path> <path fill="none" stroke="#FFFFFF" stroke-width="0.7" stroke-miterlimit="10" stroke-dasharray="70,72" d="M89.775,100.896
		c-0.32,0.502-0.778,1.008-1.373,1.521c-0.596,0.514-1.37,1.088-2.323,1.733c-0.119,0.074-0.164,0.164-0.142,0.271
		c0.021,0.103,0.078,0.207,0.16,0.311c0.086,0.104,0.182,0.184,0.285,0.239c0.108,0.06,0.196,0.077,0.27,0.06
		c1.713-0.476,3.093-0.965,4.14-1.479c1.051-0.512,1.865-1.079,2.449-1.701c0.583-0.629,0.974-1.325,1.175-2.102
		c0.208-0.774,0.305-1.666,0.305-2.674h0.037h4.285v2.783c0,0.684,0.055,1.24,0.16,1.661c0.109,0.427,0.287,0.769,0.537,1.024
		c0.249,0.252,0.58,0.447,0.98,0.568c0.404,0.121,0.904,0.2,1.504,0.237c0.164,0.021,0.438,0.036,0.817,0.042
		c0.378,0.013,0.787,0.02,1.215,0.02c0.427,0,0.83-0.007,1.216-0.02c0.377-0.006,0.678-0.012,0.892-0.012
		c0.5-0.019,0.842-0.067,1.036-0.146c0.19-0.072,0.379-0.236,0.567-0.506c0.146-0.208,0.294-0.465,0.446-0.77
		c0.158-0.301,0.257-0.533,0.305-0.678c0.123-0.252,0.135-0.439,0.037-0.568c-0.098-0.135-0.354-0.201-0.788-0.201h-3.389
		c-0.336-0.018-0.604-0.036-0.806-0.055c-0.2-0.02-0.354-0.066-0.465-0.142c-0.108-0.079-0.176-0.194-0.213-0.354
		c-0.035-0.166-0.055-0.408-0.055-0.727v-3.354c0-0.322-0.104-0.561-0.307-0.725c-0.201-0.16-0.573-0.238-1.123-0.238h-1.354
		c-0.409,0-0.696,0.078-0.874,0.238c-0.182,0.164-0.293,0.346-0.342,0.555h-4.285h-0.037c-0.048-0.209-0.188-0.383-0.427-0.523
		c-0.239-0.143-0.489-0.215-0.752-0.215h-1.96c-0.287,0-0.53,0.086-0.73,0.257c-0.203,0.171-0.305,0.358-0.305,0.567
		c0,0.152,0.007,0.349,0.018,0.584c0.011,0.234,0.018,0.601,0.018,1.09c0,0.684-0.053,1.299-0.158,1.849
		C90.313,99.872,90.098,100.396,89.775,100.896" style="stroke-dasharray: 70, 72; stroke-dashoffset: 0; fill: rgb(255, 255, 255);"></path> <path fill="none" stroke="#FFFFFF" stroke-width="0.7" stroke-miterlimit="10" stroke-dasharray="55,57" d="M79.688,114.595
		c-0.357,0.153-0.565,0.349-0.621,0.581c-0.063,0.238,0.004,0.506,0.192,0.813c0.07,0.151,0.169,0.311,0.287,0.482
		c0.119,0.169,0.238,0.335,0.356,0.492c0.117,0.166,0.236,0.312,0.356,0.439c0.116,0.135,0.201,0.227,0.248,0.287
		c0.55,0.532,1.19,0.5,1.929-0.085c1.097-0.837,2.155-1.733,3.18-2.698c1.025-0.965,2.072-2.027,3.145-3.182
		c0.094-0.116,0.119-0.227,0.069-0.342c-0.05-0.11-0.131-0.213-0.25-0.293c-0.12-0.086-0.247-0.152-0.394-0.2
		c-0.142-0.052-0.248-0.056-0.321-0.015l-3.498,1.59v-10.361c0-0.214-0.113-0.402-0.339-0.586c-0.227-0.178-0.471-0.27-0.731-0.27
		h-2.001c-0.262,0-0.507,0.092-0.732,0.27c-0.226,0.184-0.338,0.372-0.338,0.586v0.452h-2.535c-0.19,0-0.353,0.055-0.484,0.157
		c-0.127,0.104-0.193,0.231-0.193,0.379v0.396c0,0.152,0.066,0.287,0.193,0.402c0.133,0.109,0.294,0.165,0.484,0.165h2.535v10.312
		L79.688,114.595z" style="stroke-dasharray: 55, 57; stroke-dashoffset: 0; fill: rgb(255, 255, 255);"></path> <path fill="none" stroke="#FFFFFF" stroke-width="0.7" stroke-miterlimit="10" stroke-dasharray="19,21" d="M80.902,97.167
		c0.188,0.316,0.369,0.635,0.537,0.945c0.164,0.313,0.319,0.653,0.463,1.008c0.261,0.551,0.648,0.819,1.162,0.813
		c0.513-0.013,0.969-0.179,1.373-0.501c0.287-0.207,0.523-0.439,0.715-0.708c0.19-0.263,0.322-0.472,0.394-0.622
		c0.164-0.379,0.22-0.703,0.161-0.967c-0.061-0.268-0.281-0.561-0.663-0.879c-0.188-0.152-0.464-0.323-0.819-0.512
		c-0.358-0.19-0.761-0.385-1.211-0.586c-0.457-0.197-0.927-0.375-1.414-0.539c-0.486-0.158-0.935-0.287-1.338-0.384
		c-0.121-0.021-0.248,0-0.375,0.042c-0.132,0.049-0.244,0.116-0.34,0.201c-0.097,0.086-0.162,0.186-0.197,0.301
		c-0.033,0.109-0.006,0.227,0.09,0.342c0.31,0.377,0.582,0.731,0.822,1.062C80.499,96.512,80.714,96.84,80.902,97.167" style="stroke-dasharray: 19, 21; stroke-dashoffset: 0; fill: rgb(255, 255, 255);"></path> <path fill="none" stroke="#FFFFFF" stroke-width="0.7" stroke-miterlimit="10" stroke-dasharray="111,113" d="M105.352,118.588
		c1.58-0.184,3.484-4.006,3.734-4.492c0.104-0.202,0.055-0.447-0.109-0.602c-0.092-0.084-0.231-0.09-0.33-0.018
		c-0.519,0.402-2.015,1.559-3.155,1.367c-0.481-0.092-0.946-0.193-1.605-0.348c-1.422-0.336-2.733-0.746-3.95-1.238
		c1.094-0.93,2.082-1.959,2.967-3.108c0.881-1.142,1.699-2.437,2.463-3.876c0.097-0.208,0.066-0.416-0.086-0.622
		c-0.159-0.208-0.367-0.342-0.629-0.397l-2.395-0.6c-0.263-0.055-0.537-0.027-0.837,0.086c-0.298,0.116-0.495,0.275-0.592,0.483
		l-0.104,0.226H88.762c-0.195,0-0.347,0.055-0.466,0.158s-0.181,0.215-0.181,0.33v0.396c0,0.127,0.062,0.244,0.181,0.336
		c0.119,0.099,0.271,0.141,0.466,0.141h1.961c0.738,2.596,1.954,4.775,3.646,6.531c-1.408,1.064-2.975,2.023-4.698,2.883
		c-1.726,0.859-3.61,1.689-5.659,2.484c-0.119,0.037-0.178,0.115-0.178,0.23c0,0.111,0.027,0.227,0.089,0.336
		c0.06,0.117,0.144,0.215,0.25,0.301c0.106,0.084,0.22,0.115,0.339,0.098c2.569-0.531,4.862-1.131,6.875-1.801
		c2.012-0.672,3.823-1.484,5.442-2.431c1.147,0.794,3.644,2.187,5.737,2.718C102.993,118.272,104.637,118.674,105.352,118.588
		 M96.548,111.5c-0.887-0.605-1.716-1.283-2.504-2.033c-0.785-0.745-1.537-1.631-2.251-2.655h8.289
		c-0.477,0.892-1.008,1.722-1.594,2.483C97.908,110.065,97.262,110.797,96.548,111.5" style="stroke-dasharray: 111, 113; stroke-dashoffset: 0; fill: rgb(255, 255, 255);"></path></g> <g style="fill: rgb(255, 255, 255);"><path fill="none" stroke="#FFFFFF" stroke-width="0.3" stroke-miterlimit="10" stroke-dasharray="24,26" d="M25.02,124.008
		c-0.076-0.055-0.171-0.084-0.283-0.084h-0.539c-0.119,0-0.223,0.029-0.305,0.092c-0.07,0.074-0.106,0.158-0.106,0.25v4.018
		c0,0.227-0.028,0.445-0.083,0.666c-0.057,0.172-0.143,0.329-0.262,0.482c-0.233,0.238-0.534,0.354-0.907,0.354
		c-0.146,0-0.287-0.025-0.421-0.08c-0.163-0.072-0.293-0.178-0.4-0.306c-0.113-0.14-0.202-0.293-0.262-0.45
		c-0.07-0.172-0.119-0.343-0.146-0.514c-0.016-0.109-0.049-0.221-0.095-0.324c-0.03-0.055-0.071-0.099-0.128-0.146
		c-0.07-0.043-0.147-0.065-0.232-0.071c-0.119-0.015-0.235-0.015-0.347,0.006c-0.119,0.013-0.23,0.035-0.337,0.065
		c-0.054,0.025-0.101,0.056-0.136,0.093c-0.05,0.062-0.073,0.127-0.073,0.194c0,0.099,0.008,0.195,0.03,0.293
		c0.049,0.227,0.134,0.445,0.253,0.66c0.135,0.229,0.321,0.438,0.559,0.623c0.227,0.15,0.486,0.272,0.78,0.348
		c0.316,0.072,0.638,0.109,0.967,0.109c0.351,0,0.699-0.037,1.043-0.115c0.331-0.08,0.617-0.209,0.864-0.396
		c0.266-0.208,0.456-0.458,0.567-0.752c0.092-0.279,0.138-0.561,0.138-0.843v-3.913C25.158,124.168,25.111,124.083,25.02,124.008" style="stroke-dasharray: 24, 26; stroke-dashoffset: 0; fill: rgb(255, 255, 255);"></path> <path fill="none" stroke="#FFFFFF" stroke-width="0.3" stroke-miterlimit="10" stroke-dasharray="15,17" d="M34.562,124.008
		c-0.083-0.055-0.178-0.084-0.293-0.084h-0.552c-0.123,0-0.227,0.029-0.315,0.092c-0.07,0.079-0.105,0.164-0.105,0.263v5.652
		c0,0.104,0.035,0.19,0.105,0.263c0.088,0.063,0.192,0.094,0.315,0.094h0.552c0.115,0,0.21-0.024,0.293-0.086
		c0.092-0.072,0.138-0.158,0.138-0.271v-5.652C34.7,124.174,34.654,124.083,34.562,124.008" style="stroke-dasharray: 15, 17; stroke-dashoffset: 0; fill: rgb(255, 255, 255);"></path> <path fill="none" stroke="#FFFFFF" stroke-width="0.3" stroke-miterlimit="10" stroke-dasharray="35,37" d="M45.92,124.43
		c-0.079-0.158-0.201-0.292-0.369-0.396c-0.15-0.072-0.312-0.109-0.485-0.109h-0.541c-0.21,0-0.394,0.049-0.552,0.146
		c-0.143,0.1-0.244,0.221-0.302,0.359l-2.564,5.416c-0.031,0.066-0.043,0.14-0.043,0.208c0,0.048,0.012,0.092,0.043,0.14
		c0.067,0.068,0.155,0.1,0.271,0.094h0.647c0.232-0.008,0.393-0.094,0.488-0.265l0.604-1.36h3.351l0.608,1.36
		c0.092,0.171,0.253,0.257,0.485,0.265h0.65c0.117,0.006,0.205-0.024,0.269-0.094c0.027-0.048,0.043-0.092,0.043-0.14
		c0-0.068-0.016-0.142-0.043-0.208L45.92,124.43z M43.356,128.15l1.451-3.218l1.425,3.218H43.356z" style="stroke-dasharray: 35, 37; stroke-dashoffset: 0; fill: rgb(255, 255, 255);"></path> <path fill="none" stroke="#FFFFFF" stroke-width="0.3" stroke-miterlimit="10" stroke-dasharray="41,43" d="M62.133,124.008
		c-0.08-0.055-0.178-0.084-0.293-0.084h-0.549c-0.123,0-0.227,0.029-0.315,0.092c-0.073,0.079-0.106,0.164-0.106,0.263v4.729
		l-3.395-4.479c-0.101-0.163-0.231-0.312-0.39-0.45c-0.101-0.093-0.227-0.142-0.379-0.154h-0.702
		c-0.116,0.007-0.217,0.043-0.302,0.109c-0.079,0.067-0.123,0.153-0.132,0.245v5.652c0,0.099,0.037,0.185,0.111,0.257
		c0.084,0.066,0.188,0.1,0.314,0.1h0.549c0.116,0,0.213-0.031,0.293-0.086c0.091-0.072,0.14-0.164,0.14-0.271v-4.865l3.395,4.585
		c0.091,0.116,0.189,0.238,0.291,0.35c0.057,0.072,0.127,0.133,0.207,0.188c0.122,0.079,0.259,0.111,0.409,0.1h0.562
		c0.125,0.006,0.229-0.024,0.314-0.086c0.089-0.072,0.128-0.154,0.12-0.257v-5.666C62.273,124.174,62.228,124.083,62.133,124.008" style="stroke-dasharray: 41, 43; stroke-dashoffset: 0; fill: rgb(255, 255, 255);"></path> <path fill="none" stroke="#FFFFFF" stroke-width="0.3" stroke-miterlimit="10" stroke-dasharray="40,42" d="M85.416,125.353
		c-0.105-0.183-0.24-0.354-0.396-0.507c-0.334-0.311-0.734-0.537-1.201-0.689c-0.26-0.072-0.521-0.129-0.791-0.171
		c-0.303-0.044-0.604-0.062-0.905-0.062h-2.229c-0.194-0.006-0.358,0.043-0.496,0.146c-0.106,0.109-0.157,0.231-0.152,0.372v5.331
		c-0.005,0.146,0.051,0.272,0.174,0.384c0.145,0.092,0.311,0.135,0.498,0.129h2.236c0.471-0.007,0.929-0.056,1.373-0.146
		c0.254-0.067,0.494-0.153,0.725-0.256c0.217-0.109,0.415-0.232,0.598-0.373c0.346-0.301,0.598-0.652,0.756-1.045
		c0.174-0.451,0.256-0.902,0.25-1.373c-0.011-0.385-0.06-0.756-0.152-1.123C85.624,125.754,85.532,125.554,85.416,125.353
		 M84.314,128.206c-0.078,0.323-0.229,0.615-0.442,0.885c-0.216,0.25-0.5,0.433-0.845,0.555c-0.303,0.079-0.611,0.123-0.93,0.13
		h-1.449v-5.331h1.289c0.345,0,0.684,0.037,1.014,0.116c0.359,0.097,0.658,0.271,0.896,0.502c0.231,0.255,0.389,0.543,0.467,0.858
		c0.086,0.386,0.127,0.771,0.127,1.16C84.441,127.458,84.4,127.833,84.314,128.206" style="stroke-dasharray: 40, 42; stroke-dashoffset: 0; fill: rgb(255, 255, 255);"></path> <path fill="none" stroke="#FFFFFF" stroke-width="0.3" stroke-miterlimit="10" stroke-dasharray="40,42" d="M98.611,129.774h-4.178
		v-2.454h3.743c0.079,0,0.134-0.026,0.171-0.081c0.043-0.055,0.061-0.115,0.055-0.182c0.006-0.074-0.012-0.143-0.066-0.202
		c-0.044-0.03-0.1-0.048-0.158-0.048h-3.744v-2.364h4.043c0.078,0,0.141-0.03,0.178-0.077c0.037-0.057,0.055-0.117,0.055-0.186
		c0.007-0.072-0.018-0.141-0.066-0.194c-0.043-0.044-0.1-0.062-0.166-0.062H93.68c-0.182-0.006-0.338,0.043-0.475,0.141
		c-0.125,0.109-0.184,0.23-0.173,0.378v5.331c0,0.085,0.008,0.164,0.028,0.243c0.03,0.067,0.074,0.116,0.133,0.164
		c0.144,0.081,0.305,0.118,0.484,0.104h4.934c0.08,0,0.135-0.023,0.17-0.078c0.037-0.056,0.055-0.117,0.055-0.179
		c0.007-0.079-0.018-0.141-0.064-0.2C98.727,129.792,98.671,129.774,98.611,129.774" style="stroke-dasharray: 40, 42; stroke-dashoffset: 0; fill: rgb(255, 255, 255);"></path> <path fill="none" stroke="#FFFFFF" stroke-width="0.3" stroke-miterlimit="10" stroke-dasharray="40,42" d="M110.173,127.247
		c-0.292-0.179-0.608-0.332-0.95-0.445c-0.398-0.129-0.801-0.238-1.209-0.338c-0.882-0.084-1.479-0.407-1.809-0.963
		c0-0.135,0.023-0.264,0.074-0.392c0.06-0.146,0.158-0.272,0.285-0.385c0.136-0.104,0.293-0.177,0.471-0.231
		c0.201-0.056,0.402-0.08,0.604-0.08c0.336-0.006,0.629,0.08,0.887,0.238c0.14,0.104,0.256,0.221,0.334,0.355
		c0.109,0.188,0.201,0.384,0.281,0.584c0.025,0.08,0.062,0.158,0.098,0.227c0.031,0.037,0.068,0.074,0.104,0.1
		c0.054,0.035,0.121,0.062,0.193,0.064c0.104,0.014,0.208,0.02,0.313,0.02c0.103,0,0.213-0.013,0.314-0.029
		c0.081-0.008,0.152-0.03,0.229-0.067c0.096-0.079,0.146-0.178,0.141-0.286c-0.008-0.24-0.063-0.459-0.172-0.679
		c-0.115-0.185-0.275-0.349-0.465-0.481c-0.263-0.164-0.555-0.293-0.885-0.386c-0.402-0.099-0.813-0.146-1.228-0.146
		c-0.409,0-0.813,0.043-1.209,0.121c-0.343,0.08-0.659,0.203-0.959,0.367c-0.488,0.316-0.738,0.728-0.745,1.232
		c0,0.396,0.184,0.732,0.55,1.001c0.25,0.171,0.524,0.306,0.824,0.41c0.409,0.134,0.825,0.25,1.253,0.342
		c0.335,0.079,0.665,0.171,0.994,0.269c0.226,0.074,0.428,0.17,0.615,0.287c0.25,0.17,0.373,0.385,0.367,0.653
		c0,0.329-0.146,0.603-0.438,0.828c-0.165,0.116-0.354,0.208-0.568,0.271c-0.226,0.062-0.457,0.092-0.702,0.092
		c-0.22,0-0.433-0.03-0.641-0.092c-0.227-0.067-0.416-0.178-0.574-0.33c-0.146-0.151-0.256-0.322-0.322-0.506
		c-0.08-0.178-0.129-0.367-0.147-0.557c-0.005-0.078-0.03-0.156-0.072-0.238c-0.024-0.037-0.062-0.066-0.104-0.084
		c-0.073-0.037-0.151-0.057-0.232-0.057c-0.121,0-0.25-0.006-0.372-0.006c-0.086,0-0.176,0.006-0.262,0.02
		c-0.093,0.018-0.166,0.043-0.226,0.079c-0.056,0.037-0.092,0.085-0.104,0.14c-0.013,0.063-0.019,0.117-0.013,0.179
		c0.037,0.28,0.129,0.543,0.281,0.793c0.178,0.28,0.42,0.513,0.738,0.69c0.311,0.17,0.646,0.293,1.014,0.358
		c0.354,0.067,0.722,0.099,1.088,0.099c0.353-0.007,0.707-0.037,1.056-0.099c0.396-0.071,0.756-0.208,1.087-0.396
		c0.287-0.178,0.52-0.385,0.689-0.635c0.151-0.252,0.231-0.521,0.231-0.802c-0.006-0.226-0.067-0.438-0.194-0.635
		C110.552,127.54,110.381,127.379,110.173,127.247" style="stroke-dasharray: 40, 42; stroke-dashoffset: 0; fill: rgb(255, 255, 255);"></path> <path fill="none" stroke="#FFFFFF" stroke-width="0.3" stroke-miterlimit="10" stroke-dasharray="15,17" d="M119.746,124.008
		c-0.079-0.055-0.178-0.084-0.293-0.084h-0.551c-0.12,0-0.226,0.029-0.312,0.092c-0.071,0.079-0.108,0.164-0.108,0.263v5.652
		c0,0.104,0.037,0.19,0.108,0.263c0.086,0.063,0.19,0.094,0.312,0.094h0.551c0.115,0,0.214-0.024,0.293-0.086
		c0.097-0.072,0.141-0.158,0.141-0.271v-5.652C119.887,124.174,119.843,124.083,119.746,124.008" style="stroke-dasharray: 15, 17; stroke-dashoffset: 0; fill: rgb(255, 255, 255);"></path> <path fill="none" stroke="#FFFFFF" stroke-width="0.3" stroke-miterlimit="10" stroke-dasharray="43,45" d="M134.318,127.197
		c-0.043-0.022-0.086-0.036-0.135-0.043c-0.061-0.005-0.127-0.005-0.195-0.005h-2.637c-0.063,0-0.121,0-0.179,0.005
		c-0.034,0.007-0.079,0.021-0.108,0.043c-0.043,0.062-0.063,0.128-0.049,0.195c0,0.044,0,0.086,0.006,0.129
		c0.008,0.028,0.024,0.056,0.056,0.071c0.079,0.037,0.171,0.05,0.263,0.043h1.717v1.564c-0.264,0.188-0.558,0.328-0.888,0.438
		c-0.366,0.104-0.75,0.158-1.146,0.158c-0.308,0-0.599-0.041-0.879-0.139c-0.367-0.13-0.666-0.318-0.918-0.568
		c-0.254-0.275-0.451-0.573-0.574-0.897c-0.133-0.372-0.199-0.745-0.199-1.124c0-0.365,0.049-0.719,0.152-1.066
		c0.098-0.324,0.274-0.617,0.513-0.888c0.237-0.25,0.536-0.432,0.892-0.562c0.311-0.086,0.635-0.133,0.967-0.141
		c0.198,0,0.4,0.024,0.59,0.067c0.213,0.062,0.404,0.153,0.568,0.269c0.115,0.099,0.213,0.201,0.305,0.313
		c0.16,0.219,0.301,0.438,0.422,0.664c0.056,0.108,0.146,0.185,0.274,0.226c0.19,0.03,0.366,0.021,0.544-0.035
		c0.157-0.023,0.286-0.086,0.391-0.178c0.066-0.092,0.092-0.195,0.061-0.305c-0.055-0.229-0.164-0.434-0.328-0.629
		c-0.189-0.196-0.423-0.367-0.697-0.495c-0.328-0.14-0.672-0.244-1.03-0.312c-0.324-0.043-0.646-0.067-0.978-0.074
		c-0.472,0.007-0.935,0.056-1.386,0.146c-0.524,0.129-0.994,0.336-1.417,0.622c-0.391,0.294-0.677,0.636-0.872,1.032
		c-0.099,0.208-0.178,0.427-0.231,0.646c-0.045,0.237-0.067,0.482-0.074,0.728c0,0.364,0.063,0.721,0.184,1.067
		c0.16,0.422,0.415,0.801,0.77,1.135c0.359,0.313,0.783,0.558,1.277,0.729c0.53,0.172,1.086,0.258,1.672,0.258
		c0.543-0.008,1.08-0.074,1.605-0.203c0.495-0.121,0.959-0.293,1.385-0.513c0.122-0.062,0.227-0.136,0.313-0.221
		c0.05-0.104,0.074-0.214,0.066-0.322v-1.563c0-0.065-0.005-0.127-0.018-0.194C134.355,127.247,134.337,127.213,134.318,127.197" style="stroke-dasharray: 43, 45; stroke-dashoffset: 0; fill: rgb(255, 255, 255);"></path> <path fill="none" stroke="#FFFFFF" stroke-width="0.3" stroke-miterlimit="10" stroke-dasharray="41,43" d="M146.968,124.008
		c-0.079-0.055-0.176-0.084-0.292-0.084h-0.55c-0.122,0-0.226,0.029-0.312,0.092c-0.072,0.079-0.109,0.164-0.109,0.263v4.729
		l-3.396-4.479c-0.103-0.163-0.23-0.312-0.39-0.45c-0.099-0.093-0.226-0.142-0.379-0.154h-0.701c-0.116,0.007-0.215,0.043-0.3,0.109
		c-0.086,0.067-0.128,0.153-0.135,0.245v5.652c0,0.099,0.037,0.185,0.109,0.257c0.086,0.066,0.19,0.1,0.312,0.1h0.557
		c0.109,0,0.208-0.031,0.287-0.086c0.097-0.072,0.142-0.164,0.142-0.271v-4.865l3.394,4.585c0.099,0.116,0.196,0.238,0.293,0.35
		c0.062,0.072,0.128,0.133,0.208,0.188c0.123,0.079,0.257,0.111,0.41,0.1h0.561c0.121,0.006,0.232-0.024,0.317-0.086
		c0.086-0.072,0.12-0.154,0.116-0.257v-5.666C147.109,124.174,147.061,124.083,146.968,124.008" style="stroke-dasharray: 41, 43; stroke-dashoffset: 0; fill: rgb(255, 255, 255);"></path> <path fill="none" stroke="#FFFFFF" stroke-width="0.3" stroke-miterlimit="10" stroke-dasharray="19,21" d="M6.235,123.924H5.697
		c-0.229,0-0.562,0.115-0.739,0.256c-0.577,0.465-1.511,0.892-2.014,1.045c-0.058,0.018-0.08,0.097-0.034,0.141l0.012,0.012
		c0.037,0.037,0.085,0.057,0.135,0.051c0.36-0.031,1.102-0.165,1.605-0.324c0.08-0.023,0.144,0.023,0.144,0.109v3.9v0.172
		c0,0.555,0.791,1.002,1.346,1.002h0.083c0.095,0,0.167-0.074,0.167-0.166v-6.025C6.402,123.999,6.33,123.924,6.235,123.924" style="stroke-dasharray: 19, 21; stroke-dashoffset: 0; fill: rgb(255, 255, 255);"></path></g> <path fill="none" stroke="#FFFFFF" stroke-miterlimit="10" stroke-dasharray="544,546" d="M109.223,60.156
	c0.006-0.009,0.006-0.014,0.01-0.018c2.725-5.03,4.377-10.73,4.644-16.786c0.005-0.065,0.005-0.126,0.011-0.188
	c0.004-0.111,0.004-0.22,0.01-0.331c0.004-0.116,0.004-0.235,0.01-0.351c0-0.083,0.006-0.165,0.006-0.247
	c0.004-0.208,0.004-0.416,0.004-0.626c0-0.024,0-0.049,0-0.077c0-10.728-4.242-20.653-12.027-28.083
	c-7.324-6.99-16.793-10.777-26.84-10.777c-0.024,0-0.048,0-0.075,0h0.001c-21.504,0-38.889,17.417-38.889,38.922
	c-0.007,10.061,3.779,19.548,10.777,26.878c7.425,7.782,17.419,12.067,28.138,12.077c0.315,0,0.632-0.006,0.948-0.014
	c0.063,0,0.119-0.006,0.182-0.006c0.239-0.005,0.479-0.016,0.717-0.023c0.145-0.012,0.286-0.021,0.432-0.024
	c0.138-0.012,0.277-0.021,0.416-0.03c0.209-0.016,0.416-0.029,0.623-0.045c0.054-0.004,0.107-0.009,0.158-0.015
	c1.104-0.104,2.211-0.247,3.313-0.438c8.734-2.67,14.82-6.681,14.82-16.711V21.058c0-0.596-0.483-1.08-1.082-1.08h-4.33
	c-0.594,0-1.078,0.484-1.078,1.08v42.184c0,4.069-1.969,10.788-12.784,12.211c-1.19,0.104-2.155,0.148-3.089,0.148
	c-9.741,0-17.562-3.719-24.209-10.884c-6.734-7.258-10.034-15.906-9.292-25.807C42.035,21.74,55.198,7.482,72.367,6.194
	c9.896-0.739,20.105,2.896,27.363,9.63c7.164,6.646,11.271,16.044,11.271,25.786c0,6.84-2.659,15.528-5.289,20.766
	c-0.297,0.596-0.45,1.256-0.45,1.923v0.538c0,0.411,0.52,0.587,0.768,0.261c0.236-0.31,0.464-0.623,0.687-0.94
	c0.347-0.451,0.786-1.107,1.341-1.996C108.466,61.505,108.854,60.835,109.223,60.156" style="stroke-dasharray: 544, 546; stroke-dashoffset: 0; fill: rgb(255, 255, 255);"></path> <path fill="none" stroke="#FFFFFF" stroke-miterlimit="10" stroke-dasharray="119,121" d="M85.373,61.084
	c0.596,0,1.079-0.484,1.079-1.081V21.058c0-0.596-0.483-1.08-1.079-1.08h-3.488c-1.47,0-3.623,0.739-4.768,1.661
	c-3.718,2.996-9.766,5.772-13.004,6.749c-0.388,0.116-0.509,0.61-0.223,0.899l0.069,0.069c0.243,0.242,0.559,0.358,0.877,0.329
	c2.333-0.213,7.112-1.061,10.374-2.087c0.509-0.16,0.931,0.148,0.931,0.683l0.008,24.155c0,4.771,3.863,8.64,8.633,8.649
	L85.373,61.084L85.373,61.084z" style="stroke-dasharray: 119, 121; stroke-dashoffset: 0; fill: rgb(255, 255, 255);"></path></svg>